<?xml version="1.0" encoding="utf-8" standalone="no"?>
<!DOCTYPE svg PUBLIC "-//W3C//DTD SVG 1.1//EN"
  "http://www.w3.org/Graphics/SVG/1.1/DTD/svg11.dtd">
<!-- Created with matplotlib (https://matplotlib.org/) -->
<svg height="151.2pt" version="1.1" viewBox="0 0 244.8 151.2" width="244.8pt" xmlns="http://www.w3.org/2000/svg" xmlns:xlink="http://www.w3.org/1999/xlink">
 <defs>
  <style type="text/css">
*{stroke-linecap:butt;stroke-linejoin:round;}
  </style>
 </defs>
 <g id="figure_1">
  <g id="patch_1">
   <path d="M 0 151.2 
L 244.8 151.2 
L 244.8 0 
L 0 0 
z
" style="fill:none;"/>
  </g>
  <g id="axes_1">
   <g id="patch_2">
    <path d="M 55.58 108.28 
L 234 108.28 
L 234 10.8 
L 55.58 10.8 
z
" style="fill:none;"/>
   </g>
   <g id="matplotlib.axis_1">
    <g id="xtick_1">
     <g id="line2d_1">
      <path clip-path="url(#p9f13e1702c)" d="M 63.69 108.28 
L 63.69 10.8 
" style="fill:none;stroke:#b0b0b0;stroke-linecap:square;stroke-width:0.8;"/>
     </g>
     <g id="line2d_2">
      <defs>
       <path d="M 0 0 
L 0 3.5 
" id="m15625631ba" style="stroke:#000000;stroke-width:0.8;"/>
      </defs>
      <g>
       <use style="stroke:#000000;stroke-width:0.8;" x="63.69" xlink:href="#m15625631ba" y="108.28"/>
      </g>
     </g>
     <g id="text_1">
      <!-- 0 -->
      <defs>
       <path d="M 31.78125 66.40625 
Q 24.171875 66.40625 20.328125 58.90625 
Q 16.5 51.421875 16.5 36.375 
Q 16.5 21.390625 20.328125 13.890625 
Q 24.171875 6.390625 31.78125 6.390625 
Q 39.453125 6.390625 43.28125 13.890625 
Q 47.125 21.390625 47.125 36.375 
Q 47.125 51.421875 43.28125 58.90625 
Q 39.453125 66.40625 31.78125 66.40625 
z
M 31.78125 74.21875 
Q 44.046875 74.21875 50.515625 64.515625 
Q 56.984375 54.828125 56.984375 36.375 
Q 56.984375 17.96875 50.515625 8.265625 
Q 44.046875 -1.421875 31.78125 -1.421875 
Q 19.53125 -1.421875 13.0625 8.265625 
Q 6.59375 17.96875 6.59375 36.375 
Q 6.59375 54.828125 13.0625 64.515625 
Q 19.53125 74.21875 31.78125 74.21875 
z
" id="DejaVuSans-48"/>
      </defs>
      <g transform="translate(60.50875 122.878437)scale(0.1 -0.1)">
       <use xlink:href="#DejaVuSans-48"/>
      </g>
     </g>
    </g>
    <g id="xtick_2">
     <g id="line2d_3">
      <path clip-path="url(#p9f13e1702c)" d="M 120.602281 108.28 
L 120.602281 10.8 
" style="fill:none;stroke:#b0b0b0;stroke-linecap:square;stroke-width:0.8;"/>
     </g>
     <g id="line2d_4">
      <g>
       <use style="stroke:#000000;stroke-width:0.8;" x="120.602281" xlink:href="#m15625631ba" y="108.28"/>
      </g>
     </g>
     <g id="text_2">
      <!-- 20 -->
      <defs>
       <path d="M 19.1875 8.296875 
L 53.609375 8.296875 
L 53.609375 0 
L 7.328125 0 
L 7.328125 8.296875 
Q 12.9375 14.109375 22.625 23.890625 
Q 32.328125 33.6875 34.8125 36.53125 
Q 39.546875 41.84375 41.421875 45.53125 
Q 43.3125 49.21875 43.3125 52.78125 
Q 43.3125 58.59375 39.234375 62.25 
Q 35.15625 65.921875 28.609375 65.921875 
Q 23.96875 65.921875 18.8125 64.3125 
Q 13.671875 62.703125 7.8125 59.421875 
L 7.8125 69.390625 
Q 13.765625 71.78125 18.9375 73 
Q 24.125 74.21875 28.421875 74.21875 
Q 39.75 74.21875 46.484375 68.546875 
Q 53.21875 62.890625 53.21875 53.421875 
Q 53.21875 48.921875 51.53125 44.890625 
Q 49.859375 40.875 45.40625 35.40625 
Q 44.1875 33.984375 37.640625 27.21875 
Q 31.109375 20.453125 19.1875 8.296875 
z
" id="DejaVuSans-50"/>
      </defs>
      <g transform="translate(114.239781 122.878437)scale(0.1 -0.1)">
       <use xlink:href="#DejaVuSans-50"/>
       <use x="63.623047" xlink:href="#DejaVuSans-48"/>
      </g>
     </g>
    </g>
    <g id="xtick_3">
     <g id="line2d_5">
      <path clip-path="url(#p9f13e1702c)" d="M 177.514561 108.28 
L 177.514561 10.8 
" style="fill:none;stroke:#b0b0b0;stroke-linecap:square;stroke-width:0.8;"/>
     </g>
     <g id="line2d_6">
      <g>
       <use style="stroke:#000000;stroke-width:0.8;" x="177.514561" xlink:href="#m15625631ba" y="108.28"/>
      </g>
     </g>
     <g id="text_3">
      <!-- 40 -->
      <defs>
       <path d="M 37.796875 64.3125 
L 12.890625 25.390625 
L 37.796875 25.390625 
z
M 35.203125 72.90625 
L 47.609375 72.90625 
L 47.609375 25.390625 
L 58.015625 25.390625 
L 58.015625 17.1875 
L 47.609375 17.1875 
L 47.609375 0 
L 37.796875 0 
L 37.796875 17.1875 
L 4.890625 17.1875 
L 4.890625 26.703125 
z
" id="DejaVuSans-52"/>
      </defs>
      <g transform="translate(171.152061 122.878437)scale(0.1 -0.1)">
       <use xlink:href="#DejaVuSans-52"/>
       <use x="63.623047" xlink:href="#DejaVuSans-48"/>
      </g>
     </g>
    </g>
    <g id="text_4">
     <!-- $\mathrm{Time\ step} $ -->
     <defs>
      <path d="M -0.296875 72.90625 
L 61.375 72.90625 
L 61.375 64.59375 
L 35.5 64.59375 
L 35.5 0 
L 25.59375 0 
L 25.59375 64.59375 
L -0.296875 64.59375 
z
" id="DejaVuSans-84"/>
      <path d="M 9.421875 54.6875 
L 18.40625 54.6875 
L 18.40625 0 
L 9.421875 0 
z
M 9.421875 75.984375 
L 18.40625 75.984375 
L 18.40625 64.59375 
L 9.421875 64.59375 
z
" id="DejaVuSans-105"/>
      <path d="M 52 44.1875 
Q 55.375 50.25 60.0625 53.125 
Q 64.75 56 71.09375 56 
Q 79.640625 56 84.28125 50.015625 
Q 88.921875 44.046875 88.921875 33.015625 
L 88.921875 0 
L 79.890625 0 
L 79.890625 32.71875 
Q 79.890625 40.578125 77.09375 44.375 
Q 74.3125 48.1875 68.609375 48.1875 
Q 61.625 48.1875 57.5625 43.546875 
Q 53.515625 38.921875 53.515625 30.90625 
L 53.515625 0 
L 44.484375 0 
L 44.484375 32.71875 
Q 44.484375 40.625 41.703125 44.40625 
Q 38.921875 48.1875 33.109375 48.1875 
Q 26.21875 48.1875 22.15625 43.53125 
Q 18.109375 38.875 18.109375 30.90625 
L 18.109375 0 
L 9.078125 0 
L 9.078125 54.6875 
L 18.109375 54.6875 
L 18.109375 46.1875 
Q 21.1875 51.21875 25.484375 53.609375 
Q 29.78125 56 35.6875 56 
Q 41.65625 56 45.828125 52.96875 
Q 50 49.953125 52 44.1875 
z
" id="DejaVuSans-109"/>
      <path d="M 56.203125 29.59375 
L 56.203125 25.203125 
L 14.890625 25.203125 
Q 15.484375 15.921875 20.484375 11.0625 
Q 25.484375 6.203125 34.421875 6.203125 
Q 39.59375 6.203125 44.453125 7.46875 
Q 49.3125 8.734375 54.109375 11.28125 
L 54.109375 2.78125 
Q 49.265625 0.734375 44.1875 -0.34375 
Q 39.109375 -1.421875 33.890625 -1.421875 
Q 20.796875 -1.421875 13.15625 6.1875 
Q 5.515625 13.8125 5.515625 26.8125 
Q 5.515625 40.234375 12.765625 48.109375 
Q 20.015625 56 32.328125 56 
Q 43.359375 56 49.78125 48.890625 
Q 56.203125 41.796875 56.203125 29.59375 
z
M 47.21875 32.234375 
Q 47.125 39.59375 43.09375 43.984375 
Q 39.0625 48.390625 32.421875 48.390625 
Q 24.90625 48.390625 20.390625 44.140625 
Q 15.875 39.890625 15.1875 32.171875 
z
" id="DejaVuSans-101"/>
      <path d="M 44.28125 53.078125 
L 44.28125 44.578125 
Q 40.484375 46.53125 36.375 47.5 
Q 32.28125 48.484375 27.875 48.484375 
Q 21.1875 48.484375 17.84375 46.4375 
Q 14.5 44.390625 14.5 40.28125 
Q 14.5 37.15625 16.890625 35.375 
Q 19.28125 33.59375 26.515625 31.984375 
L 29.59375 31.296875 
Q 39.15625 29.25 43.1875 25.515625 
Q 47.21875 21.78125 47.21875 15.09375 
Q 47.21875 7.46875 41.1875 3.015625 
Q 35.15625 -1.421875 24.609375 -1.421875 
Q 20.21875 -1.421875 15.453125 -0.5625 
Q 10.6875 0.296875 5.421875 2 
L 5.421875 11.28125 
Q 10.40625 8.6875 15.234375 7.390625 
Q 20.0625 6.109375 24.8125 6.109375 
Q 31.15625 6.109375 34.5625 8.28125 
Q 37.984375 10.453125 37.984375 14.40625 
Q 37.984375 18.0625 35.515625 20.015625 
Q 33.0625 21.96875 24.703125 23.78125 
L 21.578125 24.515625 
Q 13.234375 26.265625 9.515625 29.90625 
Q 5.8125 33.546875 5.8125 39.890625 
Q 5.8125 47.609375 11.28125 51.796875 
Q 16.75 56 26.8125 56 
Q 31.78125 56 36.171875 55.265625 
Q 40.578125 54.546875 44.28125 53.078125 
z
" id="DejaVuSans-115"/>
      <path d="M 18.3125 70.21875 
L 18.3125 54.6875 
L 36.8125 54.6875 
L 36.8125 47.703125 
L 18.3125 47.703125 
L 18.3125 18.015625 
Q 18.3125 11.328125 20.140625 9.421875 
Q 21.96875 7.515625 27.59375 7.515625 
L 36.8125 7.515625 
L 36.8125 0 
L 27.59375 0 
Q 17.1875 0 13.234375 3.875 
Q 9.28125 7.765625 9.28125 18.015625 
L 9.28125 47.703125 
L 2.6875 47.703125 
L 2.6875 54.6875 
L 9.28125 54.6875 
L 9.28125 70.21875 
z
" id="DejaVuSans-116"/>
      <path d="M 18.109375 8.203125 
L 18.109375 -20.796875 
L 9.078125 -20.796875 
L 9.078125 54.6875 
L 18.109375 54.6875 
L 18.109375 46.390625 
Q 20.953125 51.265625 25.265625 53.625 
Q 29.59375 56 35.59375 56 
Q 45.5625 56 51.78125 48.09375 
Q 58.015625 40.1875 58.015625 27.296875 
Q 58.015625 14.40625 51.78125 6.484375 
Q 45.5625 -1.421875 35.59375 -1.421875 
Q 29.59375 -1.421875 25.265625 0.953125 
Q 20.953125 3.328125 18.109375 8.203125 
z
M 48.6875 27.296875 
Q 48.6875 37.203125 44.609375 42.84375 
Q 40.53125 48.484375 33.40625 48.484375 
Q 26.265625 48.484375 22.1875 42.84375 
Q 18.109375 37.203125 18.109375 27.296875 
Q 18.109375 17.390625 22.1875 11.75 
Q 26.265625 6.109375 33.40625 6.109375 
Q 40.53125 6.109375 44.609375 11.75 
Q 48.6875 17.390625 48.6875 27.296875 
z
" id="DejaVuSans-112"/>
     </defs>
     <g transform="translate(119.94 136.558125)scale(0.1 -0.1)">
      <use transform="translate(0 0.015625)" xlink:href="#DejaVuSans-84"/>
      <use transform="translate(61.083984 0.015625)" xlink:href="#DejaVuSans-105"/>
      <use transform="translate(88.867188 0.015625)" xlink:href="#DejaVuSans-109"/>
      <use transform="translate(186.279297 0.015625)" xlink:href="#DejaVuSans-101"/>
      <use transform="translate(280.273113 0.015625)" xlink:href="#DejaVuSans-115"/>
      <use transform="translate(332.372722 0.015625)" xlink:href="#DejaVuSans-116"/>
      <use transform="translate(371.581707 0.015625)" xlink:href="#DejaVuSans-101"/>
      <use transform="translate(433.105144 0.015625)" xlink:href="#DejaVuSans-112"/>
     </g>
    </g>
   </g>
   <g id="matplotlib.axis_2">
    <g id="ytick_1">
     <g id="line2d_7">
      <path clip-path="url(#p9f13e1702c)" d="M 55.58 103.981889 
L 234 103.981889 
" style="fill:none;stroke:#b0b0b0;stroke-linecap:square;stroke-width:0.8;"/>
     </g>
     <g id="line2d_8">
      <defs>
       <path d="M 0 0 
L -3.5 0 
" id="m53cfdf4e47" style="stroke:#000000;stroke-width:0.8;"/>
      </defs>
      <g>
       <use style="stroke:#000000;stroke-width:0.8;" x="55.58" xlink:href="#m53cfdf4e47" y="103.981889"/>
      </g>
     </g>
     <g id="text_5">
      <!-- 0 -->
      <g transform="translate(42.2175 107.781108)scale(0.1 -0.1)">
       <use xlink:href="#DejaVuSans-48"/>
      </g>
     </g>
    </g>
    <g id="ytick_2">
     <g id="line2d_9">
      <path clip-path="url(#p9f13e1702c)" d="M 55.58 61.748692 
L 234 61.748692 
" style="fill:none;stroke:#b0b0b0;stroke-linecap:square;stroke-width:0.8;"/>
     </g>
     <g id="line2d_10">
      <g>
       <use style="stroke:#000000;stroke-width:0.8;" x="55.58" xlink:href="#m53cfdf4e47" y="61.748692"/>
      </g>
     </g>
     <g id="text_6">
      <!-- 5 -->
      <defs>
       <path d="M 10.796875 72.90625 
L 49.515625 72.90625 
L 49.515625 64.59375 
L 19.828125 64.59375 
L 19.828125 46.734375 
Q 21.96875 47.46875 24.109375 47.828125 
Q 26.265625 48.1875 28.421875 48.1875 
Q 40.625 48.1875 47.75 41.5 
Q 54.890625 34.8125 54.890625 23.390625 
Q 54.890625 11.625 47.5625 5.09375 
Q 40.234375 -1.421875 26.90625 -1.421875 
Q 22.3125 -1.421875 17.546875 -0.640625 
Q 12.796875 0.140625 7.71875 1.703125 
L 7.71875 11.625 
Q 12.109375 9.234375 16.796875 8.0625 
Q 21.484375 6.890625 26.703125 6.890625 
Q 35.15625 6.890625 40.078125 11.328125 
Q 45.015625 15.765625 45.015625 23.390625 
Q 45.015625 31 40.078125 35.4375 
Q 35.15625 39.890625 26.703125 39.890625 
Q 22.75 39.890625 18.8125 39.015625 
Q 14.890625 38.140625 10.796875 36.28125 
z
" id="DejaVuSans-53"/>
      </defs>
      <g transform="translate(42.2175 65.54791)scale(0.1 -0.1)">
       <use xlink:href="#DejaVuSans-53"/>
      </g>
     </g>
    </g>
    <g id="ytick_3">
     <g id="line2d_11">
      <path clip-path="url(#p9f13e1702c)" d="M 55.58 19.515494 
L 234 19.515494 
" style="fill:none;stroke:#b0b0b0;stroke-linecap:square;stroke-width:0.8;"/>
     </g>
     <g id="line2d_12">
      <g>
       <use style="stroke:#000000;stroke-width:0.8;" x="55.58" xlink:href="#m53cfdf4e47" y="19.515494"/>
      </g>
     </g>
     <g id="text_7">
      <!-- 10 -->
      <defs>
       <path d="M 12.40625 8.296875 
L 28.515625 8.296875 
L 28.515625 63.921875 
L 10.984375 60.40625 
L 10.984375 69.390625 
L 28.421875 72.90625 
L 38.28125 72.90625 
L 38.28125 8.296875 
L 54.390625 8.296875 
L 54.390625 0 
L 12.40625 0 
z
" id="DejaVuSans-49"/>
      </defs>
      <g transform="translate(35.855 23.314713)scale(0.1 -0.1)">
       <use xlink:href="#DejaVuSans-49"/>
       <use x="63.623047" xlink:href="#DejaVuSans-48"/>
      </g>
     </g>
    </g>
    <g id="text_8">
     <!-- $\mathrm{Distance\ to\ target}$ -->
     <defs>
      <path d="M 19.671875 64.796875 
L 19.671875 8.109375 
L 31.59375 8.109375 
Q 46.6875 8.109375 53.6875 14.9375 
Q 60.6875 21.78125 60.6875 36.53125 
Q 60.6875 51.171875 53.6875 57.984375 
Q 46.6875 64.796875 31.59375 64.796875 
z
M 9.8125 72.90625 
L 30.078125 72.90625 
Q 51.265625 72.90625 61.171875 64.09375 
Q 71.09375 55.28125 71.09375 36.53125 
Q 71.09375 17.671875 61.125 8.828125 
Q 51.171875 0 30.078125 0 
L 9.8125 0 
z
" id="DejaVuSans-68"/>
      <path d="M 34.28125 27.484375 
Q 23.390625 27.484375 19.1875 25 
Q 14.984375 22.515625 14.984375 16.5 
Q 14.984375 11.71875 18.140625 8.90625 
Q 21.296875 6.109375 26.703125 6.109375 
Q 34.1875 6.109375 38.703125 11.40625 
Q 43.21875 16.703125 43.21875 25.484375 
L 43.21875 27.484375 
z
M 52.203125 31.203125 
L 52.203125 0 
L 43.21875 0 
L 43.21875 8.296875 
Q 40.140625 3.328125 35.546875 0.953125 
Q 30.953125 -1.421875 24.3125 -1.421875 
Q 15.921875 -1.421875 10.953125 3.296875 
Q 6 8.015625 6 15.921875 
Q 6 25.140625 12.171875 29.828125 
Q 18.359375 34.515625 30.609375 34.515625 
L 43.21875 34.515625 
L 43.21875 35.40625 
Q 43.21875 41.609375 39.140625 45 
Q 35.0625 48.390625 27.6875 48.390625 
Q 23 48.390625 18.546875 47.265625 
Q 14.109375 46.140625 10.015625 43.890625 
L 10.015625 52.203125 
Q 14.9375 54.109375 19.578125 55.046875 
Q 24.21875 56 28.609375 56 
Q 40.484375 56 46.34375 49.84375 
Q 52.203125 43.703125 52.203125 31.203125 
z
" id="DejaVuSans-97"/>
      <path d="M 54.890625 33.015625 
L 54.890625 0 
L 45.90625 0 
L 45.90625 32.71875 
Q 45.90625 40.484375 42.875 44.328125 
Q 39.84375 48.1875 33.796875 48.1875 
Q 26.515625 48.1875 22.3125 43.546875 
Q 18.109375 38.921875 18.109375 30.90625 
L 18.109375 0 
L 9.078125 0 
L 9.078125 54.6875 
L 18.109375 54.6875 
L 18.109375 46.1875 
Q 21.34375 51.125 25.703125 53.5625 
Q 30.078125 56 35.796875 56 
Q 45.21875 56 50.046875 50.171875 
Q 54.890625 44.34375 54.890625 33.015625 
z
" id="DejaVuSans-110"/>
      <path d="M 48.78125 52.59375 
L 48.78125 44.1875 
Q 44.96875 46.296875 41.140625 47.34375 
Q 37.3125 48.390625 33.40625 48.390625 
Q 24.65625 48.390625 19.8125 42.84375 
Q 14.984375 37.3125 14.984375 27.296875 
Q 14.984375 17.28125 19.8125 11.734375 
Q 24.65625 6.203125 33.40625 6.203125 
Q 37.3125 6.203125 41.140625 7.25 
Q 44.96875 8.296875 48.78125 10.40625 
L 48.78125 2.09375 
Q 45.015625 0.34375 40.984375 -0.53125 
Q 36.96875 -1.421875 32.421875 -1.421875 
Q 20.0625 -1.421875 12.78125 6.34375 
Q 5.515625 14.109375 5.515625 27.296875 
Q 5.515625 40.671875 12.859375 48.328125 
Q 20.21875 56 33.015625 56 
Q 37.15625 56 41.109375 55.140625 
Q 45.0625 54.296875 48.78125 52.59375 
z
" id="DejaVuSans-99"/>
      <path d="M 30.609375 48.390625 
Q 23.390625 48.390625 19.1875 42.75 
Q 14.984375 37.109375 14.984375 27.296875 
Q 14.984375 17.484375 19.15625 11.84375 
Q 23.34375 6.203125 30.609375 6.203125 
Q 37.796875 6.203125 41.984375 11.859375 
Q 46.1875 17.53125 46.1875 27.296875 
Q 46.1875 37.015625 41.984375 42.703125 
Q 37.796875 48.390625 30.609375 48.390625 
z
M 30.609375 56 
Q 42.328125 56 49.015625 48.375 
Q 55.71875 40.765625 55.71875 27.296875 
Q 55.71875 13.875 49.015625 6.21875 
Q 42.328125 -1.421875 30.609375 -1.421875 
Q 18.84375 -1.421875 12.171875 6.21875 
Q 5.515625 13.875 5.515625 27.296875 
Q 5.515625 40.765625 12.171875 48.375 
Q 18.84375 56 30.609375 56 
z
" id="DejaVuSans-111"/>
      <path d="M 41.109375 46.296875 
Q 39.59375 47.171875 37.8125 47.578125 
Q 36.03125 48 33.890625 48 
Q 26.265625 48 22.1875 43.046875 
Q 18.109375 38.09375 18.109375 28.8125 
L 18.109375 0 
L 9.078125 0 
L 9.078125 54.6875 
L 18.109375 54.6875 
L 18.109375 46.1875 
Q 20.953125 51.171875 25.484375 53.578125 
Q 30.03125 56 36.53125 56 
Q 37.453125 56 38.578125 55.875 
Q 39.703125 55.765625 41.0625 55.515625 
z
" id="DejaVuSans-114"/>
      <path d="M 45.40625 27.984375 
Q 45.40625 37.75 41.375 43.109375 
Q 37.359375 48.484375 30.078125 48.484375 
Q 22.859375 48.484375 18.828125 43.109375 
Q 14.796875 37.75 14.796875 27.984375 
Q 14.796875 18.265625 18.828125 12.890625 
Q 22.859375 7.515625 30.078125 7.515625 
Q 37.359375 7.515625 41.375 12.890625 
Q 45.40625 18.265625 45.40625 27.984375 
z
M 54.390625 6.78125 
Q 54.390625 -7.171875 48.1875 -13.984375 
Q 42 -20.796875 29.203125 -20.796875 
Q 24.46875 -20.796875 20.265625 -20.09375 
Q 16.0625 -19.390625 12.109375 -17.921875 
L 12.109375 -9.1875 
Q 16.0625 -11.328125 19.921875 -12.34375 
Q 23.78125 -13.375 27.78125 -13.375 
Q 36.625 -13.375 41.015625 -8.765625 
Q 45.40625 -4.15625 45.40625 5.171875 
L 45.40625 9.625 
Q 42.625 4.78125 38.28125 2.390625 
Q 33.9375 0 27.875 0 
Q 17.828125 0 11.671875 7.65625 
Q 5.515625 15.328125 5.515625 27.984375 
Q 5.515625 40.671875 11.671875 48.328125 
Q 17.828125 56 27.875 56 
Q 33.9375 56 38.28125 53.609375 
Q 42.625 51.21875 45.40625 46.390625 
L 45.40625 54.6875 
L 54.390625 54.6875 
z
" id="DejaVuSans-103"/>
     </defs>
     <g transform="translate(29.755 104.99)rotate(-90)scale(0.1 -0.1)">
      <use transform="translate(0 0.015625)" xlink:href="#DejaVuSans-68"/>
      <use transform="translate(77.001953 0.015625)" xlink:href="#DejaVuSans-105"/>
      <use transform="translate(104.785156 0.015625)" xlink:href="#DejaVuSans-115"/>
      <use transform="translate(156.884766 0.015625)" xlink:href="#DejaVuSans-116"/>
      <use transform="translate(196.09375 0.015625)" xlink:href="#DejaVuSans-97"/>
      <use transform="translate(257.373047 0.015625)" xlink:href="#DejaVuSans-110"/>
      <use transform="translate(320.751953 0.015625)" xlink:href="#DejaVuSans-99"/>
      <use transform="translate(375.732422 0.015625)" xlink:href="#DejaVuSans-101"/>
      <use transform="translate(469.726238 0.015625)" xlink:href="#DejaVuSans-116"/>
      <use transform="translate(508.935222 0.015625)" xlink:href="#DejaVuSans-111"/>
      <use transform="translate(602.587241 0.015625)" xlink:href="#DejaVuSans-116"/>
      <use transform="translate(641.796226 0.015625)" xlink:href="#DejaVuSans-97"/>
      <use transform="translate(703.075522 0.015625)" xlink:href="#DejaVuSans-114"/>
      <use transform="translate(744.188804 0.015625)" xlink:href="#DejaVuSans-103"/>
      <use transform="translate(807.665366 0.015625)" xlink:href="#DejaVuSans-101"/>
      <use transform="translate(869.188804 0.015625)" xlink:href="#DejaVuSans-116"/>
     </g>
    </g>
   </g>
   <g id="line2d_13">
    <path clip-path="url(#p9f13e1702c)" d="M 63.69 58.804649 
L 66.535614 53.961237 
L 69.381228 53.443936 
L 72.226842 53.309955 
L 75.072456 47.453959 
L 77.91807 41.961057 
L 80.763684 38.220541 
L 83.609298 35.439728 
L 86.454912 26.027307 
L 89.300526 15.230909 
" style="fill:none;stroke:#0000ff;stroke-dasharray:1,1.65;stroke-dashoffset:0;"/>
    <defs>
     <path d="M -1.666667 1.666667 
L 1.666667 1.666667 
L 1.666667 -1.666667 
L -1.666667 -1.666667 
z
" id="mbd60cfc250" style="stroke:#0000ff;stroke-linejoin:miter;"/>
    </defs>
    <g clip-path="url(#p9f13e1702c)">
     <use style="fill:#0000ff;stroke:#0000ff;stroke-linejoin:miter;" x="63.69" xlink:href="#mbd60cfc250" y="58.804649"/>
     <use style="fill:#0000ff;stroke:#0000ff;stroke-linejoin:miter;" x="66.535614" xlink:href="#mbd60cfc250" y="53.961237"/>
     <use style="fill:#0000ff;stroke:#0000ff;stroke-linejoin:miter;" x="69.381228" xlink:href="#mbd60cfc250" y="53.443936"/>
     <use style="fill:#0000ff;stroke:#0000ff;stroke-linejoin:miter;" x="72.226842" xlink:href="#mbd60cfc250" y="53.309955"/>
     <use style="fill:#0000ff;stroke:#0000ff;stroke-linejoin:miter;" x="75.072456" xlink:href="#mbd60cfc250" y="47.453959"/>
     <use style="fill:#0000ff;stroke:#0000ff;stroke-linejoin:miter;" x="77.91807" xlink:href="#mbd60cfc250" y="41.961057"/>
     <use style="fill:#0000ff;stroke:#0000ff;stroke-linejoin:miter;" x="80.763684" xlink:href="#mbd60cfc250" y="38.220541"/>
     <use style="fill:#0000ff;stroke:#0000ff;stroke-linejoin:miter;" x="83.609298" xlink:href="#mbd60cfc250" y="35.439728"/>
     <use style="fill:#0000ff;stroke:#0000ff;stroke-linejoin:miter;" x="86.454912" xlink:href="#mbd60cfc250" y="26.027307"/>
     <use style="fill:#0000ff;stroke:#0000ff;stroke-linejoin:miter;" x="89.300526" xlink:href="#mbd60cfc250" y="15.230909"/>
    </g>
   </g>
   <g id="line2d_14">
    <path clip-path="url(#p9f13e1702c)" d="M 89.300526 15.230909 
L 92.14614 29.368267 
L 94.991754 42.808745 
L 97.837368 54.72455 
L 100.682982 65.03983 
L 103.528596 73.890743 
L 106.374211 80.658832 
L 109.219825 77.723305 
L 112.065439 80.143165 
L 114.911053 82.377198 
L 117.756667 83.663296 
L 120.602281 83.236619 
L 123.447895 88.148097 
L 126.293509 87.390058 
L 129.139123 91.555488 
L 131.984737 87.666582 
L 134.830351 83.574086 
L 137.675965 89.723479 
L 140.521579 94.112554 
L 143.367193 96.587155 
L 146.212807 98.599684 
L 149.058421 99.680111 
L 151.904035 99.403096 
L 154.749649 99.716131 
L 157.595263 100.05494 
L 160.440877 99.909895 
L 163.286491 99.824811 
L 166.132105 99.446685 
L 168.977719 99.502644 
L 171.823333 98.96834 
L 174.668947 99.168474 
L 177.514561 99.15495 
L 180.360175 98.56068 
L 183.205789 99.423205 
L 186.051404 99.758352 
L 188.897018 99.065274 
L 191.742632 99.249613 
L 194.588246 99.404148 
L 197.43386 99.573371 
L 200.279474 99.608416 
L 203.125088 99.362122 
L 205.970702 98.541507 
L 208.816316 98.31657 
L 211.66193 99.341089 
L 214.507544 98.053983 
L 217.353158 101.247174 
L 220.198772 102.73426 
L 223.044386 102.848463 
L 225.89 103.849091 
" style="fill:none;stroke:#ff8c00;stroke-dasharray:1,1.65;stroke-dashoffset:0;"/>
    <defs>
     <path d="M -2.5 2.5 
L 2.5 -2.5 
M -2.5 -2.5 
L 2.5 2.5 
" id="mc3c5a8aeb1" style="stroke:#ff8c00;"/>
    </defs>
    <g clip-path="url(#p9f13e1702c)">
     <use style="fill:#ff8c00;stroke:#ff8c00;" x="89.300526" xlink:href="#mc3c5a8aeb1" y="15.230909"/>
     <use style="fill:#ff8c00;stroke:#ff8c00;" x="92.14614" xlink:href="#mc3c5a8aeb1" y="29.368267"/>
     <use style="fill:#ff8c00;stroke:#ff8c00;" x="94.991754" xlink:href="#mc3c5a8aeb1" y="42.808745"/>
     <use style="fill:#ff8c00;stroke:#ff8c00;" x="97.837368" xlink:href="#mc3c5a8aeb1" y="54.72455"/>
     <use style="fill:#ff8c00;stroke:#ff8c00;" x="100.682982" xlink:href="#mc3c5a8aeb1" y="65.03983"/>
     <use style="fill:#ff8c00;stroke:#ff8c00;" x="103.528596" xlink:href="#mc3c5a8aeb1" y="73.890743"/>
     <use style="fill:#ff8c00;stroke:#ff8c00;" x="106.374211" xlink:href="#mc3c5a8aeb1" y="80.658832"/>
     <use style="fill:#ff8c00;stroke:#ff8c00;" x="109.219825" xlink:href="#mc3c5a8aeb1" y="77.723305"/>
     <use style="fill:#ff8c00;stroke:#ff8c00;" x="112.065439" xlink:href="#mc3c5a8aeb1" y="80.143165"/>
     <use style="fill:#ff8c00;stroke:#ff8c00;" x="114.911053" xlink:href="#mc3c5a8aeb1" y="82.377198"/>
     <use style="fill:#ff8c00;stroke:#ff8c00;" x="117.756667" xlink:href="#mc3c5a8aeb1" y="83.663296"/>
     <use style="fill:#ff8c00;stroke:#ff8c00;" x="120.602281" xlink:href="#mc3c5a8aeb1" y="83.236619"/>
     <use style="fill:#ff8c00;stroke:#ff8c00;" x="123.447895" xlink:href="#mc3c5a8aeb1" y="88.148097"/>
     <use style="fill:#ff8c00;stroke:#ff8c00;" x="126.293509" xlink:href="#mc3c5a8aeb1" y="87.390058"/>
     <use style="fill:#ff8c00;stroke:#ff8c00;" x="129.139123" xlink:href="#mc3c5a8aeb1" y="91.555488"/>
     <use style="fill:#ff8c00;stroke:#ff8c00;" x="131.984737" xlink:href="#mc3c5a8aeb1" y="87.666582"/>
     <use style="fill:#ff8c00;stroke:#ff8c00;" x="134.830351" xlink:href="#mc3c5a8aeb1" y="83.574086"/>
     <use style="fill:#ff8c00;stroke:#ff8c00;" x="137.675965" xlink:href="#mc3c5a8aeb1" y="89.723479"/>
     <use style="fill:#ff8c00;stroke:#ff8c00;" x="140.521579" xlink:href="#mc3c5a8aeb1" y="94.112554"/>
     <use style="fill:#ff8c00;stroke:#ff8c00;" x="143.367193" xlink:href="#mc3c5a8aeb1" y="96.587155"/>
     <use style="fill:#ff8c00;stroke:#ff8c00;" x="146.212807" xlink:href="#mc3c5a8aeb1" y="98.599684"/>
     <use style="fill:#ff8c00;stroke:#ff8c00;" x="149.058421" xlink:href="#mc3c5a8aeb1" y="99.680111"/>
     <use style="fill:#ff8c00;stroke:#ff8c00;" x="151.904035" xlink:href="#mc3c5a8aeb1" y="99.403096"/>
     <use style="fill:#ff8c00;stroke:#ff8c00;" x="154.749649" xlink:href="#mc3c5a8aeb1" y="99.716131"/>
     <use style="fill:#ff8c00;stroke:#ff8c00;" x="157.595263" xlink:href="#mc3c5a8aeb1" y="100.05494"/>
     <use style="fill:#ff8c00;stroke:#ff8c00;" x="160.440877" xlink:href="#mc3c5a8aeb1" y="99.909895"/>
     <use style="fill:#ff8c00;stroke:#ff8c00;" x="163.286491" xlink:href="#mc3c5a8aeb1" y="99.824811"/>
     <use style="fill:#ff8c00;stroke:#ff8c00;" x="166.132105" xlink:href="#mc3c5a8aeb1" y="99.446685"/>
     <use style="fill:#ff8c00;stroke:#ff8c00;" x="168.977719" xlink:href="#mc3c5a8aeb1" y="99.502644"/>
     <use style="fill:#ff8c00;stroke:#ff8c00;" x="171.823333" xlink:href="#mc3c5a8aeb1" y="98.96834"/>
     <use style="fill:#ff8c00;stroke:#ff8c00;" x="174.668947" xlink:href="#mc3c5a8aeb1" y="99.168474"/>
     <use style="fill:#ff8c00;stroke:#ff8c00;" x="177.514561" xlink:href="#mc3c5a8aeb1" y="99.15495"/>
     <use style="fill:#ff8c00;stroke:#ff8c00;" x="180.360175" xlink:href="#mc3c5a8aeb1" y="98.56068"/>
     <use style="fill:#ff8c00;stroke:#ff8c00;" x="183.205789" xlink:href="#mc3c5a8aeb1" y="99.423205"/>
     <use style="fill:#ff8c00;stroke:#ff8c00;" x="186.051404" xlink:href="#mc3c5a8aeb1" y="99.758352"/>
     <use style="fill:#ff8c00;stroke:#ff8c00;" x="188.897018" xlink:href="#mc3c5a8aeb1" y="99.065274"/>
     <use style="fill:#ff8c00;stroke:#ff8c00;" x="191.742632" xlink:href="#mc3c5a8aeb1" y="99.249613"/>
     <use style="fill:#ff8c00;stroke:#ff8c00;" x="194.588246" xlink:href="#mc3c5a8aeb1" y="99.404148"/>
     <use style="fill:#ff8c00;stroke:#ff8c00;" x="197.43386" xlink:href="#mc3c5a8aeb1" y="99.573371"/>
     <use style="fill:#ff8c00;stroke:#ff8c00;" x="200.279474" xlink:href="#mc3c5a8aeb1" y="99.608416"/>
     <use style="fill:#ff8c00;stroke:#ff8c00;" x="203.125088" xlink:href="#mc3c5a8aeb1" y="99.362122"/>
     <use style="fill:#ff8c00;stroke:#ff8c00;" x="205.970702" xlink:href="#mc3c5a8aeb1" y="98.541507"/>
     <use style="fill:#ff8c00;stroke:#ff8c00;" x="208.816316" xlink:href="#mc3c5a8aeb1" y="98.31657"/>
     <use style="fill:#ff8c00;stroke:#ff8c00;" x="211.66193" xlink:href="#mc3c5a8aeb1" y="99.341089"/>
     <use style="fill:#ff8c00;stroke:#ff8c00;" x="214.507544" xlink:href="#mc3c5a8aeb1" y="98.053983"/>
     <use style="fill:#ff8c00;stroke:#ff8c00;" x="217.353158" xlink:href="#mc3c5a8aeb1" y="101.247174"/>
     <use style="fill:#ff8c00;stroke:#ff8c00;" x="220.198772" xlink:href="#mc3c5a8aeb1" y="102.73426"/>
     <use style="fill:#ff8c00;stroke:#ff8c00;" x="223.044386" xlink:href="#mc3c5a8aeb1" y="102.848463"/>
     <use style="fill:#ff8c00;stroke:#ff8c00;" x="225.89" xlink:href="#mc3c5a8aeb1" y="103.849091"/>
    </g>
   </g>
   <g id="line2d_15">
    <path clip-path="url(#p9f13e1702c)" d="M 89.300526 15.230909 
L 92.14614 27.704721 
L 94.991754 38.921657 
L 97.837368 50.038185 
L 100.682982 60.478086 
L 103.528596 70.116688 
L 106.374211 78.799551 
L 109.219825 86.340769 
L 112.065439 92.543758 
L 114.911053 97.246953 
L 117.756667 100.35143 
L 120.602281 101.751303 
L 123.447895 101.952767 
L 126.293509 101.542802 
L 129.139123 100.082065 
L 131.984737 97.60486 
L 134.830351 99.099461 
L 137.675965 99.350078 
L 140.521579 99.397075 
L 143.367193 99.082144 
L 146.212807 98.86345 
L 149.058421 99.071786 
L 151.904035 99.235687 
L 154.749649 99.224038 
L 157.595263 97.577235 
L 160.440877 98.984548 
L 163.286491 98.05185 
L 166.132105 100.502725 
L 168.977719 101.500011 
L 171.823333 101.680735 
L 174.668947 102.092607 
L 177.514561 102.543073 
L 180.360175 101.575042 
L 183.205789 102.053514 
L 186.051404 102.025393 
L 188.897018 102.312478 
L 191.742632 102.048947 
L 194.588246 100.737398 
L 197.43386 102.01668 
L 200.279474 103.246202 
" style="fill:none;stroke:#708090;stroke-dasharray:1,1.65;stroke-dashoffset:0;"/>
    <defs>
     <path d="M -2.5 0 
L 2.5 0 
M 0 2.5 
L 0 -2.5 
" id="m52c9f70f2a" style="stroke:#708090;"/>
    </defs>
    <g clip-path="url(#p9f13e1702c)">
     <use style="fill:#708090;stroke:#708090;" x="89.300526" xlink:href="#m52c9f70f2a" y="15.230909"/>
     <use style="fill:#708090;stroke:#708090;" x="92.14614" xlink:href="#m52c9f70f2a" y="27.704721"/>
     <use style="fill:#708090;stroke:#708090;" x="94.991754" xlink:href="#m52c9f70f2a" y="38.921657"/>
     <use style="fill:#708090;stroke:#708090;" x="97.837368" xlink:href="#m52c9f70f2a" y="50.038185"/>
     <use style="fill:#708090;stroke:#708090;" x="100.682982" xlink:href="#m52c9f70f2a" y="60.478086"/>
     <use style="fill:#708090;stroke:#708090;" x="103.528596" xlink:href="#m52c9f70f2a" y="70.116688"/>
     <use style="fill:#708090;stroke:#708090;" x="106.374211" xlink:href="#m52c9f70f2a" y="78.799551"/>
     <use style="fill:#708090;stroke:#708090;" x="109.219825" xlink:href="#m52c9f70f2a" y="86.340769"/>
     <use style="fill:#708090;stroke:#708090;" x="112.065439" xlink:href="#m52c9f70f2a" y="92.543758"/>
     <use style="fill:#708090;stroke:#708090;" x="114.911053" xlink:href="#m52c9f70f2a" y="97.246953"/>
     <use style="fill:#708090;stroke:#708090;" x="117.756667" xlink:href="#m52c9f70f2a" y="100.35143"/>
     <use style="fill:#708090;stroke:#708090;" x="120.602281" xlink:href="#m52c9f70f2a" y="101.751303"/>
     <use style="fill:#708090;stroke:#708090;" x="123.447895" xlink:href="#m52c9f70f2a" y="101.952767"/>
     <use style="fill:#708090;stroke:#708090;" x="126.293509" xlink:href="#m52c9f70f2a" y="101.542802"/>
     <use style="fill:#708090;stroke:#708090;" x="129.139123" xlink:href="#m52c9f70f2a" y="100.082065"/>
     <use style="fill:#708090;stroke:#708090;" x="131.984737" xlink:href="#m52c9f70f2a" y="97.60486"/>
     <use style="fill:#708090;stroke:#708090;" x="134.830351" xlink:href="#m52c9f70f2a" y="99.099461"/>
     <use style="fill:#708090;stroke:#708090;" x="137.675965" xlink:href="#m52c9f70f2a" y="99.350078"/>
     <use style="fill:#708090;stroke:#708090;" x="140.521579" xlink:href="#m52c9f70f2a" y="99.397075"/>
     <use style="fill:#708090;stroke:#708090;" x="143.367193" xlink:href="#m52c9f70f2a" y="99.082144"/>
     <use style="fill:#708090;stroke:#708090;" x="146.212807" xlink:href="#m52c9f70f2a" y="98.86345"/>
     <use style="fill:#708090;stroke:#708090;" x="149.058421" xlink:href="#m52c9f70f2a" y="99.071786"/>
     <use style="fill:#708090;stroke:#708090;" x="151.904035" xlink:href="#m52c9f70f2a" y="99.235687"/>
     <use style="fill:#708090;stroke:#708090;" x="154.749649" xlink:href="#m52c9f70f2a" y="99.224038"/>
     <use style="fill:#708090;stroke:#708090;" x="157.595263" xlink:href="#m52c9f70f2a" y="97.577235"/>
     <use style="fill:#708090;stroke:#708090;" x="160.440877" xlink:href="#m52c9f70f2a" y="98.984548"/>
     <use style="fill:#708090;stroke:#708090;" x="163.286491" xlink:href="#m52c9f70f2a" y="98.05185"/>
     <use style="fill:#708090;stroke:#708090;" x="166.132105" xlink:href="#m52c9f70f2a" y="100.502725"/>
     <use style="fill:#708090;stroke:#708090;" x="168.977719" xlink:href="#m52c9f70f2a" y="101.500011"/>
     <use style="fill:#708090;stroke:#708090;" x="171.823333" xlink:href="#m52c9f70f2a" y="101.680735"/>
     <use style="fill:#708090;stroke:#708090;" x="174.668947" xlink:href="#m52c9f70f2a" y="102.092607"/>
     <use style="fill:#708090;stroke:#708090;" x="177.514561" xlink:href="#m52c9f70f2a" y="102.543073"/>
     <use style="fill:#708090;stroke:#708090;" x="180.360175" xlink:href="#m52c9f70f2a" y="101.575042"/>
     <use style="fill:#708090;stroke:#708090;" x="183.205789" xlink:href="#m52c9f70f2a" y="102.053514"/>
     <use style="fill:#708090;stroke:#708090;" x="186.051404" xlink:href="#m52c9f70f2a" y="102.025393"/>
     <use style="fill:#708090;stroke:#708090;" x="188.897018" xlink:href="#m52c9f70f2a" y="102.312478"/>
     <use style="fill:#708090;stroke:#708090;" x="191.742632" xlink:href="#m52c9f70f2a" y="102.048947"/>
     <use style="fill:#708090;stroke:#708090;" x="194.588246" xlink:href="#m52c9f70f2a" y="100.737398"/>
     <use style="fill:#708090;stroke:#708090;" x="197.43386" xlink:href="#m52c9f70f2a" y="102.01668"/>
     <use style="fill:#708090;stroke:#708090;" x="200.279474" xlink:href="#m52c9f70f2a" y="103.246202"/>
    </g>
   </g>
   <g id="patch_3">
    <path d="M 55.58 108.28 
L 55.58 10.8 
" style="fill:none;stroke:#000000;stroke-linecap:square;stroke-linejoin:miter;stroke-width:0.8;"/>
   </g>
   <g id="patch_4">
    <path d="M 234 108.28 
L 234 10.8 
" style="fill:none;stroke:#000000;stroke-linecap:square;stroke-linejoin:miter;stroke-width:0.8;"/>
   </g>
   <g id="patch_5">
    <path d="M 55.58 108.28 
L 234 108.28 
" style="fill:none;stroke:#000000;stroke-linecap:square;stroke-linejoin:miter;stroke-width:0.8;"/>
   </g>
   <g id="patch_6">
    <path d="M 55.58 10.8 
L 234 10.8 
" style="fill:none;stroke:#000000;stroke-linecap:square;stroke-linejoin:miter;stroke-width:0.8;"/>
   </g>
   <g id="legend_1">
    <g id="patch_7">
     <path d="M 140.8 57.854687 
L 227 57.854687 
Q 229 57.854687 229 55.854687 
L 229 17.8 
Q 229 15.8 227 15.8 
L 140.8 15.8 
Q 138.8 15.8 138.8 17.8 
L 138.8 55.854687 
Q 138.8 57.854687 140.8 57.854687 
z
" style="fill:#ffffff;stroke:#cccccc;stroke-linejoin:miter;"/>
    </g>
    <g id="line2d_16">
     <path d="M 142.8 23.898437 
L 162.8 23.898437 
" style="fill:none;stroke:#0000ff;stroke-dasharray:1,1.65;stroke-dashoffset:0;"/>
    </g>
    <g id="line2d_17">
     <g>
      <use style="fill:#0000ff;stroke:#0000ff;stroke-linejoin:miter;" x="152.8" xlink:href="#mbd60cfc250" y="23.898437"/>
     </g>
    </g>
    <g id="text_9">
     <!-- Initial data -->
     <defs>
      <path d="M 9.8125 72.90625 
L 19.671875 72.90625 
L 19.671875 0 
L 9.8125 0 
z
" id="DejaVuSans-73"/>
      <path d="M 9.421875 75.984375 
L 18.40625 75.984375 
L 18.40625 0 
L 9.421875 0 
z
" id="DejaVuSans-108"/>
      <path id="DejaVuSans-32"/>
      <path d="M 45.40625 46.390625 
L 45.40625 75.984375 
L 54.390625 75.984375 
L 54.390625 0 
L 45.40625 0 
L 45.40625 8.203125 
Q 42.578125 3.328125 38.25 0.953125 
Q 33.9375 -1.421875 27.875 -1.421875 
Q 17.96875 -1.421875 11.734375 6.484375 
Q 5.515625 14.40625 5.515625 27.296875 
Q 5.515625 40.1875 11.734375 48.09375 
Q 17.96875 56 27.875 56 
Q 33.9375 56 38.25 53.625 
Q 42.578125 51.265625 45.40625 46.390625 
z
M 14.796875 27.296875 
Q 14.796875 17.390625 18.875 11.75 
Q 22.953125 6.109375 30.078125 6.109375 
Q 37.203125 6.109375 41.296875 11.75 
Q 45.40625 17.390625 45.40625 27.296875 
Q 45.40625 37.203125 41.296875 42.84375 
Q 37.203125 48.484375 30.078125 48.484375 
Q 22.953125 48.484375 18.875 42.84375 
Q 14.796875 37.203125 14.796875 27.296875 
z
" id="DejaVuSans-100"/>
     </defs>
     <g transform="translate(170.8 27.398437)scale(0.1 -0.1)">
      <use xlink:href="#DejaVuSans-73"/>
      <use x="29.492188" xlink:href="#DejaVuSans-110"/>
      <use x="92.871094" xlink:href="#DejaVuSans-105"/>
      <use x="120.654297" xlink:href="#DejaVuSans-116"/>
      <use x="159.863281" xlink:href="#DejaVuSans-105"/>
      <use x="187.646484" xlink:href="#DejaVuSans-97"/>
      <use x="248.925781" xlink:href="#DejaVuSans-108"/>
      <use x="276.708984" xlink:href="#DejaVuSans-32"/>
      <use x="308.496094" xlink:href="#DejaVuSans-100"/>
      <use x="371.972656" xlink:href="#DejaVuSans-97"/>
      <use x="433.251953" xlink:href="#DejaVuSans-116"/>
      <use x="472.460938" xlink:href="#DejaVuSans-97"/>
     </g>
    </g>
    <g id="line2d_18">
     <path d="M 142.8 36.076562 
L 162.8 36.076562 
" style="fill:none;stroke:#ff8c00;stroke-dasharray:1,1.65;stroke-dashoffset:0;"/>
    </g>
    <g id="line2d_19">
     <g>
      <use style="fill:#ff8c00;stroke:#ff8c00;" x="152.8" xlink:href="#mc3c5a8aeb1" y="36.076562"/>
     </g>
    </g>
    <g id="text_10">
     <!-- $\mathrm{C2Opt}$ -->
     <defs>
      <path d="M 64.40625 67.28125 
L 64.40625 56.890625 
Q 59.421875 61.53125 53.78125 63.8125 
Q 48.140625 66.109375 41.796875 66.109375 
Q 29.296875 66.109375 22.65625 58.46875 
Q 16.015625 50.828125 16.015625 36.375 
Q 16.015625 21.96875 22.65625 14.328125 
Q 29.296875 6.6875 41.796875 6.6875 
Q 48.140625 6.6875 53.78125 8.984375 
Q 59.421875 11.28125 64.40625 15.921875 
L 64.40625 5.609375 
Q 59.234375 2.09375 53.4375 0.328125 
Q 47.65625 -1.421875 41.21875 -1.421875 
Q 24.65625 -1.421875 15.125 8.703125 
Q 5.609375 18.84375 5.609375 36.375 
Q 5.609375 53.953125 15.125 64.078125 
Q 24.65625 74.21875 41.21875 74.21875 
Q 47.75 74.21875 53.53125 72.484375 
Q 59.328125 70.75 64.40625 67.28125 
z
" id="DejaVuSans-67"/>
      <path d="M 39.40625 66.21875 
Q 28.65625 66.21875 22.328125 58.203125 
Q 16.015625 50.203125 16.015625 36.375 
Q 16.015625 22.609375 22.328125 14.59375 
Q 28.65625 6.59375 39.40625 6.59375 
Q 50.140625 6.59375 56.421875 14.59375 
Q 62.703125 22.609375 62.703125 36.375 
Q 62.703125 50.203125 56.421875 58.203125 
Q 50.140625 66.21875 39.40625 66.21875 
z
M 39.40625 74.21875 
Q 54.734375 74.21875 63.90625 63.9375 
Q 73.09375 53.65625 73.09375 36.375 
Q 73.09375 19.140625 63.90625 8.859375 
Q 54.734375 -1.421875 39.40625 -1.421875 
Q 24.03125 -1.421875 14.8125 8.828125 
Q 5.609375 19.09375 5.609375 36.375 
Q 5.609375 53.65625 14.8125 63.9375 
Q 24.03125 74.21875 39.40625 74.21875 
z
" id="DejaVuSans-79"/>
     </defs>
     <g transform="translate(170.8 39.576562)scale(0.1 -0.1)">
      <use transform="translate(0 0.78125)" xlink:href="#DejaVuSans-67"/>
      <use transform="translate(69.824219 0.78125)" xlink:href="#DejaVuSans-50"/>
      <use transform="translate(133.447266 0.78125)" xlink:href="#DejaVuSans-79"/>
      <use transform="translate(212.158203 0.78125)" xlink:href="#DejaVuSans-112"/>
      <use transform="translate(275.634766 0.78125)" xlink:href="#DejaVuSans-116"/>
     </g>
    </g>
    <g id="line2d_20">
     <path d="M 142.8 48.275 
L 162.8 48.275 
" style="fill:none;stroke:#708090;stroke-dasharray:1,1.65;stroke-dashoffset:0;"/>
    </g>
    <g id="line2d_21">
     <g>
      <use style="fill:#708090;stroke:#708090;" x="152.8" xlink:href="#m52c9f70f2a" y="48.275"/>
     </g>
    </g>
    <g id="text_11">
     <!-- $\mathrm{CGP-UCB}$ -->
     <defs>
      <path d="M 59.515625 10.40625 
L 59.515625 29.984375 
L 43.40625 29.984375 
L 43.40625 38.09375 
L 69.28125 38.09375 
L 69.28125 6.78125 
Q 63.578125 2.734375 56.6875 0.65625 
Q 49.8125 -1.421875 42 -1.421875 
Q 24.90625 -1.421875 15.25 8.5625 
Q 5.609375 18.5625 5.609375 36.375 
Q 5.609375 54.25 15.25 64.234375 
Q 24.90625 74.21875 42 74.21875 
Q 49.125 74.21875 55.546875 72.453125 
Q 61.96875 70.703125 67.390625 67.28125 
L 67.390625 56.78125 
Q 61.921875 61.421875 55.765625 63.765625 
Q 49.609375 66.109375 42.828125 66.109375 
Q 29.4375 66.109375 22.71875 58.640625 
Q 16.015625 51.171875 16.015625 36.375 
Q 16.015625 21.625 22.71875 14.15625 
Q 29.4375 6.6875 42.828125 6.6875 
Q 48.046875 6.6875 52.140625 7.59375 
Q 56.25 8.5 59.515625 10.40625 
z
" id="DejaVuSans-71"/>
      <path d="M 19.671875 64.796875 
L 19.671875 37.40625 
L 32.078125 37.40625 
Q 38.96875 37.40625 42.71875 40.96875 
Q 46.484375 44.53125 46.484375 51.125 
Q 46.484375 57.671875 42.71875 61.234375 
Q 38.96875 64.796875 32.078125 64.796875 
z
M 9.8125 72.90625 
L 32.078125 72.90625 
Q 44.34375 72.90625 50.609375 67.359375 
Q 56.890625 61.8125 56.890625 51.125 
Q 56.890625 40.328125 50.609375 34.8125 
Q 44.34375 29.296875 32.078125 29.296875 
L 19.671875 29.296875 
L 19.671875 0 
L 9.8125 0 
z
" id="DejaVuSans-80"/>
      <path d="M 10.59375 35.5 
L 73.1875 35.5 
L 73.1875 27.203125 
L 10.59375 27.203125 
z
" id="DejaVuSans-8722"/>
      <path d="M 8.6875 72.90625 
L 18.609375 72.90625 
L 18.609375 28.609375 
Q 18.609375 16.890625 22.84375 11.734375 
Q 27.09375 6.59375 36.625 6.59375 
Q 46.09375 6.59375 50.34375 11.734375 
Q 54.59375 16.890625 54.59375 28.609375 
L 54.59375 72.90625 
L 64.5 72.90625 
L 64.5 27.390625 
Q 64.5 13.140625 57.4375 5.859375 
Q 50.390625 -1.421875 36.625 -1.421875 
Q 22.796875 -1.421875 15.734375 5.859375 
Q 8.6875 13.140625 8.6875 27.390625 
z
" id="DejaVuSans-85"/>
      <path d="M 19.671875 34.8125 
L 19.671875 8.109375 
L 35.5 8.109375 
Q 43.453125 8.109375 47.28125 11.40625 
Q 51.125 14.703125 51.125 21.484375 
Q 51.125 28.328125 47.28125 31.5625 
Q 43.453125 34.8125 35.5 34.8125 
z
M 19.671875 64.796875 
L 19.671875 42.828125 
L 34.28125 42.828125 
Q 41.5 42.828125 45.03125 45.53125 
Q 48.578125 48.25 48.578125 53.8125 
Q 48.578125 59.328125 45.03125 62.0625 
Q 41.5 64.796875 34.28125 64.796875 
z
M 9.8125 72.90625 
L 35.015625 72.90625 
Q 46.296875 72.90625 52.390625 68.21875 
Q 58.5 63.53125 58.5 54.890625 
Q 58.5 48.1875 55.375 44.234375 
Q 52.25 40.28125 46.1875 39.3125 
Q 53.46875 37.75 57.5 32.78125 
Q 61.53125 27.828125 61.53125 20.40625 
Q 61.53125 10.640625 54.890625 5.3125 
Q 48.25 0 35.984375 0 
L 9.8125 0 
z
" id="DejaVuSans-66"/>
     </defs>
     <g transform="translate(170.8 51.775)scale(0.1 -0.1)">
      <use transform="translate(0 0.78125)" xlink:href="#DejaVuSans-67"/>
      <use transform="translate(69.824219 0.78125)" xlink:href="#DejaVuSans-71"/>
      <use transform="translate(147.314453 0.78125)" xlink:href="#DejaVuSans-80"/>
      <use transform="translate(227.099609 0.78125)" xlink:href="#DejaVuSans-8722"/>
      <use transform="translate(330.371094 0.78125)" xlink:href="#DejaVuSans-85"/>
      <use transform="translate(403.564453 0.78125)" xlink:href="#DejaVuSans-67"/>
      <use transform="translate(473.388672 0.78125)" xlink:href="#DejaVuSans-66"/>
     </g>
    </g>
   </g>
  </g>
 </g>
 <defs>
  <clipPath id="p9f13e1702c">
   <rect height="97.48" width="178.42" x="55.58" y="10.8"/>
  </clipPath>
 </defs>
</svg>
