<?xml version="1.0" encoding="utf-8" standalone="no"?>
<!DOCTYPE svg PUBLIC "-//W3C//DTD SVG 1.1//EN"
  "http://www.w3.org/Graphics/SVG/1.1/DTD/svg11.dtd">
<!-- Created with matplotlib (https://matplotlib.org/) -->
<svg height="90pt" version="1.1" viewBox="0 0 244.8 90" width="244.8pt" xmlns="http://www.w3.org/2000/svg" xmlns:xlink="http://www.w3.org/1999/xlink">
 <defs>
  <style type="text/css">
*{stroke-linecap:butt;stroke-linejoin:round;}
  </style>
 </defs>
 <g id="figure_1">
  <g id="patch_1">
   <path d="M 0 90 
L 244.8 90 
L 244.8 0 
L 0 0 
z
" style="fill:none;"/>
  </g>
  <g id="axes_1">
   <g id="patch_2">
    <path d="M 44.064 60.3 
L 151.776 60.3 
L 151.776 16.2 
L 44.064 16.2 
z
" style="fill:none;"/>
   </g>
   <g id="PathCollection_1">
    <defs>
     <path d="M -3 0 
L 3 0 
M 0 3 
L 0 -3 
" id="mc83116fa14" style="stroke:#708090;stroke-width:1.5;"/>
    </defs>
    <g clip-path="url(#p64ee890611)">
     <use style="fill:#708090;stroke:#708090;stroke-width:1.5;" x="44.064" xlink:href="#mc83116fa14" y="46.819492"/>
     <use style="fill:#708090;stroke:#708090;stroke-width:1.5;" x="46.512" xlink:href="#mc83116fa14" y="40.753388"/>
     <use style="fill:#708090;stroke:#708090;stroke-width:1.5;" x="48.96" xlink:href="#mc83116fa14" y="40.461128"/>
     <use style="fill:#708090;stroke:#708090;stroke-width:1.5;" x="51.408" xlink:href="#mc83116fa14" y="34.818491"/>
     <use style="fill:#708090;stroke:#708090;stroke-width:1.5;" x="53.856" xlink:href="#mc83116fa14" y="32.537384"/>
     <use style="fill:#708090;stroke:#708090;stroke-width:1.5;" x="56.304" xlink:href="#mc83116fa14" y="31.717991"/>
     <use style="fill:#708090;stroke:#708090;stroke-width:1.5;" x="58.752" xlink:href="#mc83116fa14" y="26.347563"/>
     <use style="fill:#708090;stroke:#708090;stroke-width:1.5;" x="61.2" xlink:href="#mc83116fa14" y="26.058115"/>
     <use style="fill:#708090;stroke:#708090;stroke-width:1.5;" x="63.648" xlink:href="#mc83116fa14" y="32.601708"/>
     <use style="fill:#708090;stroke:#708090;stroke-width:1.5;" x="66.096" xlink:href="#mc83116fa14" y="26.372961"/>
     <use style="fill:#708090;stroke:#708090;stroke-width:1.5;" x="68.544" xlink:href="#mc83116fa14" y="28.465012"/>
     <use style="fill:#708090;stroke:#708090;stroke-width:1.5;" x="70.992" xlink:href="#mc83116fa14" y="25.764656"/>
     <use style="fill:#708090;stroke:#708090;stroke-width:1.5;" x="73.44" xlink:href="#mc83116fa14" y="31.890476"/>
     <use style="fill:#708090;stroke:#708090;stroke-width:1.5;" x="75.888" xlink:href="#mc83116fa14" y="28.002573"/>
     <use style="fill:#708090;stroke:#708090;stroke-width:1.5;" x="78.336" xlink:href="#mc83116fa14" y="31.151241"/>
     <use style="fill:#708090;stroke:#708090;stroke-width:1.5;" x="80.784" xlink:href="#mc83116fa14" y="28.868474"/>
     <use style="fill:#708090;stroke:#708090;stroke-width:1.5;" x="83.232" xlink:href="#mc83116fa14" y="30.374647"/>
     <use style="fill:#708090;stroke:#708090;stroke-width:1.5;" x="85.68" xlink:href="#mc83116fa14" y="28.29186"/>
     <use style="fill:#708090;stroke:#708090;stroke-width:1.5;" x="88.128" xlink:href="#mc83116fa14" y="29.340317"/>
     <use style="fill:#708090;stroke:#708090;stroke-width:1.5;" x="90.576" xlink:href="#mc83116fa14" y="25.891922"/>
     <use style="fill:#708090;stroke:#708090;stroke-width:1.5;" x="93.024" xlink:href="#mc83116fa14" y="20.209091"/>
     <use style="fill:#708090;stroke:#708090;stroke-width:1.5;" x="95.472" xlink:href="#mc83116fa14" y="24.93699"/>
    </g>
   </g>
   <g id="PathCollection_2">
    <defs>
     <path d="M -3 3 
L 3 -3 
M -3 -3 
L 3 3 
" id="m2d30554a54" style="stroke:#ff8c00;stroke-width:1.5;"/>
    </defs>
    <g clip-path="url(#p64ee890611)">
     <use style="fill:#ff8c00;stroke:#ff8c00;stroke-width:1.5;" x="44.064" xlink:href="#m2d30554a54" y="56.242632"/>
     <use style="fill:#ff8c00;stroke:#ff8c00;stroke-width:1.5;" x="46.512" xlink:href="#m2d30554a54" y="59.11946"/>
     <use style="fill:#ff8c00;stroke:#ff8c00;stroke-width:1.5;" x="48.96" xlink:href="#m2d30554a54" y="59.012406"/>
     <use style="fill:#ff8c00;stroke:#ff8c00;stroke-width:1.5;" x="51.408" xlink:href="#m2d30554a54" y="58.921232"/>
     <use style="fill:#ff8c00;stroke:#ff8c00;stroke-width:1.5;" x="53.856" xlink:href="#m2d30554a54" y="58.808993"/>
     <use style="fill:#ff8c00;stroke:#ff8c00;stroke-width:1.5;" x="56.304" xlink:href="#m2d30554a54" y="58.702608"/>
     <use style="fill:#ff8c00;stroke:#ff8c00;stroke-width:1.5;" x="58.752" xlink:href="#m2d30554a54" y="58.566538"/>
     <use style="fill:#ff8c00;stroke:#ff8c00;stroke-width:1.5;" x="61.2" xlink:href="#m2d30554a54" y="58.47594"/>
     <use style="fill:#ff8c00;stroke:#ff8c00;stroke-width:1.5;" x="63.648" xlink:href="#m2d30554a54" y="58.362548"/>
     <use style="fill:#ff8c00;stroke:#ff8c00;stroke-width:1.5;" x="66.096" xlink:href="#m2d30554a54" y="58.244432"/>
     <use style="fill:#ff8c00;stroke:#ff8c00;stroke-width:1.5;" x="68.544" xlink:href="#m2d30554a54" y="58.123089"/>
     <use style="fill:#ff8c00;stroke:#ff8c00;stroke-width:1.5;" x="70.992" xlink:href="#m2d30554a54" y="58.019354"/>
     <use style="fill:#ff8c00;stroke:#ff8c00;stroke-width:1.5;" x="73.44" xlink:href="#m2d30554a54" y="57.889968"/>
     <use style="fill:#ff8c00;stroke:#ff8c00;stroke-width:1.5;" x="75.888" xlink:href="#m2d30554a54" y="57.772797"/>
     <use style="fill:#ff8c00;stroke:#ff8c00;stroke-width:1.5;" x="78.336" xlink:href="#m2d30554a54" y="57.683674"/>
     <use style="fill:#ff8c00;stroke:#ff8c00;stroke-width:1.5;" x="80.784" xlink:href="#m2d30554a54" y="57.565119"/>
     <use style="fill:#ff8c00;stroke:#ff8c00;stroke-width:1.5;" x="83.232" xlink:href="#m2d30554a54" y="57.425316"/>
     <use style="fill:#ff8c00;stroke:#ff8c00;stroke-width:1.5;" x="85.68" xlink:href="#m2d30554a54" y="57.290467"/>
     <use style="fill:#ff8c00;stroke:#ff8c00;stroke-width:1.5;" x="88.128" xlink:href="#m2d30554a54" y="57.18694"/>
     <use style="fill:#ff8c00;stroke:#ff8c00;stroke-width:1.5;" x="90.576" xlink:href="#m2d30554a54" y="57.056563"/>
     <use style="fill:#ff8c00;stroke:#ff8c00;stroke-width:1.5;" x="93.024" xlink:href="#m2d30554a54" y="56.914339"/>
     <use style="fill:#ff8c00;stroke:#ff8c00;stroke-width:1.5;" x="95.472" xlink:href="#m2d30554a54" y="56.64727"/>
     <use style="fill:#ff8c00;stroke:#ff8c00;stroke-width:1.5;" x="97.92" xlink:href="#m2d30554a54" y="56.649114"/>
     <use style="fill:#ff8c00;stroke:#ff8c00;stroke-width:1.5;" x="100.368" xlink:href="#m2d30554a54" y="56.531297"/>
     <use style="fill:#ff8c00;stroke:#ff8c00;stroke-width:1.5;" x="102.816" xlink:href="#m2d30554a54" y="56.411337"/>
     <use style="fill:#ff8c00;stroke:#ff8c00;stroke-width:1.5;" x="105.264" xlink:href="#m2d30554a54" y="56.292276"/>
     <use style="fill:#ff8c00;stroke:#ff8c00;stroke-width:1.5;" x="107.712" xlink:href="#m2d30554a54" y="55.85399"/>
     <use style="fill:#ff8c00;stroke:#ff8c00;stroke-width:1.5;" x="110.16" xlink:href="#m2d30554a54" y="55.733016"/>
     <use style="fill:#ff8c00;stroke:#ff8c00;stroke-width:1.5;" x="112.608" xlink:href="#m2d30554a54" y="55.573714"/>
     <use style="fill:#ff8c00;stroke:#ff8c00;stroke-width:1.5;" x="115.056" xlink:href="#m2d30554a54" y="55.450067"/>
     <use style="fill:#ff8c00;stroke:#ff8c00;stroke-width:1.5;" x="117.504" xlink:href="#m2d30554a54" y="55.290005"/>
     <use style="fill:#ff8c00;stroke:#ff8c00;stroke-width:1.5;" x="119.952" xlink:href="#m2d30554a54" y="55.162462"/>
     <use style="fill:#ff8c00;stroke:#ff8c00;stroke-width:1.5;" x="122.4" xlink:href="#m2d30554a54" y="54.874858"/>
     <use style="fill:#ff8c00;stroke:#ff8c00;stroke-width:1.5;" x="124.848" xlink:href="#m2d30554a54" y="54.850105"/>
     <use style="fill:#ff8c00;stroke:#ff8c00;stroke-width:1.5;" x="127.296" xlink:href="#m2d30554a54" y="54.73215"/>
     <use style="fill:#ff8c00;stroke:#ff8c00;stroke-width:1.5;" x="129.744" xlink:href="#m2d30554a54" y="54.589351"/>
     <use style="fill:#ff8c00;stroke:#ff8c00;stroke-width:1.5;" x="132.192" xlink:href="#m2d30554a54" y="54.461163"/>
     <use style="fill:#ff8c00;stroke:#ff8c00;stroke-width:1.5;" x="134.64" xlink:href="#m2d30554a54" y="54.190729"/>
     <use style="fill:#ff8c00;stroke:#ff8c00;stroke-width:1.5;" x="137.088" xlink:href="#m2d30554a54" y="54.023061"/>
     <use style="fill:#ff8c00;stroke:#ff8c00;stroke-width:1.5;" x="139.536" xlink:href="#m2d30554a54" y="53.846452"/>
     <use style="fill:#ff8c00;stroke:#ff8c00;stroke-width:1.5;" x="141.984" xlink:href="#m2d30554a54" y="53.705357"/>
     <use style="fill:#ff8c00;stroke:#ff8c00;stroke-width:1.5;" x="144.432" xlink:href="#m2d30554a54" y="53.69411"/>
     <use style="fill:#ff8c00;stroke:#ff8c00;stroke-width:1.5;" x="146.88" xlink:href="#m2d30554a54" y="53.469885"/>
    </g>
   </g>
   <g id="matplotlib.axis_1">
    <g id="xtick_1">
     <g id="line2d_1">
      <path clip-path="url(#p64ee890611)" d="M 44.064 60.3 
L 44.064 16.2 
" style="fill:none;stroke:#b0b0b0;stroke-linecap:square;stroke-width:0.8;"/>
     </g>
     <g id="line2d_2">
      <defs>
       <path d="M 0 0 
L 0 3.5 
" id="m994bed101b" style="stroke:#000000;stroke-width:0.8;"/>
      </defs>
      <g>
       <use style="stroke:#000000;stroke-width:0.8;" x="44.064" xlink:href="#m994bed101b" y="60.3"/>
      </g>
     </g>
     <g id="text_1">
      <!-- 10 -->
      <defs>
       <path d="M 14.203125 0 
L 14.203125 5.171875 
L 26.90625 5.171875 
L 26.90625 65.828125 
L 12.203125 56.296875 
L 12.203125 62.703125 
L 29.984375 74.21875 
L 36.71875 74.21875 
L 36.71875 5.171875 
L 49.421875 5.171875 
L 49.421875 0 
z
" id="DejaVuSerif-49"/>
       <path d="M 31.78125 3.421875 
Q 39.265625 3.421875 42.96875 11.625 
Q 46.6875 19.828125 46.6875 36.375 
Q 46.6875 52.984375 42.96875 61.1875 
Q 39.265625 69.390625 31.78125 69.390625 
Q 24.3125 69.390625 20.59375 61.1875 
Q 16.890625 52.984375 16.890625 36.375 
Q 16.890625 19.828125 20.59375 11.625 
Q 24.3125 3.421875 31.78125 3.421875 
z
M 31.78125 -1.421875 
Q 19.921875 -1.421875 13.25 8.53125 
Q 6.59375 18.5 6.59375 36.375 
Q 6.59375 54.296875 13.25 64.25 
Q 19.921875 74.21875 31.78125 74.21875 
Q 43.703125 74.21875 50.34375 64.25 
Q 56.984375 54.296875 56.984375 36.375 
Q 56.984375 18.5 50.34375 8.53125 
Q 43.703125 -1.421875 31.78125 -1.421875 
z
" id="DejaVuSerif-48"/>
      </defs>
      <g transform="translate(38.33775 74.138594)scale(0.09 -0.09)">
       <use xlink:href="#DejaVuSerif-49"/>
       <use x="63.623047" xlink:href="#DejaVuSerif-48"/>
      </g>
     </g>
    </g>
    <g id="xtick_2">
     <g id="line2d_3">
      <path clip-path="url(#p64ee890611)" d="M 68.544 60.3 
L 68.544 16.2 
" style="fill:none;stroke:#b0b0b0;stroke-linecap:square;stroke-width:0.8;"/>
     </g>
     <g id="line2d_4">
      <g>
       <use style="stroke:#000000;stroke-width:0.8;" x="68.544" xlink:href="#m994bed101b" y="60.3"/>
      </g>
     </g>
     <g id="text_2">
      <!-- 20 -->
      <defs>
       <path d="M 12.796875 55.515625 
L 7.328125 55.515625 
L 7.328125 68.5 
Q 12.546875 71.296875 17.84375 72.75 
Q 23.140625 74.21875 28.21875 74.21875 
Q 39.59375 74.21875 46.1875 68.703125 
Q 52.78125 63.1875 52.78125 53.71875 
Q 52.78125 43.015625 37.84375 28.125 
Q 36.671875 27 36.078125 26.421875 
L 17.671875 8.015625 
L 48.09375 8.015625 
L 48.09375 17 
L 53.8125 17 
L 53.8125 0 
L 6.78125 0 
L 6.78125 5.328125 
L 28.90625 27.390625 
Q 36.234375 34.71875 39.359375 40.84375 
Q 42.484375 46.96875 42.484375 53.71875 
Q 42.484375 61.078125 38.640625 65.234375 
Q 34.8125 69.390625 28.078125 69.390625 
Q 21.09375 69.390625 17.28125 65.921875 
Q 13.484375 62.453125 12.796875 55.515625 
z
" id="DejaVuSerif-50"/>
      </defs>
      <g transform="translate(62.81775 74.138594)scale(0.09 -0.09)">
       <use xlink:href="#DejaVuSerif-50"/>
       <use x="63.623047" xlink:href="#DejaVuSerif-48"/>
      </g>
     </g>
    </g>
    <g id="xtick_3">
     <g id="line2d_5">
      <path clip-path="url(#p64ee890611)" d="M 93.024 60.3 
L 93.024 16.2 
" style="fill:none;stroke:#b0b0b0;stroke-linecap:square;stroke-width:0.8;"/>
     </g>
     <g id="line2d_6">
      <g>
       <use style="stroke:#000000;stroke-width:0.8;" x="93.024" xlink:href="#m994bed101b" y="60.3"/>
      </g>
     </g>
     <g id="text_3">
      <!-- 30 -->
      <defs>
       <path d="M 9.71875 69.828125 
Q 15.4375 71.96875 20.671875 73.09375 
Q 25.921875 74.21875 30.515625 74.21875 
Q 41.21875 74.21875 47.21875 69.59375 
Q 53.21875 64.984375 53.21875 56.78125 
Q 53.21875 50.203125 49.0625 45.78125 
Q 44.921875 41.359375 37.3125 39.796875 
Q 46.296875 38.53125 51.25 33.28125 
Q 56.203125 28.03125 56.203125 19.671875 
Q 56.203125 9.46875 49.34375 4.015625 
Q 42.484375 -1.421875 29.59375 -1.421875 
Q 23.875 -1.421875 18.421875 -0.1875 
Q 12.984375 1.03125 7.625 3.515625 
L 7.625 17.671875 
L 13.09375 17.671875 
Q 13.578125 10.640625 17.828125 7.03125 
Q 22.078125 3.421875 29.78125 3.421875 
Q 37.25 3.421875 41.578125 7.734375 
Q 45.90625 12.0625 45.90625 19.578125 
Q 45.90625 28.171875 41.453125 32.59375 
Q 37.015625 37.015625 28.421875 37.015625 
L 23.78125 37.015625 
L 23.78125 42 
L 26.21875 42 
Q 34.765625 42 39.03125 45.53125 
Q 43.3125 49.078125 43.3125 56.203125 
Q 43.3125 62.59375 39.796875 65.984375 
Q 36.28125 69.390625 29.6875 69.390625 
Q 23.09375 69.390625 19.453125 66.265625 
Q 15.828125 63.140625 15.1875 56.984375 
L 9.71875 56.984375 
z
" id="DejaVuSerif-51"/>
      </defs>
      <g transform="translate(87.29775 74.138594)scale(0.09 -0.09)">
       <use xlink:href="#DejaVuSerif-51"/>
       <use x="63.623047" xlink:href="#DejaVuSerif-48"/>
      </g>
     </g>
    </g>
    <g id="xtick_4">
     <g id="line2d_7">
      <path clip-path="url(#p64ee890611)" d="M 117.504 60.3 
L 117.504 16.2 
" style="fill:none;stroke:#b0b0b0;stroke-linecap:square;stroke-width:0.8;"/>
     </g>
     <g id="line2d_8">
      <g>
       <use style="stroke:#000000;stroke-width:0.8;" x="117.504" xlink:href="#m994bed101b" y="60.3"/>
      </g>
     </g>
     <g id="text_4">
      <!-- 40 -->
      <defs>
       <path d="M 34.90625 24.703125 
L 34.90625 63.484375 
L 10.015625 24.703125 
z
M 56.390625 0 
L 23.1875 0 
L 23.1875 5.171875 
L 34.90625 5.171875 
L 34.90625 19.484375 
L 3.078125 19.484375 
L 3.078125 24.8125 
L 35.015625 74.21875 
L 44.671875 74.21875 
L 44.671875 24.703125 
L 58.59375 24.703125 
L 58.59375 19.484375 
L 44.671875 19.484375 
L 44.671875 5.171875 
L 56.390625 5.171875 
z
" id="DejaVuSerif-52"/>
      </defs>
      <g transform="translate(111.77775 74.138594)scale(0.09 -0.09)">
       <use xlink:href="#DejaVuSerif-52"/>
       <use x="63.623047" xlink:href="#DejaVuSerif-48"/>
      </g>
     </g>
    </g>
    <g id="xtick_5">
     <g id="line2d_9">
      <path clip-path="url(#p64ee890611)" d="M 141.984 60.3 
L 141.984 16.2 
" style="fill:none;stroke:#b0b0b0;stroke-linecap:square;stroke-width:0.8;"/>
     </g>
     <g id="line2d_10">
      <g>
       <use style="stroke:#000000;stroke-width:0.8;" x="141.984" xlink:href="#m994bed101b" y="60.3"/>
      </g>
     </g>
     <g id="text_5">
      <!-- 50 -->
      <defs>
       <path d="M 50.296875 72.90625 
L 50.296875 64.890625 
L 16.890625 64.890625 
L 16.890625 44 
Q 19.4375 45.75 22.828125 46.625 
Q 26.21875 47.515625 30.421875 47.515625 
Q 42.234375 47.515625 49.0625 40.96875 
Q 55.90625 34.421875 55.90625 23.09375 
Q 55.90625 11.53125 49 5.046875 
Q 42.09375 -1.421875 29.59375 -1.421875 
Q 24.5625 -1.421875 19.28125 -0.1875 
Q 14.015625 1.03125 8.5 3.515625 
L 8.5 17.671875 
L 14.015625 17.671875 
Q 14.453125 10.75 18.421875 7.078125 
Q 22.40625 3.421875 29.59375 3.421875 
Q 37.3125 3.421875 41.453125 8.5 
Q 45.609375 13.578125 45.609375 23.09375 
Q 45.609375 32.5625 41.484375 37.609375 
Q 37.359375 42.671875 29.59375 42.671875 
Q 25.203125 42.671875 21.84375 41.109375 
Q 18.5 39.546875 15.921875 36.28125 
L 11.71875 36.28125 
L 11.71875 72.90625 
z
" id="DejaVuSerif-53"/>
      </defs>
      <g transform="translate(136.25775 74.138594)scale(0.09 -0.09)">
       <use xlink:href="#DejaVuSerif-53"/>
       <use x="63.623047" xlink:href="#DejaVuSerif-48"/>
      </g>
     </g>
    </g>
    <g id="text_6">
     <!-- $\mathrm{Time\ step} $ -->
     <defs>
      <path d="M 16.890625 0 
L 16.890625 3.515625 
Q 21.921875 3.515625 26.65625 4.078125 
Q 31.390625 4.640625 31.390625 6.6875 
L 31.390625 61.625 
Q 31.390625 63.765625 30.1875 64.28125 
Q 29 64.796875 26.3125 64.796875 
L 22.125 64.796875 
Q 13.875 64.796875 10.40625 61.1875 
Q 8.59375 59.375 7.8125 55.390625 
Q 7.03125 51.421875 6.5 45.40625 
L 3.609375 45.40625 
L 5.515625 68.3125 
L 66.609375 68.3125 
L 68.5 45.40625 
L 65.578125 45.40625 
Q 64.984375 51.859375 64.28125 55.640625 
Q 63.578125 59.421875 61.71875 61.1875 
Q 58.203125 64.796875 50 64.796875 
L 45.796875 64.796875 
Q 44 64.796875 43 64.640625 
Q 42 64.5 41.359375 63.796875 
Q 40.71875 63.09375 40.71875 61.625 
L 40.71875 6.6875 
Q 40.71875 4.640625 45.453125 4.078125 
Q 50.203125 3.515625 55.171875 3.515625 
L 55.171875 0 
z
" id="Cmr10-84"/>
      <path d="M 3.078125 0 
L 3.078125 3.515625 
Q 6.5 3.515625 8.6875 4.046875 
Q 10.890625 4.59375 10.890625 6.6875 
L 10.890625 33.984375 
Q 10.890625 37.84375 9.390625 38.71875 
Q 7.90625 39.59375 3.515625 39.59375 
L 3.515625 43.109375 
L 17.921875 44.1875 
L 17.921875 6.6875 
Q 17.921875 4.59375 19.828125 4.046875 
Q 21.734375 3.515625 24.90625 3.515625 
L 24.90625 0 
z
M 7.328125 61.375 
Q 7.328125 63.578125 8.984375 65.234375 
Q 10.640625 66.890625 12.796875 66.890625 
Q 14.203125 66.890625 15.515625 66.15625 
Q 16.84375 65.4375 17.578125 64.109375 
Q 18.3125 62.796875 18.3125 61.375 
Q 18.3125 59.234375 16.640625 57.5625 
Q 14.984375 55.90625 12.796875 55.90625 
Q 10.640625 55.90625 8.984375 57.5625 
Q 7.328125 59.234375 7.328125 61.375 
z
" id="Cmr10-105"/>
      <path d="M 2.984375 0 
L 2.984375 3.515625 
Q 6.390625 3.515625 8.59375 4.046875 
Q 10.796875 4.59375 10.796875 6.6875 
L 10.796875 33.984375 
Q 10.796875 36.671875 9.984375 37.859375 
Q 9.1875 39.0625 7.671875 39.328125 
Q 6.15625 39.59375 2.984375 39.59375 
L 2.984375 43.109375 
L 17.484375 44.1875 
L 17.484375 34.421875 
Q 19.484375 38.71875 23.40625 41.453125 
Q 27.34375 44.1875 31.984375 44.1875 
Q 43.5 44.1875 45.515625 34.8125 
Q 47.515625 39.015625 51.359375 41.59375 
Q 55.21875 44.1875 59.8125 44.1875 
Q 64.359375 44.1875 67.453125 42.71875 
Q 70.5625 41.265625 72.125 38.25 
Q 73.6875 35.25 73.6875 30.71875 
L 73.6875 6.6875 
Q 73.6875 4.59375 75.90625 4.046875 
Q 78.125 3.515625 81.5 3.515625 
L 81.5 0 
L 58.59375 0 
L 58.59375 3.515625 
Q 62.015625 3.515625 64.203125 4.046875 
Q 66.40625 4.59375 66.40625 6.6875 
L 66.40625 30.421875 
Q 66.40625 35.453125 64.984375 38.53125 
Q 63.578125 41.609375 59.1875 41.609375 
Q 53.421875 41.609375 49.65625 36.96875 
Q 45.90625 32.328125 45.90625 26.421875 
L 45.90625 6.6875 
Q 45.90625 4.59375 48.09375 4.046875 
Q 50.296875 3.515625 53.71875 3.515625 
L 53.71875 0 
L 30.8125 0 
L 30.8125 3.515625 
Q 34.234375 3.515625 36.421875 4.046875 
Q 38.625 4.59375 38.625 6.6875 
L 38.625 30.421875 
Q 38.625 35.296875 37.203125 38.453125 
Q 35.796875 41.609375 31.390625 41.609375 
Q 25.59375 41.609375 21.84375 36.96875 
Q 18.109375 32.328125 18.109375 26.421875 
L 18.109375 6.6875 
Q 18.109375 4.59375 20.3125 4.046875 
Q 22.515625 3.515625 25.875 3.515625 
L 25.875 0 
z
" id="Cmr10-109"/>
      <path d="M 24.90625 -1.125 
Q 18.796875 -1.125 13.6875 2.078125 
Q 8.59375 5.28125 5.6875 10.625 
Q 2.78125 15.96875 2.78125 21.921875 
Q 2.78125 27.78125 5.4375 33.046875 
Q 8.109375 38.328125 12.859375 41.578125 
Q 17.625 44.828125 23.484375 44.828125 
Q 28.078125 44.828125 31.46875 43.28125 
Q 34.859375 41.75 37.0625 39.015625 
Q 39.265625 36.28125 40.375 32.5625 
Q 41.5 28.859375 41.5 24.421875 
Q 41.5 23.09375 40.484375 23.09375 
L 11.53125 23.09375 
L 11.53125 22.015625 
Q 11.53125 13.71875 14.875 7.765625 
Q 18.21875 1.8125 25.78125 1.8125 
Q 28.859375 1.8125 31.46875 3.171875 
Q 34.078125 4.546875 36 6.984375 
Q 37.9375 9.421875 38.625 12.203125 
Q 38.71875 12.546875 38.984375 12.8125 
Q 39.265625 13.09375 39.59375 13.09375 
L 40.484375 13.09375 
Q 41.5 13.09375 41.5 11.8125 
Q 40.09375 6.15625 35.40625 2.515625 
Q 30.71875 -1.125 24.90625 -1.125 
z
M 11.625 25.59375 
L 34.421875 25.59375 
Q 34.421875 29.34375 33.375 33.203125 
Q 32.328125 37.0625 29.875 39.625 
Q 27.4375 42.1875 23.484375 42.1875 
Q 17.828125 42.1875 14.71875 36.890625 
Q 11.625 31.59375 11.625 25.59375 
z
" id="Cmr10-101"/>
      <path d="M 3.328125 -0.296875 
L 3.328125 16.015625 
Q 3.328125 16.796875 4.203125 16.796875 
L 5.421875 16.796875 
Q 6 16.796875 6.203125 16.015625 
Q 8.984375 1.515625 19.671875 1.515625 
Q 24.421875 1.515625 27.609375 3.65625 
Q 30.8125 5.8125 30.8125 10.296875 
Q 30.8125 13.53125 28.3125 15.796875 
Q 25.828125 18.0625 22.40625 18.890625 
L 15.71875 20.21875 
Q 12.359375 20.953125 9.59375 22.453125 
Q 6.84375 23.96875 5.078125 26.484375 
Q 3.328125 29 3.328125 32.328125 
Q 3.328125 36.71875 5.640625 39.515625 
Q 7.953125 42.328125 11.65625 43.578125 
Q 15.375 44.828125 19.671875 44.828125 
Q 24.8125 44.828125 28.609375 42.09375 
L 31.5 44.578125 
Q 31.5 44.828125 31.984375 44.828125 
L 32.71875 44.828125 
Q 33.015625 44.828125 33.25 44.546875 
Q 33.5 44.28125 33.5 44 
L 33.5 30.90625 
Q 33.5 29.984375 32.71875 29.984375 
L 31.5 29.984375 
Q 30.609375 29.984375 30.609375 30.90625 
Q 30.609375 36.140625 27.703125 39.3125 
Q 24.8125 42.484375 19.578125 42.484375 
Q 15.09375 42.484375 11.796875 40.8125 
Q 8.5 39.15625 8.5 35.109375 
Q 8.5 32.328125 10.859375 30.546875 
Q 13.234375 28.765625 16.40625 27.984375 
L 23.1875 26.703125 
Q 26.609375 25.921875 29.5625 24.0625 
Q 32.515625 22.21875 34.25 19.375 
Q 35.984375 16.546875 35.984375 12.984375 
Q 35.984375 9.375 34.734375 6.703125 
Q 33.5 4.046875 31.265625 2.28125 
Q 29.046875 0.53125 26.015625 -0.296875 
Q 23 -1.125 19.671875 -1.125 
Q 13.421875 -1.125 8.984375 3.078125 
L 5.328125 -0.875 
Q 5.328125 -1.125 4.78125 -1.125 
L 4.203125 -1.125 
Q 3.328125 -1.125 3.328125 -0.296875 
z
" id="Cmr10-115"/>
      <path d="M 10.203125 12.015625 
L 10.203125 39.59375 
L 1.90625 39.59375 
L 1.90625 42.1875 
Q 8.453125 42.1875 11.515625 48.28125 
Q 14.59375 54.390625 14.59375 61.53125 
L 17.484375 61.53125 
L 17.484375 43.109375 
L 31.59375 43.109375 
L 31.59375 39.59375 
L 17.484375 39.59375 
L 17.484375 12.203125 
Q 17.484375 8.0625 18.875 4.9375 
Q 20.265625 1.8125 23.875 1.8125 
Q 27.296875 1.8125 28.8125 5.109375 
Q 30.328125 8.40625 30.328125 12.203125 
L 30.328125 18.109375 
L 33.203125 18.109375 
L 33.203125 12.015625 
Q 33.203125 8.890625 32.046875 5.828125 
Q 30.90625 2.78125 28.65625 0.828125 
Q 26.421875 -1.125 23.1875 -1.125 
Q 17.1875 -1.125 13.6875 2.46875 
Q 10.203125 6.0625 10.203125 12.015625 
z
" id="Cmr10-116"/>
      <path d="M 2.59375 -19.390625 
L 2.59375 -15.921875 
Q 6 -15.921875 8.203125 -15.328125 
Q 10.40625 -14.75 10.40625 -12.703125 
L 10.40625 35.5 
Q 10.40625 38.234375 8.453125 38.90625 
Q 6.5 39.59375 2.59375 39.59375 
L 2.59375 43.109375 
L 17.390625 44.1875 
L 17.390625 37.984375 
Q 20.125 41.015625 23.75 42.59375 
Q 27.390625 44.1875 31.5 44.1875 
Q 37.40625 44.1875 42.140625 40.984375 
Q 46.875 37.796875 49.53125 32.59375 
Q 52.203125 27.390625 52.203125 21.578125 
Q 52.203125 15.53125 49.25 10.296875 
Q 46.296875 5.078125 41.1875 1.96875 
Q 36.078125 -1.125 29.984375 -1.125 
Q 22.703125 -1.125 17.671875 4.78125 
L 17.671875 -12.703125 
Q 17.671875 -14.75 19.890625 -15.328125 
Q 22.125 -15.921875 25.484375 -15.921875 
L 25.484375 -19.390625 
z
M 17.671875 9.71875 
Q 19.4375 6.15625 22.5625 3.828125 
Q 25.6875 1.515625 29.390625 1.515625 
Q 32.859375 1.515625 35.515625 3.359375 
Q 38.1875 5.21875 39.984375 8.34375 
Q 41.796875 11.46875 42.640625 14.90625 
Q 43.5 18.359375 43.5 21.578125 
Q 43.5 25.59375 42.0625 30.25 
Q 40.625 34.90625 37.671875 38.109375 
Q 34.71875 41.3125 30.515625 41.3125 
Q 26.46875 41.3125 23.0625 39.234375 
Q 19.671875 37.15625 17.671875 33.59375 
z
" id="Cmr10-112"/>
     </defs>
     <g transform="translate(76.22 87.60875)scale(0.1 -0.1)">
      <use transform="translate(0 0.6875)" xlink:href="#Cmr10-84"/>
      <use transform="translate(72.216797 0.6875)" xlink:href="#Cmr10-105"/>
      <use transform="translate(99.902344 0.6875)" xlink:href="#Cmr10-109"/>
      <use transform="translate(183.203125 0.6875)" xlink:href="#Cmr10-101"/>
      <use transform="translate(255.35454 0.6875)" xlink:href="#Cmr10-115"/>
      <use transform="translate(294.758837 0.6875)" xlink:href="#Cmr10-116"/>
      <use transform="translate(333.577196 0.6875)" xlink:href="#Cmr10-101"/>
      <use transform="translate(377.961962 0.6875)" xlink:href="#Cmr10-112"/>
     </g>
    </g>
   </g>
   <g id="matplotlib.axis_2">
    <g id="ytick_1">
     <g id="line2d_11">
      <path clip-path="url(#p64ee890611)" d="M 44.064 60.3 
L 151.776 60.3 
" style="fill:none;stroke:#b0b0b0;stroke-linecap:square;stroke-width:0.8;"/>
     </g>
     <g id="line2d_12">
      <defs>
       <path d="M 0 0 
L -3.5 0 
" id="mcb7a257f0a" style="stroke:#000000;stroke-width:0.8;"/>
      </defs>
      <g>
       <use style="stroke:#000000;stroke-width:0.8;" x="44.064" xlink:href="#mcb7a257f0a" y="60.3"/>
      </g>
     </g>
     <g id="text_7">
      <!-- 0.00 -->
      <defs>
       <path d="M 9.421875 5.078125 
Q 9.421875 7.8125 11.28125 9.71875 
Q 13.140625 11.625 15.921875 11.625 
Q 18.609375 11.625 20.5 9.71875 
Q 22.40625 7.8125 22.40625 5.078125 
Q 22.40625 2.390625 20.5 0.484375 
Q 18.609375 -1.421875 15.921875 -1.421875 
Q 13.140625 -1.421875 11.28125 0.453125 
Q 9.421875 2.34375 9.421875 5.078125 
z
" id="DejaVuSerif-46"/>
      </defs>
      <g transform="translate(17.024937 63.719297)scale(0.09 -0.09)">
       <use xlink:href="#DejaVuSerif-48"/>
       <use x="63.623047" xlink:href="#DejaVuSerif-46"/>
       <use x="95.410156" xlink:href="#DejaVuSerif-48"/>
       <use x="159.033203" xlink:href="#DejaVuSerif-48"/>
      </g>
     </g>
    </g>
    <g id="ytick_2">
     <g id="line2d_13">
      <path clip-path="url(#p64ee890611)" d="M 44.064 45.6 
L 151.776 45.6 
" style="fill:none;stroke:#b0b0b0;stroke-linecap:square;stroke-width:0.8;"/>
     </g>
     <g id="line2d_14">
      <g>
       <use style="stroke:#000000;stroke-width:0.8;" x="44.064" xlink:href="#mcb7a257f0a" y="45.6"/>
      </g>
     </g>
     <g id="text_8">
      <!-- 0.15 -->
      <g transform="translate(17.024937 49.019297)scale(0.09 -0.09)">
       <use xlink:href="#DejaVuSerif-48"/>
       <use x="63.623047" xlink:href="#DejaVuSerif-46"/>
       <use x="95.410156" xlink:href="#DejaVuSerif-49"/>
       <use x="159.033203" xlink:href="#DejaVuSerif-53"/>
      </g>
     </g>
    </g>
    <g id="ytick_3">
     <g id="line2d_15">
      <path clip-path="url(#p64ee890611)" d="M 44.064 30.9 
L 151.776 30.9 
" style="fill:none;stroke:#b0b0b0;stroke-linecap:square;stroke-width:0.8;"/>
     </g>
     <g id="line2d_16">
      <g>
       <use style="stroke:#000000;stroke-width:0.8;" x="44.064" xlink:href="#mcb7a257f0a" y="30.9"/>
      </g>
     </g>
     <g id="text_9">
      <!-- 0.30 -->
      <g transform="translate(17.024937 34.319297)scale(0.09 -0.09)">
       <use xlink:href="#DejaVuSerif-48"/>
       <use x="63.623047" xlink:href="#DejaVuSerif-46"/>
       <use x="95.410156" xlink:href="#DejaVuSerif-51"/>
       <use x="159.033203" xlink:href="#DejaVuSerif-48"/>
      </g>
     </g>
    </g>
    <g id="ytick_4">
     <g id="line2d_17">
      <path clip-path="url(#p64ee890611)" d="M 44.064 16.2 
L 151.776 16.2 
" style="fill:none;stroke:#b0b0b0;stroke-linecap:square;stroke-width:0.8;"/>
     </g>
     <g id="line2d_18">
      <g>
       <use style="stroke:#000000;stroke-width:0.8;" x="44.064" xlink:href="#mcb7a257f0a" y="16.2"/>
      </g>
     </g>
     <g id="text_10">
      <!-- 0.46 -->
      <defs>
       <path d="M 32.71875 3.421875 
Q 39.59375 3.421875 43.296875 8.46875 
Q 47.015625 13.53125 47.015625 23 
Q 47.015625 32.46875 43.296875 37.515625 
Q 39.59375 42.578125 32.71875 42.578125 
Q 25.734375 42.578125 22.0625 37.6875 
Q 18.40625 32.8125 18.40625 23.578125 
Q 18.40625 13.875 22.109375 8.640625 
Q 25.828125 3.421875 32.71875 3.421875 
z
M 16.796875 40.140625 
Q 20.125 43.796875 24.3125 45.59375 
Q 28.515625 47.40625 33.796875 47.40625 
Q 44.671875 47.40625 51 40.859375 
Q 57.328125 34.328125 57.328125 23 
Q 57.328125 11.921875 50.515625 5.25 
Q 43.703125 -1.421875 32.328125 -1.421875 
Q 19.96875 -1.421875 13.328125 7.78125 
Q 6.6875 17 6.6875 34.078125 
Q 6.6875 53.21875 14.546875 63.71875 
Q 22.40625 74.21875 36.71875 74.21875 
Q 40.578125 74.21875 44.828125 73.484375 
Q 49.078125 72.75 53.515625 71.296875 
L 53.515625 59.28125 
L 48 59.28125 
Q 47.40625 64.203125 44.234375 66.796875 
Q 41.0625 69.390625 35.6875 69.390625 
Q 26.21875 69.390625 21.578125 62.203125 
Q 16.9375 55.03125 16.796875 40.140625 
z
" id="DejaVuSerif-54"/>
      </defs>
      <g transform="translate(17.024937 19.619297)scale(0.09 -0.09)">
       <use xlink:href="#DejaVuSerif-48"/>
       <use x="63.623047" xlink:href="#DejaVuSerif-46"/>
       <use x="95.410156" xlink:href="#DejaVuSerif-52"/>
       <use x="159.033203" xlink:href="#DejaVuSerif-54"/>
      </g>
     </g>
    </g>
    <g id="text_11">
     <!-- $\mathrm{Compute\ time\ (s)}$ -->
     <defs>
      <path d="M 22.796875 10.6875 
Q 26.21875 6.34375 31.34375 3.828125 
Q 36.46875 1.3125 42 1.3125 
Q 46.625 1.3125 50.578125 3.140625 
Q 54.546875 4.984375 57.5 8.25 
Q 60.453125 11.53125 62.03125 15.671875 
Q 63.625 19.828125 63.625 24.421875 
Q 63.625 25.203125 64.5 25.203125 
L 65.71875 25.203125 
Q 66.5 25.203125 66.5 24.21875 
Q 66.5 19 64.5 14.140625 
Q 62.5 9.28125 58.828125 5.59375 
Q 55.171875 1.90625 50.40625 -0.140625 
Q 45.65625 -2.203125 40.484375 -2.203125 
Q 33.296875 -2.203125 26.875 0.703125 
Q 20.453125 3.609375 15.6875 8.65625 
Q 10.9375 13.71875 8.265625 20.359375 
Q 5.609375 27 5.609375 34.1875 
Q 5.609375 41.359375 8.265625 48 
Q 10.9375 54.640625 15.6875 59.71875 
Q 20.453125 64.796875 26.875 67.65625 
Q 33.296875 70.515625 40.484375 70.515625 
Q 45.609375 70.515625 50.296875 68.28125 
Q 54.984375 66.0625 58.5 62.015625 
L 64.3125 70.21875 
Q 64.890625 70.515625 64.984375 70.515625 
L 65.71875 70.515625 
Q 66.015625 70.515625 66.25 70.265625 
Q 66.5 70.015625 66.5 69.671875 
L 66.5 42.671875 
Q 66.5 41.796875 65.71875 41.796875 
L 63.921875 41.796875 
Q 62.984375 41.796875 62.984375 42.671875 
Q 62.984375 45.5625 61.828125 49.125 
Q 60.6875 52.6875 58.90625 55.875 
Q 57.125 59.078125 54.78125 61.53125 
Q 49.171875 67 41.890625 67 
Q 36.375 67 31.3125 64.5 
Q 26.265625 62.015625 22.796875 57.625 
Q 19.140625 52.9375 17.71875 46.953125 
Q 16.3125 40.96875 16.3125 34.1875 
Q 16.3125 27.390625 17.71875 21.375 
Q 19.140625 15.375 22.796875 10.6875 
z
" id="Cmr10-67"/>
      <path d="M 25 -1.125 
Q 19 -1.125 13.859375 1.921875 
Q 8.734375 4.984375 5.75 10.109375 
Q 2.78125 15.234375 2.78125 21.296875 
Q 2.78125 25.875 4.421875 30.125 
Q 6.0625 34.375 9.109375 37.71875 
Q 12.15625 41.0625 16.203125 42.9375 
Q 20.265625 44.828125 25 44.828125 
Q 31.15625 44.828125 36.203125 41.578125 
Q 41.265625 38.328125 44.1875 32.875 
Q 47.125 27.4375 47.125 21.296875 
Q 47.125 15.28125 44.140625 10.125 
Q 41.15625 4.984375 36.046875 1.921875 
Q 30.953125 -1.125 25 -1.125 
z
M 25 1.8125 
Q 33.015625 1.8125 35.6875 7.609375 
Q 38.375 13.421875 38.375 22.40625 
Q 38.375 27.4375 37.84375 30.734375 
Q 37.3125 34.03125 35.5 36.71875 
Q 34.375 38.375 32.640625 39.625 
Q 30.90625 40.875 28.96875 41.53125 
Q 27.046875 42.1875 25 42.1875 
Q 21.875 42.1875 19.0625 40.765625 
Q 16.265625 39.359375 14.40625 36.71875 
Q 12.546875 33.890625 12.03125 30.484375 
Q 11.53125 27.09375 11.53125 22.40625 
Q 11.53125 16.796875 12.5 12.328125 
Q 13.484375 7.859375 16.4375 4.828125 
Q 19.390625 1.8125 25 1.8125 
z
" id="Cmr10-111"/>
      <path d="M 10.796875 11.921875 
L 10.796875 33.984375 
Q 10.796875 36.671875 9.984375 37.859375 
Q 9.1875 39.0625 7.671875 39.328125 
Q 6.15625 39.59375 2.984375 39.59375 
L 2.984375 43.109375 
L 18.109375 44.1875 
L 18.109375 11.921875 
Q 18.109375 8.015625 18.671875 5.828125 
Q 19.234375 3.65625 21.0625 2.578125 
Q 22.90625 1.515625 26.90625 1.515625 
Q 32.28125 1.515625 35.453125 6 
Q 38.625 10.5 38.625 16.21875 
L 38.625 33.984375 
Q 38.625 36.671875 37.796875 37.859375 
Q 36.96875 39.0625 35.46875 39.328125 
Q 33.984375 39.59375 30.8125 39.59375 
L 30.8125 43.109375 
L 45.90625 44.1875 
L 45.90625 9.078125 
Q 45.90625 6.453125 46.703125 5.25 
Q 47.515625 4.046875 49.015625 3.78125 
Q 50.53125 3.515625 53.71875 3.515625 
L 53.71875 0 
L 38.921875 -1.125 
L 38.921875 7.328125 
Q 37.0625 3.5625 33.734375 1.21875 
Q 30.421875 -1.125 26.421875 -1.125 
Q 19.234375 -1.125 15.015625 1.921875 
Q 10.796875 4.984375 10.796875 11.921875 
z
" id="Cmr10-117"/>
      <path d="M 31 -24.8125 
Q 25.4375 -20.40625 21.40625 -14.71875 
Q 17.390625 -9.03125 14.8125 -2.578125 
Q 12.25 3.859375 10.984375 10.890625 
Q 9.71875 17.921875 9.71875 25 
Q 9.71875 32.171875 10.984375 39.203125 
Q 12.25 46.234375 14.859375 52.734375 
Q 17.484375 59.234375 21.53125 64.890625 
Q 25.59375 70.5625 31 74.8125 
Q 31 75 31.5 75 
L 32.421875 75 
Q 32.71875 75 32.953125 74.734375 
Q 33.203125 74.46875 33.203125 74.125 
Q 33.203125 73.6875 33.015625 73.484375 
Q 28.125 68.703125 24.875 63.234375 
Q 21.625 57.765625 19.640625 51.578125 
Q 17.671875 45.40625 16.796875 38.78125 
Q 15.921875 32.171875 15.921875 25 
Q 15.921875 -6.78125 32.90625 -23.296875 
Q 33.203125 -23.578125 33.203125 -24.125 
Q 33.203125 -24.359375 32.9375 -24.671875 
Q 32.671875 -25 32.421875 -25 
L 31.5 -25 
Q 31 -25 31 -24.8125 
z
" id="Cmr10-40"/>
      <path d="M 6.5 -25 
Q 5.609375 -25 5.609375 -24.125 
Q 5.609375 -23.6875 5.8125 -23.484375 
Q 22.90625 -6.78125 22.90625 25 
Q 22.90625 56.78125 6 73.296875 
Q 5.609375 73.53125 5.609375 74.125 
Q 5.609375 74.46875 5.875 74.734375 
Q 6.15625 75 6.5 75 
L 7.421875 75 
Q 7.71875 75 7.90625 74.8125 
Q 15.09375 69.140625 19.875 61.03125 
Q 24.65625 52.9375 26.875 43.75 
Q 29.109375 34.578125 29.109375 25 
Q 29.109375 17.921875 27.90625 11.0625 
Q 26.703125 4.203125 24.09375 -2.453125 
Q 21.484375 -9.125 17.484375 -14.765625 
Q 13.484375 -20.40625 7.90625 -24.8125 
Q 7.71875 -25 7.421875 -25 
z
" id="Cmr10-41"/>
     </defs>
     <g transform="translate(10.524937 76.6)rotate(-90)scale(0.1 -0.1)">
      <use xlink:href="#Cmr10-67"/>
      <use transform="translate(72.216797 0)" xlink:href="#Cmr10-111"/>
      <use transform="translate(122.216797 0)" xlink:href="#Cmr10-109"/>
      <use transform="translate(205.517578 0)" xlink:href="#Cmr10-112"/>
      <use transform="translate(261.035156 0)" xlink:href="#Cmr10-117"/>
      <use transform="translate(316.552734 0)" xlink:href="#Cmr10-116"/>
      <use transform="translate(355.371094 0)" xlink:href="#Cmr10-101"/>
      <use transform="translate(427.522509 0)" xlink:href="#Cmr10-116"/>
      <use transform="translate(466.340868 0)" xlink:href="#Cmr10-105"/>
      <use transform="translate(494.026415 0)" xlink:href="#Cmr10-109"/>
      <use transform="translate(577.327196 0)" xlink:href="#Cmr10-101"/>
      <use transform="translate(649.478611 0)" xlink:href="#Cmr10-40"/>
      <use transform="translate(688.296971 0)" xlink:href="#Cmr10-115"/>
      <use transform="translate(727.701268 0)" xlink:href="#Cmr10-41"/>
     </g>
    </g>
   </g>
   <g id="patch_3">
    <path d="M 44.064 60.3 
L 44.064 16.2 
" style="fill:none;stroke:#000000;stroke-linecap:square;stroke-linejoin:miter;stroke-width:0.8;"/>
   </g>
   <g id="patch_4">
    <path d="M 151.776 60.3 
L 151.776 16.2 
" style="fill:none;stroke:#000000;stroke-linecap:square;stroke-linejoin:miter;stroke-width:0.8;"/>
   </g>
   <g id="patch_5">
    <path d="M 44.064 60.3 
L 151.776 60.3 
" style="fill:none;stroke:#000000;stroke-linecap:square;stroke-linejoin:miter;stroke-width:0.8;"/>
   </g>
   <g id="patch_6">
    <path d="M 44.064 16.2 
L 151.776 16.2 
" style="fill:none;stroke:#000000;stroke-linecap:square;stroke-linejoin:miter;stroke-width:0.8;"/>
   </g>
   <g id="legend_1">
    <g id="patch_7">
     <path d="M 163.4616 62.654766 
L 240.5016 62.654766 
Q 242.3016 62.654766 242.3016 60.854766 
L 242.3016 15.645234 
Q 242.3016 13.845234 240.5016 13.845234 
L 163.4616 13.845234 
Q 161.6616 13.845234 161.6616 15.645234 
L 161.6616 60.854766 
Q 161.6616 62.654766 163.4616 62.654766 
z
" style="fill:#ffffff;stroke:#cccccc;stroke-linejoin:miter;"/>
    </g>
    <g id="PathCollection_3">
     <defs>
      <path d="M 0 -3 
L -3 3 
L 3 3 
z
" id="m4adeb48d53" style="stroke:#00bfff;"/>
     </defs>
     <g>
      <use style="fill:#00bfff;stroke:#00bfff;" x="174.2616" xlink:href="#m4adeb48d53" y="21.921328"/>
     </g>
    </g>
    <g id="text_12">
     <!-- $\mathrm{Opt.\ traj.}$ -->
     <defs>
      <path d="M 38.921875 -2.203125 
Q 29.390625 -2.203125 21.796875 2.84375 
Q 14.203125 7.90625 9.90625 16.28125 
Q 5.609375 24.65625 5.609375 33.890625 
Q 5.609375 40.71875 8.078125 47.40625 
Q 10.546875 54.109375 14.96875 59.28125 
Q 19.390625 64.453125 25.578125 67.484375 
Q 31.78125 70.515625 38.921875 70.515625 
Q 46 70.515625 52.21875 67.453125 
Q 58.453125 64.40625 62.890625 59.171875 
Q 67.328125 53.953125 69.71875 47.453125 
Q 72.125 40.96875 72.125 33.890625 
Q 72.125 24.65625 67.828125 16.28125 
Q 63.53125 7.90625 55.90625 2.84375 
Q 48.296875 -2.203125 38.921875 -2.203125 
z
M 22.3125 10.796875 
Q 25.25 6.203125 29.546875 3.484375 
Q 33.84375 0.78125 38.921875 0.78125 
Q 42.1875 0.78125 45.328125 2.09375 
Q 48.484375 3.421875 51.046875 5.71875 
Q 53.609375 8.015625 55.421875 10.796875 
Q 61.375 19.78125 61.375 35.5 
Q 61.375 49.90625 55.421875 58.296875 
Q 52.484375 62.5 48.109375 65.03125 
Q 43.75 67.578125 38.921875 67.578125 
Q 34.03125 67.578125 29.640625 65.03125 
Q 25.25 62.5 22.3125 58.296875 
Q 19.96875 55.03125 18.671875 51.34375 
Q 17.390625 47.65625 16.84375 43.703125 
Q 16.3125 39.75 16.3125 35.5 
Q 16.3125 30.953125 16.8125 26.625 
Q 17.328125 22.3125 18.71875 18.15625 
Q 20.125 14.015625 22.3125 10.796875 
z
" id="Cmr10-79"/>
      <path d="M 8.40625 5.515625 
Q 8.40625 7.765625 10.0625 9.375 
Q 11.71875 10.984375 13.921875 10.984375 
Q 15.28125 10.984375 16.59375 10.25 
Q 17.921875 9.515625 18.65625 8.203125 
Q 19.390625 6.890625 19.390625 5.515625 
Q 19.390625 3.328125 17.765625 1.65625 
Q 16.15625 0 13.921875 0 
Q 11.71875 0 10.0625 1.65625 
Q 8.40625 3.328125 8.40625 5.515625 
z
" id="Cmmi10-58"/>
      <path d="M 2.59375 0 
L 2.59375 3.515625 
Q 6 3.515625 8.203125 4.046875 
Q 10.40625 4.59375 10.40625 6.6875 
L 10.40625 33.984375 
Q 10.40625 36.671875 9.59375 37.859375 
Q 8.796875 39.0625 7.28125 39.328125 
Q 5.765625 39.59375 2.59375 39.59375 
L 2.59375 43.109375 
L 16.890625 44.1875 
L 16.890625 34.421875 
Q 18.5 38.765625 21.484375 41.46875 
Q 24.46875 44.1875 28.71875 44.1875 
Q 31.6875 44.1875 34.03125 42.421875 
Q 36.375 40.671875 36.375 37.796875 
Q 36.375 35.984375 35.078125 34.640625 
Q 33.796875 33.296875 31.890625 33.296875 
Q 30.03125 33.296875 28.703125 34.609375 
Q 27.390625 35.9375 27.390625 37.796875 
Q 27.390625 40.484375 29.296875 41.609375 
L 28.71875 41.609375 
Q 24.65625 41.609375 22.09375 38.671875 
Q 19.53125 35.75 18.453125 31.390625 
Q 17.390625 27.046875 17.390625 23.09375 
L 17.390625 6.6875 
Q 17.390625 3.515625 27.09375 3.515625 
L 27.09375 0 
z
" id="Cmr10-114"/>
      <path d="M 4 9.8125 
Q 4 15.765625 8.6875 19.5 
Q 13.375 23.25 19.9375 24.78125 
Q 26.515625 26.3125 32.421875 26.3125 
L 32.421875 30.421875 
Q 32.421875 33.296875 31.15625 36 
Q 29.890625 38.71875 27.484375 40.453125 
Q 25.09375 42.1875 22.21875 42.1875 
Q 15.578125 42.1875 12.109375 39.203125 
Q 14.015625 39.203125 15.25 37.765625 
Q 16.5 36.328125 16.5 34.421875 
Q 16.5 32.421875 15.078125 31 
Q 13.671875 29.59375 11.71875 29.59375 
Q 9.71875 29.59375 8.296875 31 
Q 6.890625 32.421875 6.890625 34.421875 
Q 6.890625 39.703125 11.671875 42.265625 
Q 16.453125 44.828125 22.21875 44.828125 
Q 26.265625 44.828125 30.359375 43.09375 
Q 34.46875 41.359375 37.078125 38.125 
Q 39.703125 34.90625 39.703125 30.609375 
L 39.703125 8.109375 
Q 39.703125 6.15625 40.53125 4.515625 
Q 41.359375 2.875 43.109375 2.875 
Q 44.78125 2.875 45.578125 4.53125 
Q 46.390625 6.203125 46.390625 8.109375 
L 46.390625 14.5 
L 49.3125 14.5 
L 49.3125 8.109375 
Q 49.3125 5.859375 48.140625 3.828125 
Q 46.96875 1.8125 44.984375 0.609375 
Q 43.015625 -0.59375 40.71875 -0.59375 
Q 37.796875 -0.59375 35.671875 1.671875 
Q 33.546875 3.953125 33.296875 7.078125 
Q 31.453125 3.328125 27.828125 1.09375 
Q 24.21875 -1.125 20.125 -1.125 
Q 16.3125 -1.125 12.625 0 
Q 8.9375 1.125 6.46875 3.53125 
Q 4 5.953125 4 9.8125 
z
M 12.109375 9.8125 
Q 12.109375 6.296875 14.6875 3.90625 
Q 17.28125 1.515625 20.796875 1.515625 
Q 24.03125 1.515625 26.65625 3.125 
Q 29.296875 4.734375 30.859375 7.515625 
Q 32.421875 10.296875 32.421875 13.375 
L 32.421875 23.78125 
Q 27.875 23.78125 23.109375 22.28125 
Q 18.359375 20.796875 15.234375 17.625 
Q 12.109375 14.453125 12.109375 9.8125 
z
" id="Cmr10-97"/>
      <path d="M 2 -16.796875 
Q 4.296875 -17.921875 7.171875 -17.921875 
Q 11.140625 -17.921875 12.671875 -13.890625 
Q 14.203125 -9.859375 14.203125 -5.171875 
L 14.203125 33.984375 
Q 14.203125 36.671875 13.21875 37.859375 
Q 12.25 39.0625 10.5625 39.328125 
Q 8.890625 39.59375 5.609375 39.59375 
L 5.609375 43.109375 
L 21.1875 44.1875 
L 21.1875 -5.609375 
Q 21.1875 -9.46875 19.28125 -12.90625 
Q 17.390625 -16.359375 14.109375 -18.4375 
Q 10.84375 -20.515625 6.984375 -20.515625 
Q 2.640625 -20.515625 -0.875 -18.359375 
Q -4.390625 -16.21875 -4.390625 -12.3125 
Q -4.390625 -10.359375 -2.96875 -8.9375 
Q -1.5625 -7.515625 0.390625 -7.515625 
Q 2.34375 -7.515625 3.75 -8.9375 
Q 5.171875 -10.359375 5.171875 -12.3125 
Q 5.171875 -13.8125 4.3125 -15.078125 
Q 3.46875 -16.359375 2 -16.796875 
z
M 10.203125 61.375 
Q 10.203125 63.578125 11.859375 65.234375 
Q 13.53125 66.890625 15.71875 66.890625 
Q 17.09375 66.890625 18.40625 66.15625 
Q 19.734375 65.4375 20.453125 64.109375 
Q 21.1875 62.796875 21.1875 61.375 
Q 21.1875 59.234375 19.578125 57.5625 
Q 17.96875 55.90625 15.71875 55.90625 
Q 13.53125 55.90625 11.859375 57.5625 
Q 10.203125 59.234375 10.203125 61.375 
z
" id="Cmr10-106"/>
     </defs>
     <g transform="translate(190.4616 24.283828)scale(0.09 -0.09)">
      <use transform="translate(0 0.484375)" xlink:href="#Cmr10-79"/>
      <use transform="translate(77.685547 0.484375)" xlink:href="#Cmr10-112"/>
      <use transform="translate(133.203125 0.484375)" xlink:href="#Cmr10-116"/>
      <use transform="translate(172.021484 0.484375)" xlink:href="#Cmmi10-58"/>
      <use transform="translate(244.133837 0.484375)" xlink:href="#Cmr10-116"/>
      <use transform="translate(282.952196 0.484375)" xlink:href="#Cmr10-114"/>
      <use transform="translate(322.063524 0.484375)" xlink:href="#Cmr10-97"/>
      <use transform="translate(372.063524 0.484375)" xlink:href="#Cmr10-106"/>
      <use transform="translate(402.581103 0.484375)" xlink:href="#Cmmi10-58"/>
     </g>
    </g>
    <g id="PathCollection_4">
     <g>
      <use style="fill:#708090;stroke:#708090;stroke-width:1.5;" x="174.2616" xlink:href="#mc83116fa14" y="32.899922"/>
     </g>
    </g>
    <g id="text_13">
     <!-- $\mathrm{CGP-LCB}$ -->
     <defs>
      <path d="M 23 10.6875 
Q 26.609375 6.296875 31.8125 3.796875 
Q 37.015625 1.3125 42.671875 1.3125 
Q 48.25 1.3125 52.78125 4.140625 
Q 57.328125 6.984375 57.328125 12.203125 
L 57.328125 20.609375 
Q 57.328125 23.78125 44.828125 23.78125 
L 44.828125 27.296875 
L 73.484375 27.296875 
L 73.484375 23.78125 
Q 70.3125 23.78125 68.453125 23.234375 
Q 66.609375 22.703125 66.609375 20.609375 
L 66.609375 0.875 
Q 66.609375 0.53125 66.328125 0.265625 
Q 66.0625 0 65.71875 0 
Q 64.796875 0 62.625 2.1875 
Q 60.453125 4.390625 59.1875 6.109375 
Q 56.734375 1.90625 51.515625 -0.140625 
Q 46.296875 -2.203125 40.578125 -2.203125 
Q 30.859375 -2.203125 22.875 2.796875 
Q 14.890625 7.8125 10.25 16.1875 
Q 5.609375 24.5625 5.609375 34.1875 
Q 5.609375 41.265625 8.296875 47.953125 
Q 10.984375 54.640625 15.796875 59.71875 
Q 20.609375 64.796875 27 67.65625 
Q 33.40625 70.515625 40.578125 70.515625 
Q 45.75 70.515625 50.359375 68.28125 
Q 54.984375 66.0625 58.59375 62.015625 
L 64.40625 70.21875 
Q 64.984375 70.515625 65.09375 70.515625 
L 65.828125 70.515625 
Q 66.109375 70.515625 66.359375 70.265625 
Q 66.609375 70.015625 66.609375 69.671875 
L 66.609375 42.671875 
Q 66.609375 41.796875 65.828125 41.796875 
L 64.015625 41.796875 
Q 63.09375 41.796875 63.09375 42.671875 
Q 63.09375 45.5625 61.9375 49.125 
Q 60.796875 52.6875 59.015625 55.875 
Q 57.234375 59.078125 54.890625 61.53125 
Q 49.265625 67 42 67 
Q 36.421875 67 31.34375 64.5 
Q 26.265625 62.015625 22.796875 57.625 
Q 19.140625 52.9375 17.71875 46.953125 
Q 16.3125 40.96875 16.3125 34.1875 
Q 16.3125 18.84375 23 10.6875 
z
" id="Cmr10-71"/>
      <path d="M 3.328125 0 
L 3.328125 3.515625 
Q 13.625 3.515625 13.625 6.6875 
L 13.625 61.625 
Q 13.625 64.796875 3.328125 64.796875 
L 3.328125 68.3125 
L 38.921875 68.3125 
Q 44.390625 68.3125 49.859375 66.0625 
Q 55.328125 63.8125 58.859375 59.515625 
Q 62.40625 55.21875 62.40625 49.515625 
Q 62.40625 43.953125 58.84375 39.75 
Q 55.28125 35.546875 49.859375 33.375 
Q 44.4375 31.203125 38.921875 31.203125 
L 22.90625 31.203125 
L 22.90625 6.6875 
Q 22.90625 3.515625 33.203125 3.515625 
L 33.203125 0 
z
M 22.609375 34.1875 
L 36.1875 34.1875 
Q 41.703125 34.1875 45.109375 35.765625 
Q 48.53125 37.359375 50.109375 40.703125 
Q 51.703125 44.046875 51.703125 49.515625 
Q 51.703125 57.671875 48.109375 61.234375 
Q 44.53125 64.796875 36.1875 64.796875 
L 27.6875 64.796875 
Q 25.875 64.796875 24.875 64.640625 
Q 23.875 64.5 23.234375 63.796875 
Q 22.609375 63.09375 22.609375 61.625 
z
" id="Cmr10-80"/>
      <path d="M 10.203125 23 
Q 9.375 23 8.828125 23.625 
Q 8.296875 24.265625 8.296875 25 
Q 8.296875 25.734375 8.828125 26.359375 
Q 9.375 27 10.203125 27 
L 67.578125 27 
Q 68.359375 27 68.875 26.359375 
Q 69.390625 25.734375 69.390625 25 
Q 69.390625 24.265625 68.875 23.625 
Q 68.359375 23 67.578125 23 
z
" id="Cmsy10-161"/>
      <path d="M 3.078125 0 
L 3.078125 3.515625 
Q 13.375 3.515625 13.375 6.6875 
L 13.375 61.625 
Q 13.375 64.796875 3.078125 64.796875 
L 3.078125 68.3125 
L 35.5 68.3125 
L 35.5 64.796875 
Q 22.703125 64.796875 22.703125 61.625 
L 22.703125 6.6875 
Q 22.703125 4.546875 23.921875 4.03125 
Q 25.140625 3.515625 27.78125 3.515625 
L 35.5 3.515625 
Q 42.96875 3.515625 47.015625 6.25 
Q 51.078125 8.984375 52.75 13.6875 
Q 54.4375 18.40625 55.328125 26.21875 
L 58.203125 26.21875 
L 55.421875 0 
z
" id="Cmr10-76"/>
      <path d="M 3.421875 0 
L 3.421875 3.515625 
Q 13.71875 3.515625 13.71875 6.6875 
L 13.71875 61.625 
Q 13.71875 64.796875 3.421875 64.796875 
L 3.421875 68.3125 
L 40.1875 68.3125 
Q 45.265625 68.3125 50.4375 66.328125 
Q 55.609375 64.359375 59 60.46875 
Q 62.40625 56.59375 62.40625 51.3125 
Q 62.40625 45.21875 57.390625 41.09375 
Q 52.390625 36.96875 45.703125 35.6875 
Q 50.046875 35.6875 54.640625 33.296875 
Q 59.234375 30.90625 62.15625 26.90625 
Q 65.09375 22.90625 65.09375 18.40625 
Q 65.09375 12.9375 61.84375 8.734375 
Q 58.59375 4.546875 53.421875 2.265625 
Q 48.25 0 43.015625 0 
z
M 22.40625 6.6875 
Q 22.40625 4.546875 23.625 4.03125 
Q 24.859375 3.515625 27.484375 3.515625 
L 40.1875 3.515625 
Q 44.09375 3.515625 47.4375 5.5625 
Q 50.78125 7.625 52.734375 11.0625 
Q 54.6875 14.5 54.6875 18.40625 
Q 54.6875 22.21875 53.078125 25.859375 
Q 51.46875 29.5 48.453125 31.84375 
Q 45.453125 34.1875 41.609375 34.1875 
L 22.40625 34.1875 
z
M 22.40625 36.8125 
L 37.40625 36.8125 
Q 40.4375 36.8125 43.09375 37.90625 
Q 45.75 39.015625 47.875 41.09375 
Q 50 43.171875 51.140625 45.78125 
Q 52.296875 48.390625 52.296875 51.3125 
Q 52.296875 53.90625 51.4375 56.296875 
Q 50.59375 58.6875 48.921875 60.640625 
Q 47.265625 62.59375 45.015625 63.6875 
Q 42.78125 64.796875 40.1875 64.796875 
L 27.484375 64.796875 
Q 25.6875 64.796875 24.6875 64.640625 
Q 23.6875 64.5 23.046875 63.796875 
Q 22.40625 63.09375 22.40625 61.625 
z
" id="Cmr10-66"/>
     </defs>
     <g transform="translate(190.4616 35.262422)scale(0.09 -0.09)">
      <use transform="translate(0 0.484375)" xlink:href="#Cmr10-67"/>
      <use transform="translate(72.216797 0.484375)" xlink:href="#Cmr10-71"/>
      <use transform="translate(150.634766 0.484375)" xlink:href="#Cmr10-80"/>
      <use transform="translate(235.3125 0.484375)" xlink:href="#Cmsy10-161"/>
      <use transform="translate(329.658203 0.484375)" xlink:href="#Cmr10-76"/>
      <use transform="translate(392.158203 0.484375)" xlink:href="#Cmr10-67"/>
      <use transform="translate(464.375 0.484375)" xlink:href="#Cmr10-66"/>
     </g>
    </g>
    <g id="PathCollection_5">
     <defs>
      <path d="M -0 3 
L 3 -3 
L -3 -3 
z
" id="m12bbc426bb" style="stroke:#ff00ff;"/>
     </defs>
     <g>
      <use style="fill:#ff00ff;stroke:#ff00ff;" x="174.2616" xlink:href="#m12bbc426bb" y="43.860234"/>
     </g>
    </g>
    <g id="text_14">
     <!-- $\mathrm{SINDYc}$ -->
     <defs>
      <path d="M 5.609375 -1.421875 
L 5.609375 21.921875 
Q 5.609375 22.703125 6.5 22.703125 
L 7.71875 22.703125 
Q 8.015625 22.703125 8.25 22.453125 
Q 8.5 22.21875 8.5 21.921875 
Q 8.5 12.109375 14.578125 6.703125 
Q 20.65625 1.3125 30.515625 1.3125 
Q 33.984375 1.3125 36.90625 3.3125 
Q 39.84375 5.328125 41.46875 8.5625 
Q 43.109375 11.8125 43.109375 15.28125 
Q 43.109375 18.3125 41.890625 21.171875 
Q 40.671875 24.03125 38.375 26.125 
Q 36.078125 28.21875 33.203125 28.90625 
L 20.21875 32.078125 
Q 13.765625 33.796875 9.6875 39.09375 
Q 5.609375 44.390625 5.609375 50.984375 
Q 5.609375 56.15625 8.25 60.6875 
Q 10.890625 65.234375 15.359375 67.875 
Q 19.828125 70.515625 25 70.515625 
Q 35.015625 70.515625 40.921875 63.71875 
L 45.015625 70.21875 
Q 45.3125 70.515625 45.703125 70.515625 
L 46.390625 70.515625 
Q 46.6875 70.515625 46.953125 70.28125 
Q 47.21875 70.0625 47.21875 69.671875 
L 47.21875 46.484375 
Q 47.21875 45.609375 46.390625 45.609375 
L 45.21875 45.609375 
Q 44.28125 45.609375 44.28125 46.484375 
Q 44.28125 49.03125 43.421875 52.046875 
Q 42.578125 55.078125 41.0625 57.859375 
Q 39.546875 60.640625 37.796875 62.40625 
Q 32.953125 67.28125 25 67.28125 
Q 21.578125 67.28125 18.703125 65.546875 
Q 15.828125 63.8125 14.109375 60.828125 
Q 12.40625 57.859375 12.40625 54.59375 
Q 12.40625 50.296875 15.0625 46.796875 
Q 17.71875 43.3125 22.015625 42.1875 
L 35.015625 39.015625 
Q 38.234375 38.234375 41.09375 36.203125 
Q 43.953125 34.1875 45.84375 31.5 
Q 47.75 28.8125 48.828125 25.515625 
Q 49.90625 22.21875 49.90625 18.703125 
Q 49.90625 13.28125 47.40625 8.46875 
Q 44.921875 3.65625 40.40625 0.71875 
Q 35.890625 -2.203125 30.515625 -2.203125 
Q 27.203125 -2.203125 23.734375 -1.46875 
Q 20.265625 -0.734375 17.328125 0.78125 
Q 14.40625 2.296875 12.015625 4.6875 
L 7.8125 -1.90625 
Q 7.515625 -2.203125 7.078125 -2.203125 
L 6.5 -2.203125 
Q 5.609375 -2.203125 5.609375 -1.421875 
z
" id="Cmr10-83"/>
      <path d="M 2.59375 0 
L 2.59375 3.515625 
Q 13.375 3.515625 13.375 6.6875 
L 13.375 61.625 
Q 13.375 64.796875 2.59375 64.796875 
L 2.59375 68.3125 
L 33.5 68.3125 
L 33.5 64.796875 
Q 22.703125 64.796875 22.703125 61.625 
L 22.703125 6.6875 
Q 22.703125 3.515625 33.5 3.515625 
L 33.5 0 
z
" id="Cmr10-73"/>
      <path d="M 3.078125 0 
L 3.078125 3.515625 
Q 13.375 3.515625 13.375 9.421875 
L 13.375 64.203125 
Q 10.109375 64.796875 3.078125 64.796875 
L 3.078125 68.3125 
L 22.21875 68.3125 
Q 22.703125 68.3125 22.90625 67.921875 
L 58.296875 15.828125 
L 58.296875 58.890625 
Q 58.296875 64.796875 48 64.796875 
L 48 68.3125 
L 71.78125 68.3125 
L 71.78125 64.796875 
Q 61.53125 64.796875 61.53125 58.890625 
L 61.53125 0.875 
Q 61.53125 0.59375 61.140625 0.296875 
Q 60.75 0 60.5 0 
L 59.28125 0 
Q 58.796875 0 58.59375 0.390625 
L 16.609375 62.203125 
L 16.609375 9.421875 
Q 16.609375 3.515625 26.90625 3.515625 
L 26.90625 0 
z
" id="Cmr10-78"/>
      <path d="M 3.328125 0 
L 3.328125 3.515625 
Q 13.625 3.515625 13.625 6.6875 
L 13.625 61.625 
Q 13.625 64.796875 3.328125 64.796875 
L 3.328125 68.3125 
L 40.1875 68.3125 
Q 47.015625 68.3125 52.671875 65.359375 
Q 58.34375 62.40625 62.34375 57.46875 
Q 66.359375 52.546875 68.53125 46.296875 
Q 70.703125 40.046875 70.703125 33.5 
Q 70.703125 27.15625 68.5 21.171875 
Q 66.3125 15.1875 62.1875 10.375 
Q 58.0625 5.5625 52.421875 2.78125 
Q 46.78125 0 40.1875 0 
z
M 22.609375 6.6875 
Q 22.609375 4.546875 23.828125 4.03125 
Q 25.046875 3.515625 27.6875 3.515625 
L 37.59375 3.515625 
Q 42.71875 3.515625 47.328125 5.734375 
Q 51.953125 7.953125 54.984375 11.921875 
Q 58.15625 16.109375 59.21875 21.3125 
Q 60.296875 26.515625 60.296875 33.5 
Q 60.296875 40.765625 59.21875 46.234375 
Q 58.15625 51.703125 54.984375 56 
Q 52 60.25 47.40625 62.515625 
Q 42.828125 64.796875 37.59375 64.796875 
L 27.6875 64.796875 
Q 25.875 64.796875 24.875 64.640625 
Q 23.875 64.5 23.234375 63.796875 
Q 22.609375 63.09375 22.609375 61.625 
z
" id="Cmr10-68"/>
      <path d="M 22.609375 0 
L 22.609375 3.515625 
Q 32.90625 3.515625 32.90625 6.6875 
L 32.90625 27.296875 
L 11.921875 61.8125 
Q 10.453125 63.8125 7.8125 64.296875 
Q 5.171875 64.796875 1.125 64.796875 
L 1.125 68.3125 
L 29.296875 68.3125 
L 29.296875 64.796875 
Q 22.3125 64.796875 22.3125 62.5 
Q 22.3125 62.3125 22.515625 61.71875 
L 40.578125 31.890625 
L 57.078125 58.984375 
Q 57.71875 59.90625 57.71875 60.984375 
Q 57.71875 62.984375 55.984375 63.890625 
Q 54.25 64.796875 52.09375 64.796875 
L 52.09375 68.3125 
L 73.78125 68.3125 
L 73.78125 64.796875 
Q 69.875 64.796875 66.53125 63.40625 
Q 63.1875 62.015625 61.28125 59.078125 
L 41.890625 27.296875 
L 41.890625 6.6875 
Q 41.890625 3.515625 52.203125 3.515625 
L 52.203125 0 
z
" id="Cmr10-89"/>
      <path d="M 24.90625 -1.125 
Q 18.84375 -1.125 13.90625 2.015625 
Q 8.984375 5.171875 6.15625 10.421875 
Q 3.328125 15.671875 3.328125 21.578125 
Q 3.328125 27.484375 6.125 32.90625 
Q 8.9375 38.328125 13.890625 41.578125 
Q 18.84375 44.828125 24.90625 44.828125 
Q 30.765625 44.828125 35.5625 42.53125 
Q 40.375 40.234375 40.375 35.015625 
Q 40.375 33.0625 38.984375 31.609375 
Q 37.59375 30.171875 35.59375 30.171875 
Q 33.59375 30.171875 32.203125 31.609375 
Q 30.8125 33.0625 30.8125 35.015625 
Q 30.8125 36.765625 31.9375 38.0625 
Q 33.0625 39.359375 34.71875 39.703125 
Q 31.25 41.890625 25 41.890625 
Q 20.21875 41.890625 17.28125 38.71875 
Q 14.359375 35.546875 13.1875 30.859375 
Q 12.015625 26.171875 12.015625 21.578125 
Q 12.015625 16.75 13.453125 12.234375 
Q 14.890625 7.71875 18.09375 4.765625 
Q 21.296875 1.8125 26.125 1.8125 
Q 30.859375 1.8125 34.171875 4.71875 
Q 37.5 7.625 38.71875 12.3125 
Q 38.71875 12.890625 39.5 12.890625 
L 40.71875 12.890625 
Q 41.015625 12.890625 41.25 12.625 
Q 41.5 12.359375 41.5 12.015625 
L 41.5 11.71875 
Q 39.984375 5.8125 35.484375 2.34375 
Q 31 -1.125 24.90625 -1.125 
z
" id="Cmr10-99"/>
     </defs>
     <g transform="translate(190.4616 46.222734)scale(0.09 -0.09)">
      <use transform="translate(0 0.484375)" xlink:href="#Cmr10-83"/>
      <use transform="translate(55.517578 0.484375)" xlink:href="#Cmr10-73"/>
      <use transform="translate(91.601562 0.484375)" xlink:href="#Cmr10-78"/>
      <use transform="translate(166.601562 0.484375)" xlink:href="#Cmr10-68"/>
      <use transform="translate(242.919922 0.484375)" xlink:href="#Cmr10-89"/>
      <use transform="translate(317.919922 0.484375)" xlink:href="#Cmr10-99"/>
     </g>
    </g>
    <g id="PathCollection_6">
     <g>
      <use style="fill:#ff8c00;stroke:#ff8c00;stroke-width:1.5;" x="174.2616" xlink:href="#m2d30554a54" y="54.820547"/>
     </g>
    </g>
    <g id="text_15">
     <!-- $\mathrm{C2Opt}$ -->
     <defs>
      <path d="M 4.984375 0 
L 4.984375 2.6875 
Q 4.984375 2.9375 5.171875 3.21875 
L 20.703125 20.40625 
Q 24.21875 24.21875 26.40625 26.796875 
Q 28.609375 29.390625 30.75 32.765625 
Q 32.90625 36.140625 34.15625 39.625 
Q 35.40625 43.109375 35.40625 47.015625 
Q 35.40625 51.125 33.890625 54.859375 
Q 32.375 58.59375 29.375 60.84375 
Q 26.375 63.09375 22.125 63.09375 
Q 17.78125 63.09375 14.3125 60.46875 
Q 10.84375 57.859375 9.421875 53.71875 
Q 9.8125 53.8125 10.5 53.8125 
Q 12.75 53.8125 14.328125 52.296875 
Q 15.921875 50.78125 15.921875 48.390625 
Q 15.921875 46.09375 14.328125 44.5 
Q 12.75 42.921875 10.5 42.921875 
Q 8.15625 42.921875 6.5625 44.546875 
Q 4.984375 46.1875 4.984375 48.390625 
Q 4.984375 52.15625 6.390625 55.4375 
Q 7.8125 58.734375 10.46875 61.296875 
Q 13.140625 63.875 16.484375 65.234375 
Q 19.828125 66.609375 23.578125 66.609375 
Q 29.296875 66.609375 34.21875 64.1875 
Q 39.15625 61.765625 42.03125 57.34375 
Q 44.921875 52.9375 44.921875 47.015625 
Q 44.921875 42.671875 43.015625 38.765625 
Q 41.109375 34.859375 38.125 31.65625 
Q 35.15625 28.46875 30.515625 24.40625 
Q 25.875 20.359375 24.421875 19 
L 13.09375 8.109375 
L 22.703125 8.109375 
Q 29.78125 8.109375 34.546875 8.21875 
Q 39.3125 8.34375 39.59375 8.59375 
Q 40.765625 9.859375 42 17.828125 
L 44.921875 17.828125 
L 42.09375 0 
z
" id="Cmr10-50"/>
     </defs>
     <g transform="translate(190.4616 57.183047)scale(0.09 -0.09)">
      <use transform="translate(0 0.484375)" xlink:href="#Cmr10-67"/>
      <use transform="translate(72.216797 0.484375)" xlink:href="#Cmr10-50"/>
      <use transform="translate(122.216797 0.484375)" xlink:href="#Cmr10-79"/>
      <use transform="translate(199.902344 0.484375)" xlink:href="#Cmr10-112"/>
      <use transform="translate(255.419922 0.484375)" xlink:href="#Cmr10-116"/>
     </g>
    </g>
   </g>
   <g id="PathCollection_7">
    <g clip-path="url(#p64ee890611)">
     <use style="fill:#00bfff;stroke:#00bfff;" x="44.064" xlink:href="#m4adeb48d53" y="60.198731"/>
     <use style="fill:#00bfff;stroke:#00bfff;" x="46.512" xlink:href="#m4adeb48d53" y="60.148189"/>
     <use style="fill:#00bfff;stroke:#00bfff;" x="48.96" xlink:href="#m4adeb48d53" y="60.145562"/>
     <use style="fill:#00bfff;stroke:#00bfff;" x="51.408" xlink:href="#m4adeb48d53" y="60.151116"/>
     <use style="fill:#00bfff;stroke:#00bfff;" x="53.856" xlink:href="#m4adeb48d53" y="60.231758"/>
    </g>
   </g>
   <g id="PathCollection_8">
    <g clip-path="url(#p64ee890611)">
     <use style="fill:#ff00ff;stroke:#ff00ff;" x="44.064" xlink:href="#m12bbc426bb" y="41.540261"/>
     <use style="fill:#ff00ff;stroke:#ff00ff;" x="46.512" xlink:href="#m12bbc426bb" y="43.673175"/>
     <use style="fill:#ff00ff;stroke:#ff00ff;" x="48.96" xlink:href="#m12bbc426bb" y="46.225292"/>
     <use style="fill:#ff00ff;stroke:#ff00ff;" x="51.408" xlink:href="#m12bbc426bb" y="43.755937"/>
     <use style="fill:#ff00ff;stroke:#ff00ff;" x="53.856" xlink:href="#m12bbc426bb" y="41.133526"/>
     <use style="fill:#ff00ff;stroke:#ff00ff;" x="56.304" xlink:href="#m12bbc426bb" y="45.595116"/>
     <use style="fill:#ff00ff;stroke:#ff00ff;" x="58.752" xlink:href="#m12bbc426bb" y="45.097484"/>
     <use style="fill:#ff00ff;stroke:#ff00ff;" x="61.2" xlink:href="#m12bbc426bb" y="44.667034"/>
     <use style="fill:#ff00ff;stroke:#ff00ff;" x="63.648" xlink:href="#m12bbc426bb" y="47.18359"/>
     <use style="fill:#ff00ff;stroke:#ff00ff;" x="66.096" xlink:href="#m12bbc426bb" y="44.058453"/>
     <use style="fill:#ff00ff;stroke:#ff00ff;" x="68.544" xlink:href="#m12bbc426bb" y="46.34758"/>
     <use style="fill:#ff00ff;stroke:#ff00ff;" x="70.992" xlink:href="#m12bbc426bb" y="46.154976"/>
     <use style="fill:#ff00ff;stroke:#ff00ff;" x="73.44" xlink:href="#m12bbc426bb" y="43.368931"/>
     <use style="fill:#ff00ff;stroke:#ff00ff;" x="75.888" xlink:href="#m12bbc426bb" y="45.281123"/>
     <use style="fill:#ff00ff;stroke:#ff00ff;" x="78.336" xlink:href="#m12bbc426bb" y="42.668645"/>
     <use style="fill:#ff00ff;stroke:#ff00ff;" x="80.784" xlink:href="#m12bbc426bb" y="39.394256"/>
     <use style="fill:#ff00ff;stroke:#ff00ff;" x="83.232" xlink:href="#m12bbc426bb" y="37.96384"/>
     <use style="fill:#ff00ff;stroke:#ff00ff;" x="85.68" xlink:href="#m12bbc426bb" y="33.81138"/>
     <use style="fill:#ff00ff;stroke:#ff00ff;" x="88.128" xlink:href="#m12bbc426bb" y="32.151691"/>
     <use style="fill:#ff00ff;stroke:#ff00ff;" x="90.576" xlink:href="#m12bbc426bb" y="32.55165"/>
     <use style="fill:#ff00ff;stroke:#ff00ff;" x="93.024" xlink:href="#m12bbc426bb" y="31.468737"/>
     <use style="fill:#ff00ff;stroke:#ff00ff;" x="95.472" xlink:href="#m12bbc426bb" y="28.408248"/>
    </g>
   </g>
  </g>
 </g>
 <defs>
  <clipPath id="p64ee890611">
   <rect height="44.1" width="107.712" x="44.064" y="16.2"/>
  </clipPath>
 </defs>
</svg>
