<?xml version="1.0" encoding="utf-8" standalone="no"?>
<!DOCTYPE svg PUBLIC "-//W3C//DTD SVG 1.1//EN"
  "http://www.w3.org/Graphics/SVG/1.1/DTD/svg11.dtd">
<!-- Created with matplotlib (https://matplotlib.org/) -->
<svg height="99pt" version="1.1" viewBox="0 0 244.8 99" width="244.8pt" xmlns="http://www.w3.org/2000/svg" xmlns:xlink="http://www.w3.org/1999/xlink">
 <defs>
  <style type="text/css">
*{stroke-linecap:butt;stroke-linejoin:round;}
  </style>
 </defs>
 <g id="figure_1">
  <g id="patch_1">
   <path d="M 0 99 
L 244.8 99 
L 244.8 0 
L 0 0 
z
" style="fill:none;"/>
  </g>
  <g id="axes_1">
   <g id="patch_2">
    <path d="M 44.064 69.3 
L 151.776 69.3 
L 151.776 9.9 
L 44.064 9.9 
z
" style="fill:none;"/>
   </g>
   <g id="matplotlib.axis_1">
    <g id="xtick_1">
     <g id="line2d_1">
      <path clip-path="url(#p0f35778383)" d="M 44.064 69.3 
L 44.064 9.9 
" style="fill:none;stroke:#b0b0b0;stroke-linecap:square;stroke-width:0.8;"/>
     </g>
     <g id="line2d_2">
      <defs>
       <path d="M 0 0 
L 0 3.5 
" id="m94dfe88f9c" style="stroke:#000000;stroke-width:0.8;"/>
      </defs>
      <g>
       <use style="stroke:#000000;stroke-width:0.8;" x="44.064" xlink:href="#m94dfe88f9c" y="69.3"/>
      </g>
     </g>
     <g id="text_1">
      <!-- 0 -->
      <defs>
       <path d="M 31.78125 3.421875 
Q 39.265625 3.421875 42.96875 11.625 
Q 46.6875 19.828125 46.6875 36.375 
Q 46.6875 52.984375 42.96875 61.1875 
Q 39.265625 69.390625 31.78125 69.390625 
Q 24.3125 69.390625 20.59375 61.1875 
Q 16.890625 52.984375 16.890625 36.375 
Q 16.890625 19.828125 20.59375 11.625 
Q 24.3125 3.421875 31.78125 3.421875 
z
M 31.78125 -1.421875 
Q 19.921875 -1.421875 13.25 8.53125 
Q 6.59375 18.5 6.59375 36.375 
Q 6.59375 54.296875 13.25 64.25 
Q 19.921875 74.21875 31.78125 74.21875 
Q 43.703125 74.21875 50.34375 64.25 
Q 56.984375 54.296875 56.984375 36.375 
Q 56.984375 18.5 50.34375 8.53125 
Q 43.703125 -1.421875 31.78125 -1.421875 
z
" id="DejaVuSerif-48"/>
      </defs>
      <g transform="translate(41.200875 83.138594)scale(0.09 -0.09)">
       <use xlink:href="#DejaVuSerif-48"/>
      </g>
     </g>
    </g>
    <g id="xtick_2">
     <g id="line2d_3">
      <path clip-path="url(#p0f35778383)" d="M 63.648 69.3 
L 63.648 9.9 
" style="fill:none;stroke:#b0b0b0;stroke-linecap:square;stroke-width:0.8;"/>
     </g>
     <g id="line2d_4">
      <g>
       <use style="stroke:#000000;stroke-width:0.8;" x="63.648" xlink:href="#m94dfe88f9c" y="69.3"/>
      </g>
     </g>
     <g id="text_2">
      <!-- 20 -->
      <defs>
       <path d="M 12.796875 55.515625 
L 7.328125 55.515625 
L 7.328125 68.5 
Q 12.546875 71.296875 17.84375 72.75 
Q 23.140625 74.21875 28.21875 74.21875 
Q 39.59375 74.21875 46.1875 68.703125 
Q 52.78125 63.1875 52.78125 53.71875 
Q 52.78125 43.015625 37.84375 28.125 
Q 36.671875 27 36.078125 26.421875 
L 17.671875 8.015625 
L 48.09375 8.015625 
L 48.09375 17 
L 53.8125 17 
L 53.8125 0 
L 6.78125 0 
L 6.78125 5.328125 
L 28.90625 27.390625 
Q 36.234375 34.71875 39.359375 40.84375 
Q 42.484375 46.96875 42.484375 53.71875 
Q 42.484375 61.078125 38.640625 65.234375 
Q 34.8125 69.390625 28.078125 69.390625 
Q 21.09375 69.390625 17.28125 65.921875 
Q 13.484375 62.453125 12.796875 55.515625 
z
" id="DejaVuSerif-50"/>
      </defs>
      <g transform="translate(57.92175 83.138594)scale(0.09 -0.09)">
       <use xlink:href="#DejaVuSerif-50"/>
       <use x="63.623047" xlink:href="#DejaVuSerif-48"/>
      </g>
     </g>
    </g>
    <g id="xtick_3">
     <g id="line2d_5">
      <path clip-path="url(#p0f35778383)" d="M 83.232 69.3 
L 83.232 9.9 
" style="fill:none;stroke:#b0b0b0;stroke-linecap:square;stroke-width:0.8;"/>
     </g>
     <g id="line2d_6">
      <g>
       <use style="stroke:#000000;stroke-width:0.8;" x="83.232" xlink:href="#m94dfe88f9c" y="69.3"/>
      </g>
     </g>
     <g id="text_3">
      <!-- 40 -->
      <defs>
       <path d="M 34.90625 24.703125 
L 34.90625 63.484375 
L 10.015625 24.703125 
z
M 56.390625 0 
L 23.1875 0 
L 23.1875 5.171875 
L 34.90625 5.171875 
L 34.90625 19.484375 
L 3.078125 19.484375 
L 3.078125 24.8125 
L 35.015625 74.21875 
L 44.671875 74.21875 
L 44.671875 24.703125 
L 58.59375 24.703125 
L 58.59375 19.484375 
L 44.671875 19.484375 
L 44.671875 5.171875 
L 56.390625 5.171875 
z
" id="DejaVuSerif-52"/>
      </defs>
      <g transform="translate(77.50575 83.138594)scale(0.09 -0.09)">
       <use xlink:href="#DejaVuSerif-52"/>
       <use x="63.623047" xlink:href="#DejaVuSerif-48"/>
      </g>
     </g>
    </g>
    <g id="xtick_4">
     <g id="line2d_7">
      <path clip-path="url(#p0f35778383)" d="M 102.816 69.3 
L 102.816 9.9 
" style="fill:none;stroke:#b0b0b0;stroke-linecap:square;stroke-width:0.8;"/>
     </g>
     <g id="line2d_8">
      <g>
       <use style="stroke:#000000;stroke-width:0.8;" x="102.816" xlink:href="#m94dfe88f9c" y="69.3"/>
      </g>
     </g>
     <g id="text_4">
      <!-- 60 -->
      <defs>
       <path d="M 32.71875 3.421875 
Q 39.59375 3.421875 43.296875 8.46875 
Q 47.015625 13.53125 47.015625 23 
Q 47.015625 32.46875 43.296875 37.515625 
Q 39.59375 42.578125 32.71875 42.578125 
Q 25.734375 42.578125 22.0625 37.6875 
Q 18.40625 32.8125 18.40625 23.578125 
Q 18.40625 13.875 22.109375 8.640625 
Q 25.828125 3.421875 32.71875 3.421875 
z
M 16.796875 40.140625 
Q 20.125 43.796875 24.3125 45.59375 
Q 28.515625 47.40625 33.796875 47.40625 
Q 44.671875 47.40625 51 40.859375 
Q 57.328125 34.328125 57.328125 23 
Q 57.328125 11.921875 50.515625 5.25 
Q 43.703125 -1.421875 32.328125 -1.421875 
Q 19.96875 -1.421875 13.328125 7.78125 
Q 6.6875 17 6.6875 34.078125 
Q 6.6875 53.21875 14.546875 63.71875 
Q 22.40625 74.21875 36.71875 74.21875 
Q 40.578125 74.21875 44.828125 73.484375 
Q 49.078125 72.75 53.515625 71.296875 
L 53.515625 59.28125 
L 48 59.28125 
Q 47.40625 64.203125 44.234375 66.796875 
Q 41.0625 69.390625 35.6875 69.390625 
Q 26.21875 69.390625 21.578125 62.203125 
Q 16.9375 55.03125 16.796875 40.140625 
z
" id="DejaVuSerif-54"/>
      </defs>
      <g transform="translate(97.08975 83.138594)scale(0.09 -0.09)">
       <use xlink:href="#DejaVuSerif-54"/>
       <use x="63.623047" xlink:href="#DejaVuSerif-48"/>
      </g>
     </g>
    </g>
    <g id="xtick_5">
     <g id="line2d_9">
      <path clip-path="url(#p0f35778383)" d="M 122.4 69.3 
L 122.4 9.9 
" style="fill:none;stroke:#b0b0b0;stroke-linecap:square;stroke-width:0.8;"/>
     </g>
     <g id="line2d_10">
      <g>
       <use style="stroke:#000000;stroke-width:0.8;" x="122.4" xlink:href="#m94dfe88f9c" y="69.3"/>
      </g>
     </g>
     <g id="text_5">
      <!-- 80 -->
      <defs>
       <path d="M 46.578125 19.921875 
Q 46.578125 27.734375 42.6875 32.046875 
Q 38.8125 36.375 31.78125 36.375 
Q 24.75 36.375 20.875 32.046875 
Q 17 27.734375 17 19.921875 
Q 17 12.0625 20.875 7.734375 
Q 24.75 3.421875 31.78125 3.421875 
Q 38.8125 3.421875 42.6875 7.734375 
Q 46.578125 12.0625 46.578125 19.921875 
z
M 44.578125 55.328125 
Q 44.578125 61.96875 41.203125 65.671875 
Q 37.84375 69.390625 31.78125 69.390625 
Q 25.78125 69.390625 22.390625 65.671875 
Q 19 61.96875 19 55.328125 
Q 19 48.640625 22.390625 44.921875 
Q 25.78125 41.21875 31.78125 41.21875 
Q 37.84375 41.21875 41.203125 44.921875 
Q 44.578125 48.640625 44.578125 55.328125 
z
M 39.3125 38.8125 
Q 47.609375 37.703125 52.25 32.6875 
Q 56.890625 27.6875 56.890625 19.921875 
Q 56.890625 9.671875 50.390625 4.125 
Q 43.890625 -1.421875 31.78125 -1.421875 
Q 19.734375 -1.421875 13.203125 4.125 
Q 6.6875 9.671875 6.6875 19.921875 
Q 6.6875 27.6875 11.328125 32.6875 
Q 15.96875 37.703125 24.3125 38.8125 
Q 16.9375 40.140625 13 44.40625 
Q 9.078125 48.6875 9.078125 55.328125 
Q 9.078125 64.109375 15.125 69.15625 
Q 21.1875 74.21875 31.78125 74.21875 
Q 42.390625 74.21875 48.4375 69.15625 
Q 54.5 64.109375 54.5 55.328125 
Q 54.5 48.6875 50.5625 44.40625 
Q 46.625 40.140625 39.3125 38.8125 
z
" id="DejaVuSerif-56"/>
      </defs>
      <g transform="translate(116.67375 83.138594)scale(0.09 -0.09)">
       <use xlink:href="#DejaVuSerif-56"/>
       <use x="63.623047" xlink:href="#DejaVuSerif-48"/>
      </g>
     </g>
    </g>
    <g id="xtick_6">
     <g id="line2d_11">
      <path clip-path="url(#p0f35778383)" d="M 141.984 69.3 
L 141.984 9.9 
" style="fill:none;stroke:#b0b0b0;stroke-linecap:square;stroke-width:0.8;"/>
     </g>
     <g id="line2d_12">
      <g>
       <use style="stroke:#000000;stroke-width:0.8;" x="141.984" xlink:href="#m94dfe88f9c" y="69.3"/>
      </g>
     </g>
     <g id="text_6">
      <!-- 100 -->
      <defs>
       <path d="M 14.203125 0 
L 14.203125 5.171875 
L 26.90625 5.171875 
L 26.90625 65.828125 
L 12.203125 56.296875 
L 12.203125 62.703125 
L 29.984375 74.21875 
L 36.71875 74.21875 
L 36.71875 5.171875 
L 49.421875 5.171875 
L 49.421875 0 
z
" id="DejaVuSerif-49"/>
      </defs>
      <g transform="translate(133.394625 83.138594)scale(0.09 -0.09)">
       <use xlink:href="#DejaVuSerif-49"/>
       <use x="63.623047" xlink:href="#DejaVuSerif-48"/>
       <use x="127.246094" xlink:href="#DejaVuSerif-48"/>
      </g>
     </g>
    </g>
    <g id="text_7">
     <!-- $\mathrm{Time\ step} $ -->
     <defs>
      <path d="M 16.890625 0 
L 16.890625 3.515625 
Q 21.921875 3.515625 26.65625 4.078125 
Q 31.390625 4.640625 31.390625 6.6875 
L 31.390625 61.625 
Q 31.390625 63.765625 30.1875 64.28125 
Q 29 64.796875 26.3125 64.796875 
L 22.125 64.796875 
Q 13.875 64.796875 10.40625 61.1875 
Q 8.59375 59.375 7.8125 55.390625 
Q 7.03125 51.421875 6.5 45.40625 
L 3.609375 45.40625 
L 5.515625 68.3125 
L 66.609375 68.3125 
L 68.5 45.40625 
L 65.578125 45.40625 
Q 64.984375 51.859375 64.28125 55.640625 
Q 63.578125 59.421875 61.71875 61.1875 
Q 58.203125 64.796875 50 64.796875 
L 45.796875 64.796875 
Q 44 64.796875 43 64.640625 
Q 42 64.5 41.359375 63.796875 
Q 40.71875 63.09375 40.71875 61.625 
L 40.71875 6.6875 
Q 40.71875 4.640625 45.453125 4.078125 
Q 50.203125 3.515625 55.171875 3.515625 
L 55.171875 0 
z
" id="Cmr10-84"/>
      <path d="M 3.078125 0 
L 3.078125 3.515625 
Q 6.5 3.515625 8.6875 4.046875 
Q 10.890625 4.59375 10.890625 6.6875 
L 10.890625 33.984375 
Q 10.890625 37.84375 9.390625 38.71875 
Q 7.90625 39.59375 3.515625 39.59375 
L 3.515625 43.109375 
L 17.921875 44.1875 
L 17.921875 6.6875 
Q 17.921875 4.59375 19.828125 4.046875 
Q 21.734375 3.515625 24.90625 3.515625 
L 24.90625 0 
z
M 7.328125 61.375 
Q 7.328125 63.578125 8.984375 65.234375 
Q 10.640625 66.890625 12.796875 66.890625 
Q 14.203125 66.890625 15.515625 66.15625 
Q 16.84375 65.4375 17.578125 64.109375 
Q 18.3125 62.796875 18.3125 61.375 
Q 18.3125 59.234375 16.640625 57.5625 
Q 14.984375 55.90625 12.796875 55.90625 
Q 10.640625 55.90625 8.984375 57.5625 
Q 7.328125 59.234375 7.328125 61.375 
z
" id="Cmr10-105"/>
      <path d="M 2.984375 0 
L 2.984375 3.515625 
Q 6.390625 3.515625 8.59375 4.046875 
Q 10.796875 4.59375 10.796875 6.6875 
L 10.796875 33.984375 
Q 10.796875 36.671875 9.984375 37.859375 
Q 9.1875 39.0625 7.671875 39.328125 
Q 6.15625 39.59375 2.984375 39.59375 
L 2.984375 43.109375 
L 17.484375 44.1875 
L 17.484375 34.421875 
Q 19.484375 38.71875 23.40625 41.453125 
Q 27.34375 44.1875 31.984375 44.1875 
Q 43.5 44.1875 45.515625 34.8125 
Q 47.515625 39.015625 51.359375 41.59375 
Q 55.21875 44.1875 59.8125 44.1875 
Q 64.359375 44.1875 67.453125 42.71875 
Q 70.5625 41.265625 72.125 38.25 
Q 73.6875 35.25 73.6875 30.71875 
L 73.6875 6.6875 
Q 73.6875 4.59375 75.90625 4.046875 
Q 78.125 3.515625 81.5 3.515625 
L 81.5 0 
L 58.59375 0 
L 58.59375 3.515625 
Q 62.015625 3.515625 64.203125 4.046875 
Q 66.40625 4.59375 66.40625 6.6875 
L 66.40625 30.421875 
Q 66.40625 35.453125 64.984375 38.53125 
Q 63.578125 41.609375 59.1875 41.609375 
Q 53.421875 41.609375 49.65625 36.96875 
Q 45.90625 32.328125 45.90625 26.421875 
L 45.90625 6.6875 
Q 45.90625 4.59375 48.09375 4.046875 
Q 50.296875 3.515625 53.71875 3.515625 
L 53.71875 0 
L 30.8125 0 
L 30.8125 3.515625 
Q 34.234375 3.515625 36.421875 4.046875 
Q 38.625 4.59375 38.625 6.6875 
L 38.625 30.421875 
Q 38.625 35.296875 37.203125 38.453125 
Q 35.796875 41.609375 31.390625 41.609375 
Q 25.59375 41.609375 21.84375 36.96875 
Q 18.109375 32.328125 18.109375 26.421875 
L 18.109375 6.6875 
Q 18.109375 4.59375 20.3125 4.046875 
Q 22.515625 3.515625 25.875 3.515625 
L 25.875 0 
z
" id="Cmr10-109"/>
      <path d="M 24.90625 -1.125 
Q 18.796875 -1.125 13.6875 2.078125 
Q 8.59375 5.28125 5.6875 10.625 
Q 2.78125 15.96875 2.78125 21.921875 
Q 2.78125 27.78125 5.4375 33.046875 
Q 8.109375 38.328125 12.859375 41.578125 
Q 17.625 44.828125 23.484375 44.828125 
Q 28.078125 44.828125 31.46875 43.28125 
Q 34.859375 41.75 37.0625 39.015625 
Q 39.265625 36.28125 40.375 32.5625 
Q 41.5 28.859375 41.5 24.421875 
Q 41.5 23.09375 40.484375 23.09375 
L 11.53125 23.09375 
L 11.53125 22.015625 
Q 11.53125 13.71875 14.875 7.765625 
Q 18.21875 1.8125 25.78125 1.8125 
Q 28.859375 1.8125 31.46875 3.171875 
Q 34.078125 4.546875 36 6.984375 
Q 37.9375 9.421875 38.625 12.203125 
Q 38.71875 12.546875 38.984375 12.8125 
Q 39.265625 13.09375 39.59375 13.09375 
L 40.484375 13.09375 
Q 41.5 13.09375 41.5 11.8125 
Q 40.09375 6.15625 35.40625 2.515625 
Q 30.71875 -1.125 24.90625 -1.125 
z
M 11.625 25.59375 
L 34.421875 25.59375 
Q 34.421875 29.34375 33.375 33.203125 
Q 32.328125 37.0625 29.875 39.625 
Q 27.4375 42.1875 23.484375 42.1875 
Q 17.828125 42.1875 14.71875 36.890625 
Q 11.625 31.59375 11.625 25.59375 
z
" id="Cmr10-101"/>
      <path d="M 3.328125 -0.296875 
L 3.328125 16.015625 
Q 3.328125 16.796875 4.203125 16.796875 
L 5.421875 16.796875 
Q 6 16.796875 6.203125 16.015625 
Q 8.984375 1.515625 19.671875 1.515625 
Q 24.421875 1.515625 27.609375 3.65625 
Q 30.8125 5.8125 30.8125 10.296875 
Q 30.8125 13.53125 28.3125 15.796875 
Q 25.828125 18.0625 22.40625 18.890625 
L 15.71875 20.21875 
Q 12.359375 20.953125 9.59375 22.453125 
Q 6.84375 23.96875 5.078125 26.484375 
Q 3.328125 29 3.328125 32.328125 
Q 3.328125 36.71875 5.640625 39.515625 
Q 7.953125 42.328125 11.65625 43.578125 
Q 15.375 44.828125 19.671875 44.828125 
Q 24.8125 44.828125 28.609375 42.09375 
L 31.5 44.578125 
Q 31.5 44.828125 31.984375 44.828125 
L 32.71875 44.828125 
Q 33.015625 44.828125 33.25 44.546875 
Q 33.5 44.28125 33.5 44 
L 33.5 30.90625 
Q 33.5 29.984375 32.71875 29.984375 
L 31.5 29.984375 
Q 30.609375 29.984375 30.609375 30.90625 
Q 30.609375 36.140625 27.703125 39.3125 
Q 24.8125 42.484375 19.578125 42.484375 
Q 15.09375 42.484375 11.796875 40.8125 
Q 8.5 39.15625 8.5 35.109375 
Q 8.5 32.328125 10.859375 30.546875 
Q 13.234375 28.765625 16.40625 27.984375 
L 23.1875 26.703125 
Q 26.609375 25.921875 29.5625 24.0625 
Q 32.515625 22.21875 34.25 19.375 
Q 35.984375 16.546875 35.984375 12.984375 
Q 35.984375 9.375 34.734375 6.703125 
Q 33.5 4.046875 31.265625 2.28125 
Q 29.046875 0.53125 26.015625 -0.296875 
Q 23 -1.125 19.671875 -1.125 
Q 13.421875 -1.125 8.984375 3.078125 
L 5.328125 -0.875 
Q 5.328125 -1.125 4.78125 -1.125 
L 4.203125 -1.125 
Q 3.328125 -1.125 3.328125 -0.296875 
z
" id="Cmr10-115"/>
      <path d="M 10.203125 12.015625 
L 10.203125 39.59375 
L 1.90625 39.59375 
L 1.90625 42.1875 
Q 8.453125 42.1875 11.515625 48.28125 
Q 14.59375 54.390625 14.59375 61.53125 
L 17.484375 61.53125 
L 17.484375 43.109375 
L 31.59375 43.109375 
L 31.59375 39.59375 
L 17.484375 39.59375 
L 17.484375 12.203125 
Q 17.484375 8.0625 18.875 4.9375 
Q 20.265625 1.8125 23.875 1.8125 
Q 27.296875 1.8125 28.8125 5.109375 
Q 30.328125 8.40625 30.328125 12.203125 
L 30.328125 18.109375 
L 33.203125 18.109375 
L 33.203125 12.015625 
Q 33.203125 8.890625 32.046875 5.828125 
Q 30.90625 2.78125 28.65625 0.828125 
Q 26.421875 -1.125 23.1875 -1.125 
Q 17.1875 -1.125 13.6875 2.46875 
Q 10.203125 6.0625 10.203125 12.015625 
z
" id="Cmr10-116"/>
      <path d="M 2.59375 -19.390625 
L 2.59375 -15.921875 
Q 6 -15.921875 8.203125 -15.328125 
Q 10.40625 -14.75 10.40625 -12.703125 
L 10.40625 35.5 
Q 10.40625 38.234375 8.453125 38.90625 
Q 6.5 39.59375 2.59375 39.59375 
L 2.59375 43.109375 
L 17.390625 44.1875 
L 17.390625 37.984375 
Q 20.125 41.015625 23.75 42.59375 
Q 27.390625 44.1875 31.5 44.1875 
Q 37.40625 44.1875 42.140625 40.984375 
Q 46.875 37.796875 49.53125 32.59375 
Q 52.203125 27.390625 52.203125 21.578125 
Q 52.203125 15.53125 49.25 10.296875 
Q 46.296875 5.078125 41.1875 1.96875 
Q 36.078125 -1.125 29.984375 -1.125 
Q 22.703125 -1.125 17.671875 4.78125 
L 17.671875 -12.703125 
Q 17.671875 -14.75 19.890625 -15.328125 
Q 22.125 -15.921875 25.484375 -15.921875 
L 25.484375 -19.390625 
z
M 17.671875 9.71875 
Q 19.4375 6.15625 22.5625 3.828125 
Q 25.6875 1.515625 29.390625 1.515625 
Q 32.859375 1.515625 35.515625 3.359375 
Q 38.1875 5.21875 39.984375 8.34375 
Q 41.796875 11.46875 42.640625 14.90625 
Q 43.5 18.359375 43.5 21.578125 
Q 43.5 25.59375 42.0625 30.25 
Q 40.625 34.90625 37.671875 38.109375 
Q 34.71875 41.3125 30.515625 41.3125 
Q 26.46875 41.3125 23.0625 39.234375 
Q 19.671875 37.15625 17.671875 33.59375 
z
" id="Cmr10-112"/>
     </defs>
     <g transform="translate(76.22 96.60875)scale(0.1 -0.1)">
      <use transform="translate(0 0.6875)" xlink:href="#Cmr10-84"/>
      <use transform="translate(72.216797 0.6875)" xlink:href="#Cmr10-105"/>
      <use transform="translate(99.902344 0.6875)" xlink:href="#Cmr10-109"/>
      <use transform="translate(183.203125 0.6875)" xlink:href="#Cmr10-101"/>
      <use transform="translate(255.35454 0.6875)" xlink:href="#Cmr10-115"/>
      <use transform="translate(294.758837 0.6875)" xlink:href="#Cmr10-116"/>
      <use transform="translate(333.577196 0.6875)" xlink:href="#Cmr10-101"/>
      <use transform="translate(377.961962 0.6875)" xlink:href="#Cmr10-112"/>
     </g>
    </g>
   </g>
   <g id="matplotlib.axis_2">
    <g id="ytick_1">
     <g id="line2d_13">
      <path clip-path="url(#p0f35778383)" d="M 44.064 69.3 
L 151.776 69.3 
" style="fill:none;stroke:#b0b0b0;stroke-linecap:square;stroke-width:0.8;"/>
     </g>
     <g id="line2d_14">
      <defs>
       <path d="M 0 0 
L -3.5 0 
" id="m0f0aaae6bd" style="stroke:#000000;stroke-width:0.8;"/>
      </defs>
      <g>
       <use style="stroke:#000000;stroke-width:0.8;" x="44.064" xlink:href="#m0f0aaae6bd" y="69.3"/>
      </g>
     </g>
     <g id="text_8">
      <!-- 0.0 -->
      <defs>
       <path d="M 9.421875 5.078125 
Q 9.421875 7.8125 11.28125 9.71875 
Q 13.140625 11.625 15.921875 11.625 
Q 18.609375 11.625 20.5 9.71875 
Q 22.40625 7.8125 22.40625 5.078125 
Q 22.40625 2.390625 20.5 0.484375 
Q 18.609375 -1.421875 15.921875 -1.421875 
Q 13.140625 -1.421875 11.28125 0.453125 
Q 9.421875 2.34375 9.421875 5.078125 
z
" id="DejaVuSerif-46"/>
      </defs>
      <g transform="translate(22.751187 72.719297)scale(0.09 -0.09)">
       <use xlink:href="#DejaVuSerif-48"/>
       <use x="63.623047" xlink:href="#DejaVuSerif-46"/>
       <use x="95.410156" xlink:href="#DejaVuSerif-48"/>
      </g>
     </g>
    </g>
    <g id="ytick_2">
     <g id="line2d_15">
      <path clip-path="url(#p0f35778383)" d="M 44.064 54.45 
L 151.776 54.45 
" style="fill:none;stroke:#b0b0b0;stroke-linecap:square;stroke-width:0.8;"/>
     </g>
     <g id="line2d_16">
      <g>
       <use style="stroke:#000000;stroke-width:0.8;" x="44.064" xlink:href="#m0f0aaae6bd" y="54.45"/>
      </g>
     </g>
     <g id="text_9">
      <!-- 6.3 -->
      <defs>
       <path d="M 9.71875 69.828125 
Q 15.4375 71.96875 20.671875 73.09375 
Q 25.921875 74.21875 30.515625 74.21875 
Q 41.21875 74.21875 47.21875 69.59375 
Q 53.21875 64.984375 53.21875 56.78125 
Q 53.21875 50.203125 49.0625 45.78125 
Q 44.921875 41.359375 37.3125 39.796875 
Q 46.296875 38.53125 51.25 33.28125 
Q 56.203125 28.03125 56.203125 19.671875 
Q 56.203125 9.46875 49.34375 4.015625 
Q 42.484375 -1.421875 29.59375 -1.421875 
Q 23.875 -1.421875 18.421875 -0.1875 
Q 12.984375 1.03125 7.625 3.515625 
L 7.625 17.671875 
L 13.09375 17.671875 
Q 13.578125 10.640625 17.828125 7.03125 
Q 22.078125 3.421875 29.78125 3.421875 
Q 37.25 3.421875 41.578125 7.734375 
Q 45.90625 12.0625 45.90625 19.578125 
Q 45.90625 28.171875 41.453125 32.59375 
Q 37.015625 37.015625 28.421875 37.015625 
L 23.78125 37.015625 
L 23.78125 42 
L 26.21875 42 
Q 34.765625 42 39.03125 45.53125 
Q 43.3125 49.078125 43.3125 56.203125 
Q 43.3125 62.59375 39.796875 65.984375 
Q 36.28125 69.390625 29.6875 69.390625 
Q 23.09375 69.390625 19.453125 66.265625 
Q 15.828125 63.140625 15.1875 56.984375 
L 9.71875 56.984375 
z
" id="DejaVuSerif-51"/>
      </defs>
      <g transform="translate(22.751187 57.869297)scale(0.09 -0.09)">
       <use xlink:href="#DejaVuSerif-54"/>
       <use x="63.623047" xlink:href="#DejaVuSerif-46"/>
       <use x="95.410156" xlink:href="#DejaVuSerif-51"/>
      </g>
     </g>
    </g>
    <g id="ytick_3">
     <g id="line2d_17">
      <path clip-path="url(#p0f35778383)" d="M 44.064 39.6 
L 151.776 39.6 
" style="fill:none;stroke:#b0b0b0;stroke-linecap:square;stroke-width:0.8;"/>
     </g>
     <g id="line2d_18">
      <g>
       <use style="stroke:#000000;stroke-width:0.8;" x="44.064" xlink:href="#m0f0aaae6bd" y="39.6"/>
      </g>
     </g>
     <g id="text_10">
      <!-- 12.6 -->
      <g transform="translate(17.024937 43.019297)scale(0.09 -0.09)">
       <use xlink:href="#DejaVuSerif-49"/>
       <use x="63.623047" xlink:href="#DejaVuSerif-50"/>
       <use x="127.246094" xlink:href="#DejaVuSerif-46"/>
       <use x="159.033203" xlink:href="#DejaVuSerif-54"/>
      </g>
     </g>
    </g>
    <g id="ytick_4">
     <g id="line2d_19">
      <path clip-path="url(#p0f35778383)" d="M 44.064 24.75 
L 151.776 24.75 
" style="fill:none;stroke:#b0b0b0;stroke-linecap:square;stroke-width:0.8;"/>
     </g>
     <g id="line2d_20">
      <g>
       <use style="stroke:#000000;stroke-width:0.8;" x="44.064" xlink:href="#m0f0aaae6bd" y="24.75"/>
      </g>
     </g>
     <g id="text_11">
      <!-- 18.9 -->
      <defs>
       <path d="M 46.78125 32.671875 
Q 43.5 29 39.25 27.1875 
Q 35.015625 25.390625 29.6875 25.390625 
Q 18.84375 25.390625 12.5625 31.9375 
Q 6.296875 38.484375 6.296875 49.8125 
Q 6.296875 60.890625 13.109375 67.546875 
Q 19.921875 74.21875 31.296875 74.21875 
Q 43.65625 74.21875 50.265625 65.015625 
Q 56.890625 55.8125 56.890625 38.71875 
Q 56.890625 19.578125 49.015625 9.078125 
Q 41.15625 -1.421875 26.90625 -1.421875 
Q 23.046875 -1.421875 18.796875 -0.6875 
Q 14.546875 0.046875 10.109375 1.515625 
L 10.109375 13.625 
L 15.578125 13.625 
Q 16.21875 8.6875 19.390625 6.046875 
Q 22.5625 3.421875 27.875 3.421875 
Q 37.359375 3.421875 41.984375 10.5625 
Q 46.625 17.71875 46.78125 32.671875 
z
M 30.90625 69.390625 
Q 23.96875 69.390625 20.28125 64.328125 
Q 16.609375 59.28125 16.609375 49.8125 
Q 16.609375 40.328125 20.28125 35.25 
Q 23.96875 30.171875 30.90625 30.171875 
Q 37.84375 30.171875 41.53125 35.078125 
Q 45.21875 39.984375 45.21875 49.21875 
Q 45.21875 58.9375 41.5 64.15625 
Q 37.796875 69.390625 30.90625 69.390625 
z
" id="DejaVuSerif-57"/>
      </defs>
      <g transform="translate(17.024937 28.169297)scale(0.09 -0.09)">
       <use xlink:href="#DejaVuSerif-49"/>
       <use x="63.623047" xlink:href="#DejaVuSerif-56"/>
       <use x="127.246094" xlink:href="#DejaVuSerif-46"/>
       <use x="159.033203" xlink:href="#DejaVuSerif-57"/>
      </g>
     </g>
    </g>
    <g id="ytick_5">
     <g id="line2d_21">
      <path clip-path="url(#p0f35778383)" d="M 44.064 9.9 
L 151.776 9.9 
" style="fill:none;stroke:#b0b0b0;stroke-linecap:square;stroke-width:0.8;"/>
     </g>
     <g id="line2d_22">
      <g>
       <use style="stroke:#000000;stroke-width:0.8;" x="44.064" xlink:href="#m0f0aaae6bd" y="9.9"/>
      </g>
     </g>
     <g id="text_12">
      <!-- 25.2 -->
      <defs>
       <path d="M 50.296875 72.90625 
L 50.296875 64.890625 
L 16.890625 64.890625 
L 16.890625 44 
Q 19.4375 45.75 22.828125 46.625 
Q 26.21875 47.515625 30.421875 47.515625 
Q 42.234375 47.515625 49.0625 40.96875 
Q 55.90625 34.421875 55.90625 23.09375 
Q 55.90625 11.53125 49 5.046875 
Q 42.09375 -1.421875 29.59375 -1.421875 
Q 24.5625 -1.421875 19.28125 -0.1875 
Q 14.015625 1.03125 8.5 3.515625 
L 8.5 17.671875 
L 14.015625 17.671875 
Q 14.453125 10.75 18.421875 7.078125 
Q 22.40625 3.421875 29.59375 3.421875 
Q 37.3125 3.421875 41.453125 8.5 
Q 45.609375 13.578125 45.609375 23.09375 
Q 45.609375 32.5625 41.484375 37.609375 
Q 37.359375 42.671875 29.59375 42.671875 
Q 25.203125 42.671875 21.84375 41.109375 
Q 18.5 39.546875 15.921875 36.28125 
L 11.71875 36.28125 
L 11.71875 72.90625 
z
" id="DejaVuSerif-53"/>
      </defs>
      <g transform="translate(17.024937 13.319297)scale(0.09 -0.09)">
       <use xlink:href="#DejaVuSerif-50"/>
       <use x="63.623047" xlink:href="#DejaVuSerif-53"/>
       <use x="127.246094" xlink:href="#DejaVuSerif-46"/>
       <use x="159.033203" xlink:href="#DejaVuSerif-50"/>
      </g>
     </g>
    </g>
    <g id="text_13">
     <!-- $\mathrm{Cost\ }C(x_t, u_t^\dagger)$ -->
     <defs>
      <path d="M 22.796875 10.6875 
Q 26.21875 6.34375 31.34375 3.828125 
Q 36.46875 1.3125 42 1.3125 
Q 46.625 1.3125 50.578125 3.140625 
Q 54.546875 4.984375 57.5 8.25 
Q 60.453125 11.53125 62.03125 15.671875 
Q 63.625 19.828125 63.625 24.421875 
Q 63.625 25.203125 64.5 25.203125 
L 65.71875 25.203125 
Q 66.5 25.203125 66.5 24.21875 
Q 66.5 19 64.5 14.140625 
Q 62.5 9.28125 58.828125 5.59375 
Q 55.171875 1.90625 50.40625 -0.140625 
Q 45.65625 -2.203125 40.484375 -2.203125 
Q 33.296875 -2.203125 26.875 0.703125 
Q 20.453125 3.609375 15.6875 8.65625 
Q 10.9375 13.71875 8.265625 20.359375 
Q 5.609375 27 5.609375 34.1875 
Q 5.609375 41.359375 8.265625 48 
Q 10.9375 54.640625 15.6875 59.71875 
Q 20.453125 64.796875 26.875 67.65625 
Q 33.296875 70.515625 40.484375 70.515625 
Q 45.609375 70.515625 50.296875 68.28125 
Q 54.984375 66.0625 58.5 62.015625 
L 64.3125 70.21875 
Q 64.890625 70.515625 64.984375 70.515625 
L 65.71875 70.515625 
Q 66.015625 70.515625 66.25 70.265625 
Q 66.5 70.015625 66.5 69.671875 
L 66.5 42.671875 
Q 66.5 41.796875 65.71875 41.796875 
L 63.921875 41.796875 
Q 62.984375 41.796875 62.984375 42.671875 
Q 62.984375 45.5625 61.828125 49.125 
Q 60.6875 52.6875 58.90625 55.875 
Q 57.125 59.078125 54.78125 61.53125 
Q 49.171875 67 41.890625 67 
Q 36.375 67 31.3125 64.5 
Q 26.265625 62.015625 22.796875 57.625 
Q 19.140625 52.9375 17.71875 46.953125 
Q 16.3125 40.96875 16.3125 34.1875 
Q 16.3125 27.390625 17.71875 21.375 
Q 19.140625 15.375 22.796875 10.6875 
z
" id="Cmr10-67"/>
      <path d="M 25 -1.125 
Q 19 -1.125 13.859375 1.921875 
Q 8.734375 4.984375 5.75 10.109375 
Q 2.78125 15.234375 2.78125 21.296875 
Q 2.78125 25.875 4.421875 30.125 
Q 6.0625 34.375 9.109375 37.71875 
Q 12.15625 41.0625 16.203125 42.9375 
Q 20.265625 44.828125 25 44.828125 
Q 31.15625 44.828125 36.203125 41.578125 
Q 41.265625 38.328125 44.1875 32.875 
Q 47.125 27.4375 47.125 21.296875 
Q 47.125 15.28125 44.140625 10.125 
Q 41.15625 4.984375 36.046875 1.921875 
Q 30.953125 -1.125 25 -1.125 
z
M 25 1.8125 
Q 33.015625 1.8125 35.6875 7.609375 
Q 38.375 13.421875 38.375 22.40625 
Q 38.375 27.4375 37.84375 30.734375 
Q 37.3125 34.03125 35.5 36.71875 
Q 34.375 38.375 32.640625 39.625 
Q 30.90625 40.875 28.96875 41.53125 
Q 27.046875 42.1875 25 42.1875 
Q 21.875 42.1875 19.0625 40.765625 
Q 16.265625 39.359375 14.40625 36.71875 
Q 12.546875 33.890625 12.03125 30.484375 
Q 11.53125 27.09375 11.53125 22.40625 
Q 11.53125 16.796875 12.5 12.328125 
Q 13.484375 7.859375 16.4375 4.828125 
Q 19.390625 1.8125 25 1.8125 
z
" id="Cmr10-111"/>
      <path d="M 14.59375 21.578125 
Q 14.59375 15.578125 16.90625 11.015625 
Q 19.234375 6.453125 23.65625 3.875 
Q 28.078125 1.3125 34.078125 1.3125 
Q 40.375 1.3125 46.203125 4.53125 
Q 52.046875 7.765625 56.171875 13.15625 
Q 60.296875 18.5625 61.8125 24.609375 
Q 62.015625 25.203125 62.59375 25.203125 
L 63.8125 25.203125 
Q 64.203125 25.203125 64.453125 24.921875 
Q 64.703125 24.65625 64.703125 24.3125 
Q 64.703125 24.21875 64.59375 24.03125 
Q 62.890625 17.09375 57.984375 11.015625 
Q 53.078125 4.9375 46.234375 1.359375 
Q 39.40625 -2.203125 32.171875 -2.203125 
Q 24.359375 -2.203125 18.15625 1.3125 
Q 11.96875 4.828125 8.515625 11.078125 
Q 5.078125 17.328125 5.078125 25.203125 
Q 5.078125 33.59375 8.828125 41.8125 
Q 12.59375 50.046875 18.9375 56.46875 
Q 25.296875 62.890625 33.421875 66.703125 
Q 41.546875 70.515625 49.90625 70.515625 
Q 53.21875 70.515625 56.25 69.5 
Q 59.28125 68.5 61.859375 66.453125 
Q 64.453125 64.40625 66.109375 61.71875 
L 74.03125 70.3125 
Q 74.03125 70.515625 74.515625 70.515625 
L 75.09375 70.515625 
Q 75.484375 70.515625 75.734375 70.171875 
Q 75.984375 69.828125 75.984375 69.484375 
L 69.1875 42.484375 
Q 69.1875 41.796875 68.40625 41.796875 
L 66.609375 41.796875 
Q 65.828125 41.796875 65.828125 42.921875 
Q 66.21875 45.125 66.21875 48.1875 
Q 66.21875 53.078125 64.546875 57.390625 
Q 62.890625 61.71875 59.390625 64.359375 
Q 55.90625 67 50.875 67 
Q 42.71875 67 35.9375 62.890625 
Q 29.15625 58.796875 24.4375 52.125 
Q 19.734375 45.453125 17.15625 37.328125 
Q 14.59375 29.203125 14.59375 21.578125 
z
" id="Cmmi10-67"/>
      <path d="M 31 -24.8125 
Q 25.4375 -20.40625 21.40625 -14.71875 
Q 17.390625 -9.03125 14.8125 -2.578125 
Q 12.25 3.859375 10.984375 10.890625 
Q 9.71875 17.921875 9.71875 25 
Q 9.71875 32.171875 10.984375 39.203125 
Q 12.25 46.234375 14.859375 52.734375 
Q 17.484375 59.234375 21.53125 64.890625 
Q 25.59375 70.5625 31 74.8125 
Q 31 75 31.5 75 
L 32.421875 75 
Q 32.71875 75 32.953125 74.734375 
Q 33.203125 74.46875 33.203125 74.125 
Q 33.203125 73.6875 33.015625 73.484375 
Q 28.125 68.703125 24.875 63.234375 
Q 21.625 57.765625 19.640625 51.578125 
Q 17.671875 45.40625 16.796875 38.78125 
Q 15.921875 32.171875 15.921875 25 
Q 15.921875 -6.78125 32.90625 -23.296875 
Q 33.203125 -23.578125 33.203125 -24.125 
Q 33.203125 -24.359375 32.9375 -24.671875 
Q 32.671875 -25 32.421875 -25 
L 31.5 -25 
Q 31 -25 31 -24.8125 
z
" id="Cmr10-40"/>
      <path d="M 7.8125 2.875 
Q 9.578125 1.515625 12.796875 1.515625 
Q 15.921875 1.515625 18.3125 4.515625 
Q 20.703125 7.515625 21.578125 11.078125 
L 26.125 28.8125 
Q 27.203125 33.640625 27.203125 35.40625 
Q 27.203125 37.890625 25.8125 39.75 
Q 24.421875 41.609375 21.921875 41.609375 
Q 18.75 41.609375 15.96875 39.625 
Q 13.1875 37.640625 11.28125 34.59375 
Q 9.375 31.546875 8.59375 28.421875 
Q 8.40625 27.78125 7.8125 27.78125 
L 6.59375 27.78125 
Q 5.8125 27.78125 5.8125 28.71875 
L 5.8125 29 
Q 6.78125 32.71875 9.125 36.25 
Q 11.46875 39.796875 14.859375 41.984375 
Q 18.265625 44.1875 22.125 44.1875 
Q 25.78125 44.1875 28.734375 42.234375 
Q 31.6875 40.28125 32.90625 36.921875 
Q 34.625 39.984375 37.28125 42.078125 
Q 39.9375 44.1875 43.109375 44.1875 
Q 45.265625 44.1875 47.5 43.421875 
Q 49.75 42.671875 51.171875 41.109375 
Q 52.59375 39.546875 52.59375 37.203125 
Q 52.59375 34.671875 50.953125 32.828125 
Q 49.3125 31 46.78125 31 
Q 45.171875 31 44.09375 32.03125 
Q 43.015625 33.0625 43.015625 34.625 
Q 43.015625 36.71875 44.453125 38.296875 
Q 45.90625 39.890625 47.90625 40.1875 
Q 46.09375 41.609375 42.921875 41.609375 
Q 39.703125 41.609375 37.328125 38.625 
Q 34.96875 35.640625 33.984375 31.984375 
L 29.59375 14.3125 
Q 28.515625 10.296875 28.515625 7.71875 
Q 28.515625 5.171875 29.953125 3.34375 
Q 31.390625 1.515625 33.796875 1.515625 
Q 38.484375 1.515625 42.15625 5.640625 
Q 45.84375 9.765625 47.015625 14.703125 
Q 47.21875 15.28125 47.796875 15.28125 
L 49.03125 15.28125 
Q 49.421875 15.28125 49.65625 15.015625 
Q 49.90625 14.75 49.90625 14.40625 
Q 49.90625 14.3125 49.8125 14.109375 
Q 48.390625 8.15625 43.84375 3.515625 
Q 39.3125 -1.125 33.59375 -1.125 
Q 29.9375 -1.125 26.984375 0.84375 
Q 24.03125 2.828125 22.796875 6.203125 
Q 21.234375 3.265625 18.46875 1.0625 
Q 15.71875 -1.125 12.59375 -1.125 
Q 10.453125 -1.125 8.171875 -0.359375 
Q 5.90625 0.390625 4.484375 1.953125 
Q 3.078125 3.515625 3.078125 5.90625 
Q 3.078125 8.25 4.703125 10.171875 
Q 6.34375 12.109375 8.796875 12.109375 
Q 10.453125 12.109375 11.578125 11.109375 
Q 12.703125 10.109375 12.703125 8.5 
Q 12.703125 6.390625 11.296875 4.828125 
Q 9.90625 3.265625 7.8125 2.875 
z
" id="Cmmi10-120"/>
      <path d="M 6.203125 8.109375 
Q 6.203125 9.578125 6.5 10.890625 
L 13.71875 39.59375 
L 3.21875 39.59375 
Q 2.203125 39.59375 2.203125 40.921875 
Q 2.59375 43.109375 3.515625 43.109375 
L 14.59375 43.109375 
L 18.609375 59.421875 
Q 19 60.75 20.171875 61.671875 
Q 21.34375 62.59375 22.796875 62.59375 
Q 24.078125 62.59375 24.921875 61.828125 
Q 25.78125 61.078125 25.78125 59.8125 
Q 25.78125 59.515625 25.75 59.34375 
Q 25.734375 59.1875 25.6875 58.984375 
L 21.6875 43.109375 
L 31.984375 43.109375 
Q 33.015625 43.109375 33.015625 41.796875 
Q 32.953125 41.546875 32.8125 40.953125 
Q 32.671875 40.375 32.421875 39.984375 
Q 32.171875 39.59375 31.6875 39.59375 
L 20.796875 39.59375 
L 13.625 10.6875 
Q 12.890625 7.859375 12.890625 5.8125 
Q 12.890625 1.515625 15.828125 1.515625 
Q 20.21875 1.515625 23.609375 5.640625 
Q 27 9.765625 28.8125 14.703125 
Q 29.203125 15.28125 29.59375 15.28125 
L 30.8125 15.28125 
Q 31.203125 15.28125 31.4375 15.015625 
Q 31.6875 14.75 31.6875 14.40625 
Q 31.6875 14.203125 31.59375 14.109375 
Q 29.390625 8.0625 25.1875 3.46875 
Q 21 -1.125 15.578125 -1.125 
Q 11.625 -1.125 8.90625 1.453125 
Q 6.203125 4.046875 6.203125 8.109375 
z
" id="Cmmi10-116"/>
      <path d="M 9.90625 -18.015625 
Q 9.90625 -17.578125 10.296875 -17.1875 
Q 13.921875 -13.71875 15.921875 -9.171875 
Q 17.921875 -4.640625 17.921875 0.390625 
L 17.921875 1.609375 
Q 16.3125 0 13.921875 0 
Q 11.625 0 10.015625 1.609375 
Q 8.40625 3.21875 8.40625 5.515625 
Q 8.40625 7.859375 10.015625 9.421875 
Q 11.625 10.984375 13.921875 10.984375 
Q 17.484375 10.984375 19 7.6875 
Q 20.515625 4.390625 20.515625 0.390625 
Q 20.515625 -5.171875 18.28125 -10.171875 
Q 16.0625 -15.1875 12.015625 -19.1875 
Q 11.625 -19.390625 11.375 -19.390625 
Q 10.890625 -19.390625 10.390625 -18.9375 
Q 9.90625 -18.5 9.90625 -18.015625 
z
" id="Cmmi10-59"/>
      <path d="M 10.59375 10.890625 
Q 10.59375 14.15625 11.46875 17.59375 
Q 12.359375 21.046875 13.9375 25.265625 
Q 15.53125 29.5 16.703125 32.625 
Q 18.015625 36.28125 18.015625 38.625 
Q 18.015625 41.609375 15.828125 41.609375 
Q 11.859375 41.609375 9.296875 37.53125 
Q 6.734375 33.453125 5.515625 28.421875 
Q 5.328125 27.78125 4.6875 27.78125 
L 3.515625 27.78125 
Q 2.6875 27.78125 2.6875 28.71875 
L 2.6875 29 
Q 4.296875 34.96875 7.609375 39.578125 
Q 10.9375 44.1875 16.015625 44.1875 
Q 19.578125 44.1875 22.046875 41.84375 
Q 24.515625 39.5 24.515625 35.890625 
Q 24.515625 34.03125 23.6875 31.984375 
Q 23.25 30.765625 21.6875 26.65625 
Q 20.125 22.5625 19.28125 19.875 
Q 18.453125 17.1875 17.921875 14.59375 
Q 17.390625 12.015625 17.390625 9.421875 
Q 17.390625 6.109375 18.796875 3.8125 
Q 20.21875 1.515625 23.390625 1.515625 
Q 29.78125 1.515625 34.625 9.421875 
Q 34.71875 9.8125 34.78125 10.171875 
Q 34.859375 10.546875 34.90625 10.890625 
L 42.09375 39.890625 
Q 42.4375 41.21875 43.65625 42.15625 
Q 44.875 43.109375 46.296875 43.109375 
Q 47.515625 43.109375 48.40625 42.328125 
Q 49.3125 41.546875 49.3125 40.28125 
Q 49.3125 39.703125 49.21875 39.5 
L 42 10.6875 
Q 41.3125 7.71875 41.3125 5.8125 
Q 41.3125 1.515625 44.1875 1.515625 
Q 47.40625 1.515625 49 5.484375 
Q 50.59375 9.46875 51.703125 14.703125 
Q 51.90625 15.28125 52.484375 15.28125 
L 53.71875 15.28125 
Q 54.109375 15.28125 54.34375 14.9375 
Q 54.59375 14.59375 54.59375 14.3125 
Q 53.515625 10.015625 52.515625 6.9375 
Q 51.515625 3.859375 49.359375 1.359375 
Q 47.21875 -1.125 44 -1.125 
Q 40.828125 -1.125 38.3125 0.609375 
Q 35.796875 2.34375 34.90625 5.328125 
Q 32.625 2.390625 29.59375 0.625 
Q 26.5625 -1.125 23.1875 -1.125 
Q 17.4375 -1.125 14.015625 2.015625 
Q 10.59375 5.171875 10.59375 10.890625 
z
" id="Cmmi10-117"/>
      <path d="M 24 -14.90625 
L 24 -2.59375 
Q 24 4.40625 22.796875 12.34375 
Q 21.59375 20.296875 19.796875 25.296875 
Q 24 29.59375 24 43.796875 
Q 19.40625 43.40625 14.90625 41.59375 
Q 11.703125 40.40625 10.296875 40.40625 
Q 5.90625 40.40625 5.90625 44.703125 
Q 5.90625 46.59375 7 47.84375 
Q 8.09375 49.09375 9.796875 49.09375 
Q 11.40625 49.09375 14.703125 47.796875 
Q 20 45.703125 24 45.59375 
Q 24 49.703125 23.546875 52.140625 
Q 23.09375 54.59375 21.59375 58.40625 
Q 20.40625 61.40625 20.40625 63.09375 
Q 20.40625 64.796875 21.84375 66.1875 
Q 23.296875 67.59375 25.09375 67.59375 
Q 26.90625 67.59375 28.34375 66.1875 
Q 29.796875 64.796875 29.796875 63.09375 
Q 29.796875 61.59375 28.5 58.40625 
Q 27 54.703125 26.59375 52.25 
Q 26.203125 49.796875 26.203125 45.59375 
Q 30.203125 45.703125 35.40625 47.796875 
Q 38.59375 49.09375 40.40625 49.09375 
Q 42 49.09375 43.09375 47.84375 
Q 44.203125 46.59375 44.203125 44.6875 
Q 44.203125 42.796875 43.140625 41.59375 
Q 42.09375 40.40625 40.5 40.40625 
Q 38.40625 40.40625 35.203125 41.59375 
Q 30.5 43.40625 26.203125 43.796875 
Q 26.203125 29.703125 30.296875 25.296875 
Q 26.203125 14.703125 26.203125 -2.59375 
L 26.203125 -14.90625 
z
" id="STIXGeneral-Regular-8224"/>
      <path d="M 6.5 -25 
Q 5.609375 -25 5.609375 -24.125 
Q 5.609375 -23.6875 5.8125 -23.484375 
Q 22.90625 -6.78125 22.90625 25 
Q 22.90625 56.78125 6 73.296875 
Q 5.609375 73.53125 5.609375 74.125 
Q 5.609375 74.46875 5.875 74.734375 
Q 6.15625 75 6.5 75 
L 7.421875 75 
Q 7.71875 75 7.90625 74.8125 
Q 15.09375 69.140625 19.875 61.03125 
Q 24.65625 52.9375 26.875 43.75 
Q 29.109375 34.578125 29.109375 25 
Q 29.109375 17.921875 27.90625 11.0625 
Q 26.703125 4.203125 24.09375 -2.453125 
Q 21.484375 -9.125 17.484375 -14.765625 
Q 13.484375 -20.40625 7.90625 -24.8125 
Q 7.71875 -25 7.421875 -25 
z
" id="Cmr10-41"/>
     </defs>
     <g transform="translate(10.324937 71.65)rotate(-90)scale(0.1 -0.1)">
      <use transform="translate(0 0.44375)" xlink:href="#Cmr10-67"/>
      <use transform="translate(72.216797 0.44375)" xlink:href="#Cmr10-111"/>
      <use transform="translate(122.216797 0.44375)" xlink:href="#Cmr10-115"/>
      <use transform="translate(161.621094 0.44375)" xlink:href="#Cmr10-116"/>
      <use transform="translate(228.206103 0.44375)" xlink:href="#Cmmi10-67"/>
      <use transform="translate(299.592821 0.44375)" xlink:href="#Cmr10-40"/>
      <use transform="translate(338.411181 0.44375)" xlink:href="#Cmmi10-120"/>
      <use transform="translate(395.491259 -16.5625)scale(0.7)" xlink:href="#Cmmi10-116"/>
      <use transform="translate(427.127392 0.44375)" xlink:href="#Cmmi10-59"/>
      <use transform="translate(472.371532 0.44375)" xlink:href="#Cmmi10-117"/>
      <use transform="translate(548.143563 41.684375)scale(0.7)" xlink:href="#STIXGeneral-Regular-8224"/>
      <use transform="translate(529.549267 -25.065625)scale(0.7)" xlink:href="#Cmmi10-116"/>
      <use transform="translate(601.811912 0.44375)" xlink:href="#Cmr10-41"/>
     </g>
    </g>
   </g>
   <g id="line2d_23">
    <path clip-path="url(#p0f35778383)" d="M 44.064 31.592918 
" style="fill:none;stroke:#0000ff;stroke-dasharray:1,1.65;stroke-dashoffset:0;"/>
    <defs>
     <path d="M -1.666667 1.666667 
L 1.666667 1.666667 
L 1.666667 -1.666667 
L -1.666667 -1.666667 
z
" id="m1bb12ff067" style="stroke:#0000ff;stroke-linejoin:miter;"/>
    </defs>
    <g clip-path="url(#p0f35778383)">
     <use style="fill:#0000ff;stroke:#0000ff;stroke-linejoin:miter;" x="44.064" xlink:href="#m1bb12ff067" y="31.592918"/>
    </g>
   </g>
   <g id="line2d_24">
    <path clip-path="url(#p0f35778383)" d="M 44.064 32.469643 
L 45.0432 35.335625 
L 46.0224 43.150244 
L 47.0016 51.215769 
L 47.9808 57.847565 
L 48.96 62.969361 
L 49.9392 66.577773 
L 50.9184 68.657579 
L 51.8976 69.16277 
" style="fill:none;stroke:#00bfff;stroke-dasharray:1,1.65;stroke-dashoffset:0;"/>
    <defs>
     <path d="M 0 -2.5 
L -2.5 2.5 
L 2.5 2.5 
z
" id="m383bbe2e4f" style="stroke:#00bfff;stroke-linejoin:miter;"/>
    </defs>
    <g clip-path="url(#p0f35778383)">
     <use style="fill:#00bfff;stroke:#00bfff;stroke-linejoin:miter;" x="44.064" xlink:href="#m383bbe2e4f" y="32.469643"/>
     <use style="fill:#00bfff;stroke:#00bfff;stroke-linejoin:miter;" x="45.0432" xlink:href="#m383bbe2e4f" y="35.335625"/>
     <use style="fill:#00bfff;stroke:#00bfff;stroke-linejoin:miter;" x="46.0224" xlink:href="#m383bbe2e4f" y="43.150244"/>
     <use style="fill:#00bfff;stroke:#00bfff;stroke-linejoin:miter;" x="47.0016" xlink:href="#m383bbe2e4f" y="51.215769"/>
     <use style="fill:#00bfff;stroke:#00bfff;stroke-linejoin:miter;" x="47.9808" xlink:href="#m383bbe2e4f" y="57.847565"/>
     <use style="fill:#00bfff;stroke:#00bfff;stroke-linejoin:miter;" x="48.96" xlink:href="#m383bbe2e4f" y="62.969361"/>
     <use style="fill:#00bfff;stroke:#00bfff;stroke-linejoin:miter;" x="49.9392" xlink:href="#m383bbe2e4f" y="66.577773"/>
     <use style="fill:#00bfff;stroke:#00bfff;stroke-linejoin:miter;" x="50.9184" xlink:href="#m383bbe2e4f" y="68.657579"/>
     <use style="fill:#00bfff;stroke:#00bfff;stroke-linejoin:miter;" x="51.8976" xlink:href="#m383bbe2e4f" y="69.16277"/>
    </g>
   </g>
   <g id="line2d_25">
    <path clip-path="url(#p0f35778383)" d="M 44.064 32.469643 
L 45.0432 31.592918 
L 46.0224 29.030575 
L 47.0016 27.646184 
L 47.9808 24.90022 
L 48.96 21.197016 
L 49.9392 19.341671 
L 50.9184 23.855007 
L 51.8976 27.648929 
L 52.8768 29.794174 
L 53.856 30.356402 
L 54.8352 30.605905 
L 55.8144 29.244683 
L 56.7936 30.436434 
L 57.7728 30.799396 
L 58.752 31.398097 
L 59.7312 31.092737 
L 60.7104 31.179101 
L 61.6896 30.982215 
L 62.6688 30.905143 
L 63.648 30.754837 
L 64.6272 30.37361 
L 65.6064 30.33722 
L 66.5856 30.340386 
L 67.5648 30.231158 
L 68.544 29.582107 
L 69.5232 29.831342 
L 70.5024 28.369287 
L 71.4816 28.614673 
L 72.4608 27.739935 
L 73.44 28.511022 
L 74.4192 30.227025 
L 75.3984 32.99756 
L 76.3776 35.530479 
L 77.3568 38.133995 
L 78.336 40.880102 
L 79.3152 44.312183 
L 80.2944 47.370214 
L 81.2736 49.839046 
L 82.2528 52.587152 
L 83.232 49.839046 
L 84.2112 51.690117 
L 85.1904 53.061575 
L 86.1696 55.02712 
L 87.1488 57.168068 
L 88.128 59.159009 
L 89.1072 61.064859 
L 90.0864 62.64456 
L 91.0656 62.258715 
L 92.0448 62.899822 
L 93.024 63.819246 
L 94.0032 64.580787 
L 94.9824 65.563556 
L 95.9616 64.602673 
L 96.9408 65.452217 
L 97.92 66.104952 
L 98.8992 64.826456 
L 99.8784 63.226174 
L 100.8576 64.472352 
L 101.8368 64.805041 
L 102.816 64.789622 
L 103.7952 64.804176 
L 104.7744 64.746665 
L 105.7536 64.900508 
L 106.7328 64.988795 
L 107.712 65.591623 
L 108.6912 65.46548 
L 109.6704 66.182701 
L 110.6496 66.343991 
L 111.6288 66.21856 
L 112.608 66.343991 
L 113.5872 66.335539 
L 114.5664 66.265841 
L 115.5456 66.561515 
L 116.5248 66.97535 
L 117.504 67.056404 
L 118.4832 65.971046 
L 119.4624 65.365217 
L 120.4416 63.462897 
L 121.4208 61.186526 
L 122.4 61.950792 
L 123.3792 64.092693 
L 124.3584 65.356064 
L 125.3376 66.662627 
L 126.3168 66.630106 
L 127.296 66.729956 
L 128.2752 66.195285 
L 129.2544 65.774506 
L 130.2336 64.870218 
L 131.2128 65.61923 
L 132.192 65.281157 
L 133.1712 64.711236 
L 134.1504 63.945173 
L 135.1296 63.82461 
L 136.1088 63.458581 
L 137.088 64.242844 
L 138.0672 64.013537 
L 139.0464 63.949934 
L 140.0256 64.348633 
L 141.0048 63.885171 
L 141.984 63.822484 
L 142.9632 64.689843 
L 143.9424 65.256197 
L 144.9216 66.349109 
L 145.9008 67.249104 
L 146.88 67.791077 
L 147.8592 67.865244 
L 148.8384 68.58861 
L 149.8176 69.014938 
" style="fill:none;stroke:#708090;stroke-dasharray:1,1.65;stroke-dashoffset:0;"/>
    <defs>
     <path d="M -2.5 0 
L 2.5 0 
M 0 2.5 
L 0 -2.5 
" id="m99da1635f1" style="stroke:#708090;"/>
    </defs>
    <g clip-path="url(#p0f35778383)">
     <use style="fill:#708090;stroke:#708090;" x="44.064" xlink:href="#m99da1635f1" y="32.469643"/>
     <use style="fill:#708090;stroke:#708090;" x="45.0432" xlink:href="#m99da1635f1" y="31.592918"/>
     <use style="fill:#708090;stroke:#708090;" x="46.0224" xlink:href="#m99da1635f1" y="29.030575"/>
     <use style="fill:#708090;stroke:#708090;" x="47.0016" xlink:href="#m99da1635f1" y="27.646184"/>
     <use style="fill:#708090;stroke:#708090;" x="47.9808" xlink:href="#m99da1635f1" y="24.90022"/>
     <use style="fill:#708090;stroke:#708090;" x="48.96" xlink:href="#m99da1635f1" y="21.197016"/>
     <use style="fill:#708090;stroke:#708090;" x="49.9392" xlink:href="#m99da1635f1" y="19.341671"/>
     <use style="fill:#708090;stroke:#708090;" x="50.9184" xlink:href="#m99da1635f1" y="23.855007"/>
     <use style="fill:#708090;stroke:#708090;" x="51.8976" xlink:href="#m99da1635f1" y="27.648929"/>
     <use style="fill:#708090;stroke:#708090;" x="52.8768" xlink:href="#m99da1635f1" y="29.794174"/>
     <use style="fill:#708090;stroke:#708090;" x="53.856" xlink:href="#m99da1635f1" y="30.356402"/>
     <use style="fill:#708090;stroke:#708090;" x="54.8352" xlink:href="#m99da1635f1" y="30.605905"/>
     <use style="fill:#708090;stroke:#708090;" x="55.8144" xlink:href="#m99da1635f1" y="29.244683"/>
     <use style="fill:#708090;stroke:#708090;" x="56.7936" xlink:href="#m99da1635f1" y="30.436434"/>
     <use style="fill:#708090;stroke:#708090;" x="57.7728" xlink:href="#m99da1635f1" y="30.799396"/>
     <use style="fill:#708090;stroke:#708090;" x="58.752" xlink:href="#m99da1635f1" y="31.398097"/>
     <use style="fill:#708090;stroke:#708090;" x="59.7312" xlink:href="#m99da1635f1" y="31.092737"/>
     <use style="fill:#708090;stroke:#708090;" x="60.7104" xlink:href="#m99da1635f1" y="31.179101"/>
     <use style="fill:#708090;stroke:#708090;" x="61.6896" xlink:href="#m99da1635f1" y="30.982215"/>
     <use style="fill:#708090;stroke:#708090;" x="62.6688" xlink:href="#m99da1635f1" y="30.905143"/>
     <use style="fill:#708090;stroke:#708090;" x="63.648" xlink:href="#m99da1635f1" y="30.754837"/>
     <use style="fill:#708090;stroke:#708090;" x="64.6272" xlink:href="#m99da1635f1" y="30.37361"/>
     <use style="fill:#708090;stroke:#708090;" x="65.6064" xlink:href="#m99da1635f1" y="30.33722"/>
     <use style="fill:#708090;stroke:#708090;" x="66.5856" xlink:href="#m99da1635f1" y="30.340386"/>
     <use style="fill:#708090;stroke:#708090;" x="67.5648" xlink:href="#m99da1635f1" y="30.231158"/>
     <use style="fill:#708090;stroke:#708090;" x="68.544" xlink:href="#m99da1635f1" y="29.582107"/>
     <use style="fill:#708090;stroke:#708090;" x="69.5232" xlink:href="#m99da1635f1" y="29.831342"/>
     <use style="fill:#708090;stroke:#708090;" x="70.5024" xlink:href="#m99da1635f1" y="28.369287"/>
     <use style="fill:#708090;stroke:#708090;" x="71.4816" xlink:href="#m99da1635f1" y="28.614673"/>
     <use style="fill:#708090;stroke:#708090;" x="72.4608" xlink:href="#m99da1635f1" y="27.739935"/>
     <use style="fill:#708090;stroke:#708090;" x="73.44" xlink:href="#m99da1635f1" y="28.511022"/>
     <use style="fill:#708090;stroke:#708090;" x="74.4192" xlink:href="#m99da1635f1" y="30.227025"/>
     <use style="fill:#708090;stroke:#708090;" x="75.3984" xlink:href="#m99da1635f1" y="32.99756"/>
     <use style="fill:#708090;stroke:#708090;" x="76.3776" xlink:href="#m99da1635f1" y="35.530479"/>
     <use style="fill:#708090;stroke:#708090;" x="77.3568" xlink:href="#m99da1635f1" y="38.133995"/>
     <use style="fill:#708090;stroke:#708090;" x="78.336" xlink:href="#m99da1635f1" y="40.880102"/>
     <use style="fill:#708090;stroke:#708090;" x="79.3152" xlink:href="#m99da1635f1" y="44.312183"/>
     <use style="fill:#708090;stroke:#708090;" x="80.2944" xlink:href="#m99da1635f1" y="47.370214"/>
     <use style="fill:#708090;stroke:#708090;" x="81.2736" xlink:href="#m99da1635f1" y="49.839046"/>
     <use style="fill:#708090;stroke:#708090;" x="82.2528" xlink:href="#m99da1635f1" y="52.587152"/>
     <use style="fill:#708090;stroke:#708090;" x="83.232" xlink:href="#m99da1635f1" y="49.839046"/>
     <use style="fill:#708090;stroke:#708090;" x="84.2112" xlink:href="#m99da1635f1" y="51.690117"/>
     <use style="fill:#708090;stroke:#708090;" x="85.1904" xlink:href="#m99da1635f1" y="53.061575"/>
     <use style="fill:#708090;stroke:#708090;" x="86.1696" xlink:href="#m99da1635f1" y="55.02712"/>
     <use style="fill:#708090;stroke:#708090;" x="87.1488" xlink:href="#m99da1635f1" y="57.168068"/>
     <use style="fill:#708090;stroke:#708090;" x="88.128" xlink:href="#m99da1635f1" y="59.159009"/>
     <use style="fill:#708090;stroke:#708090;" x="89.1072" xlink:href="#m99da1635f1" y="61.064859"/>
     <use style="fill:#708090;stroke:#708090;" x="90.0864" xlink:href="#m99da1635f1" y="62.64456"/>
     <use style="fill:#708090;stroke:#708090;" x="91.0656" xlink:href="#m99da1635f1" y="62.258715"/>
     <use style="fill:#708090;stroke:#708090;" x="92.0448" xlink:href="#m99da1635f1" y="62.899822"/>
     <use style="fill:#708090;stroke:#708090;" x="93.024" xlink:href="#m99da1635f1" y="63.819246"/>
     <use style="fill:#708090;stroke:#708090;" x="94.0032" xlink:href="#m99da1635f1" y="64.580787"/>
     <use style="fill:#708090;stroke:#708090;" x="94.9824" xlink:href="#m99da1635f1" y="65.563556"/>
     <use style="fill:#708090;stroke:#708090;" x="95.9616" xlink:href="#m99da1635f1" y="64.602673"/>
     <use style="fill:#708090;stroke:#708090;" x="96.9408" xlink:href="#m99da1635f1" y="65.452217"/>
     <use style="fill:#708090;stroke:#708090;" x="97.92" xlink:href="#m99da1635f1" y="66.104952"/>
     <use style="fill:#708090;stroke:#708090;" x="98.8992" xlink:href="#m99da1635f1" y="64.826456"/>
     <use style="fill:#708090;stroke:#708090;" x="99.8784" xlink:href="#m99da1635f1" y="63.226174"/>
     <use style="fill:#708090;stroke:#708090;" x="100.8576" xlink:href="#m99da1635f1" y="64.472352"/>
     <use style="fill:#708090;stroke:#708090;" x="101.8368" xlink:href="#m99da1635f1" y="64.805041"/>
     <use style="fill:#708090;stroke:#708090;" x="102.816" xlink:href="#m99da1635f1" y="64.789622"/>
     <use style="fill:#708090;stroke:#708090;" x="103.7952" xlink:href="#m99da1635f1" y="64.804176"/>
     <use style="fill:#708090;stroke:#708090;" x="104.7744" xlink:href="#m99da1635f1" y="64.746665"/>
     <use style="fill:#708090;stroke:#708090;" x="105.7536" xlink:href="#m99da1635f1" y="64.900508"/>
     <use style="fill:#708090;stroke:#708090;" x="106.7328" xlink:href="#m99da1635f1" y="64.988795"/>
     <use style="fill:#708090;stroke:#708090;" x="107.712" xlink:href="#m99da1635f1" y="65.591623"/>
     <use style="fill:#708090;stroke:#708090;" x="108.6912" xlink:href="#m99da1635f1" y="65.46548"/>
     <use style="fill:#708090;stroke:#708090;" x="109.6704" xlink:href="#m99da1635f1" y="66.182701"/>
     <use style="fill:#708090;stroke:#708090;" x="110.6496" xlink:href="#m99da1635f1" y="66.343991"/>
     <use style="fill:#708090;stroke:#708090;" x="111.6288" xlink:href="#m99da1635f1" y="66.21856"/>
     <use style="fill:#708090;stroke:#708090;" x="112.608" xlink:href="#m99da1635f1" y="66.343991"/>
     <use style="fill:#708090;stroke:#708090;" x="113.5872" xlink:href="#m99da1635f1" y="66.335539"/>
     <use style="fill:#708090;stroke:#708090;" x="114.5664" xlink:href="#m99da1635f1" y="66.265841"/>
     <use style="fill:#708090;stroke:#708090;" x="115.5456" xlink:href="#m99da1635f1" y="66.561515"/>
     <use style="fill:#708090;stroke:#708090;" x="116.5248" xlink:href="#m99da1635f1" y="66.97535"/>
     <use style="fill:#708090;stroke:#708090;" x="117.504" xlink:href="#m99da1635f1" y="67.056404"/>
     <use style="fill:#708090;stroke:#708090;" x="118.4832" xlink:href="#m99da1635f1" y="65.971046"/>
     <use style="fill:#708090;stroke:#708090;" x="119.4624" xlink:href="#m99da1635f1" y="65.365217"/>
     <use style="fill:#708090;stroke:#708090;" x="120.4416" xlink:href="#m99da1635f1" y="63.462897"/>
     <use style="fill:#708090;stroke:#708090;" x="121.4208" xlink:href="#m99da1635f1" y="61.186526"/>
     <use style="fill:#708090;stroke:#708090;" x="122.4" xlink:href="#m99da1635f1" y="61.950792"/>
     <use style="fill:#708090;stroke:#708090;" x="123.3792" xlink:href="#m99da1635f1" y="64.092693"/>
     <use style="fill:#708090;stroke:#708090;" x="124.3584" xlink:href="#m99da1635f1" y="65.356064"/>
     <use style="fill:#708090;stroke:#708090;" x="125.3376" xlink:href="#m99da1635f1" y="66.662627"/>
     <use style="fill:#708090;stroke:#708090;" x="126.3168" xlink:href="#m99da1635f1" y="66.630106"/>
     <use style="fill:#708090;stroke:#708090;" x="127.296" xlink:href="#m99da1635f1" y="66.729956"/>
     <use style="fill:#708090;stroke:#708090;" x="128.2752" xlink:href="#m99da1635f1" y="66.195285"/>
     <use style="fill:#708090;stroke:#708090;" x="129.2544" xlink:href="#m99da1635f1" y="65.774506"/>
     <use style="fill:#708090;stroke:#708090;" x="130.2336" xlink:href="#m99da1635f1" y="64.870218"/>
     <use style="fill:#708090;stroke:#708090;" x="131.2128" xlink:href="#m99da1635f1" y="65.61923"/>
     <use style="fill:#708090;stroke:#708090;" x="132.192" xlink:href="#m99da1635f1" y="65.281157"/>
     <use style="fill:#708090;stroke:#708090;" x="133.1712" xlink:href="#m99da1635f1" y="64.711236"/>
     <use style="fill:#708090;stroke:#708090;" x="134.1504" xlink:href="#m99da1635f1" y="63.945173"/>
     <use style="fill:#708090;stroke:#708090;" x="135.1296" xlink:href="#m99da1635f1" y="63.82461"/>
     <use style="fill:#708090;stroke:#708090;" x="136.1088" xlink:href="#m99da1635f1" y="63.458581"/>
     <use style="fill:#708090;stroke:#708090;" x="137.088" xlink:href="#m99da1635f1" y="64.242844"/>
     <use style="fill:#708090;stroke:#708090;" x="138.0672" xlink:href="#m99da1635f1" y="64.013537"/>
     <use style="fill:#708090;stroke:#708090;" x="139.0464" xlink:href="#m99da1635f1" y="63.949934"/>
     <use style="fill:#708090;stroke:#708090;" x="140.0256" xlink:href="#m99da1635f1" y="64.348633"/>
     <use style="fill:#708090;stroke:#708090;" x="141.0048" xlink:href="#m99da1635f1" y="63.885171"/>
     <use style="fill:#708090;stroke:#708090;" x="141.984" xlink:href="#m99da1635f1" y="63.822484"/>
     <use style="fill:#708090;stroke:#708090;" x="142.9632" xlink:href="#m99da1635f1" y="64.689843"/>
     <use style="fill:#708090;stroke:#708090;" x="143.9424" xlink:href="#m99da1635f1" y="65.256197"/>
     <use style="fill:#708090;stroke:#708090;" x="144.9216" xlink:href="#m99da1635f1" y="66.349109"/>
     <use style="fill:#708090;stroke:#708090;" x="145.9008" xlink:href="#m99da1635f1" y="67.249104"/>
     <use style="fill:#708090;stroke:#708090;" x="146.88" xlink:href="#m99da1635f1" y="67.791077"/>
     <use style="fill:#708090;stroke:#708090;" x="147.8592" xlink:href="#m99da1635f1" y="67.865244"/>
     <use style="fill:#708090;stroke:#708090;" x="148.8384" xlink:href="#m99da1635f1" y="68.58861"/>
     <use style="fill:#708090;stroke:#708090;" x="149.8176" xlink:href="#m99da1635f1" y="69.014938"/>
    </g>
   </g>
   <g id="line2d_26">
    <path clip-path="url(#p0f35778383)" d="M 44.064 32.469643 
L 45.0432 31.592918 
L 46.0224 32.436805 
L 47.0016 32.807729 
L 47.9808 33.269043 
L 48.96 33.273085 
L 49.9392 33.258101 
L 50.9184 33.791651 
L 51.8976 36.905401 
L 52.8768 40.725062 
L 53.856 44.876739 
L 54.8352 48.954037 
L 55.8144 49.906216 
L 56.7936 53.51578 
L 57.7728 56.751293 
L 58.752 55.018189 
L 59.7312 52.648705 
L 60.7104 55.623013 
L 61.6896 58.56908 
L 62.6688 60.384849 
L 63.648 62.746637 
L 64.6272 64.760173 
L 65.6064 65.115115 
L 66.5856 65.367583 
L 67.5648 66.78193 
L 68.544 67.837776 
L 69.5232 67.328311 
L 70.5024 66.554227 
L 71.4816 66.126875 
L 72.4608 67.129539 
L 73.44 68.089396 
L 74.4192 67.154513 
L 75.3984 68.03082 
L 76.3776 68.383459 
L 77.3568 68.553394 
L 78.336 68.564839 
L 79.3152 68.549907 
L 80.2944 68.564623 
L 81.2736 68.078435 
L 82.2528 68.077473 
L 83.232 68.321587 
L 84.2112 68.501008 
L 85.1904 68.544905 
L 86.1696 68.464427 
L 87.1488 68.12137 
L 88.128 68.21036 
L 89.1072 68.283979 
L 90.0864 68.346319 
L 91.0656 68.302141 
L 92.0448 68.134986 
L 93.024 68.326203 
L 94.0032 68.279944 
L 94.9824 68.287497 
L 95.9616 68.225223 
L 96.9408 68.279828 
L 97.92 68.216886 
L 98.8992 67.960076 
L 99.8784 68.290025 
L 100.8576 68.250042 
L 101.8368 68.301278 
L 102.816 68.291565 
L 103.7952 68.094168 
L 104.7744 67.710737 
L 105.7536 68.101386 
L 106.7328 68.291913 
L 107.712 68.275207 
L 108.6912 68.16137 
L 109.6704 67.995945 
L 110.6496 68.097819 
L 111.6288 68.126498 
L 112.608 68.125394 
L 113.5872 68.189636 
L 114.5664 67.957302 
L 115.5456 68.045092 
L 116.5248 68.617551 
L 117.504 68.956123 
L 118.4832 69.062979 
" style="fill:none;stroke:#ff8c00;stroke-dasharray:1,1.65;stroke-dashoffset:0;"/>
    <defs>
     <path d="M -2.5 2.5 
L 2.5 -2.5 
M -2.5 -2.5 
L 2.5 2.5 
" id="m40145feedb" style="stroke:#ff8c00;"/>
    </defs>
    <g clip-path="url(#p0f35778383)">
     <use style="fill:#ff8c00;stroke:#ff8c00;" x="44.064" xlink:href="#m40145feedb" y="32.469643"/>
     <use style="fill:#ff8c00;stroke:#ff8c00;" x="45.0432" xlink:href="#m40145feedb" y="31.592918"/>
     <use style="fill:#ff8c00;stroke:#ff8c00;" x="46.0224" xlink:href="#m40145feedb" y="32.436805"/>
     <use style="fill:#ff8c00;stroke:#ff8c00;" x="47.0016" xlink:href="#m40145feedb" y="32.807729"/>
     <use style="fill:#ff8c00;stroke:#ff8c00;" x="47.9808" xlink:href="#m40145feedb" y="33.269043"/>
     <use style="fill:#ff8c00;stroke:#ff8c00;" x="48.96" xlink:href="#m40145feedb" y="33.273085"/>
     <use style="fill:#ff8c00;stroke:#ff8c00;" x="49.9392" xlink:href="#m40145feedb" y="33.258101"/>
     <use style="fill:#ff8c00;stroke:#ff8c00;" x="50.9184" xlink:href="#m40145feedb" y="33.791651"/>
     <use style="fill:#ff8c00;stroke:#ff8c00;" x="51.8976" xlink:href="#m40145feedb" y="36.905401"/>
     <use style="fill:#ff8c00;stroke:#ff8c00;" x="52.8768" xlink:href="#m40145feedb" y="40.725062"/>
     <use style="fill:#ff8c00;stroke:#ff8c00;" x="53.856" xlink:href="#m40145feedb" y="44.876739"/>
     <use style="fill:#ff8c00;stroke:#ff8c00;" x="54.8352" xlink:href="#m40145feedb" y="48.954037"/>
     <use style="fill:#ff8c00;stroke:#ff8c00;" x="55.8144" xlink:href="#m40145feedb" y="49.906216"/>
     <use style="fill:#ff8c00;stroke:#ff8c00;" x="56.7936" xlink:href="#m40145feedb" y="53.51578"/>
     <use style="fill:#ff8c00;stroke:#ff8c00;" x="57.7728" xlink:href="#m40145feedb" y="56.751293"/>
     <use style="fill:#ff8c00;stroke:#ff8c00;" x="58.752" xlink:href="#m40145feedb" y="55.018189"/>
     <use style="fill:#ff8c00;stroke:#ff8c00;" x="59.7312" xlink:href="#m40145feedb" y="52.648705"/>
     <use style="fill:#ff8c00;stroke:#ff8c00;" x="60.7104" xlink:href="#m40145feedb" y="55.623013"/>
     <use style="fill:#ff8c00;stroke:#ff8c00;" x="61.6896" xlink:href="#m40145feedb" y="58.56908"/>
     <use style="fill:#ff8c00;stroke:#ff8c00;" x="62.6688" xlink:href="#m40145feedb" y="60.384849"/>
     <use style="fill:#ff8c00;stroke:#ff8c00;" x="63.648" xlink:href="#m40145feedb" y="62.746637"/>
     <use style="fill:#ff8c00;stroke:#ff8c00;" x="64.6272" xlink:href="#m40145feedb" y="64.760173"/>
     <use style="fill:#ff8c00;stroke:#ff8c00;" x="65.6064" xlink:href="#m40145feedb" y="65.115115"/>
     <use style="fill:#ff8c00;stroke:#ff8c00;" x="66.5856" xlink:href="#m40145feedb" y="65.367583"/>
     <use style="fill:#ff8c00;stroke:#ff8c00;" x="67.5648" xlink:href="#m40145feedb" y="66.78193"/>
     <use style="fill:#ff8c00;stroke:#ff8c00;" x="68.544" xlink:href="#m40145feedb" y="67.837776"/>
     <use style="fill:#ff8c00;stroke:#ff8c00;" x="69.5232" xlink:href="#m40145feedb" y="67.328311"/>
     <use style="fill:#ff8c00;stroke:#ff8c00;" x="70.5024" xlink:href="#m40145feedb" y="66.554227"/>
     <use style="fill:#ff8c00;stroke:#ff8c00;" x="71.4816" xlink:href="#m40145feedb" y="66.126875"/>
     <use style="fill:#ff8c00;stroke:#ff8c00;" x="72.4608" xlink:href="#m40145feedb" y="67.129539"/>
     <use style="fill:#ff8c00;stroke:#ff8c00;" x="73.44" xlink:href="#m40145feedb" y="68.089396"/>
     <use style="fill:#ff8c00;stroke:#ff8c00;" x="74.4192" xlink:href="#m40145feedb" y="67.154513"/>
     <use style="fill:#ff8c00;stroke:#ff8c00;" x="75.3984" xlink:href="#m40145feedb" y="68.03082"/>
     <use style="fill:#ff8c00;stroke:#ff8c00;" x="76.3776" xlink:href="#m40145feedb" y="68.383459"/>
     <use style="fill:#ff8c00;stroke:#ff8c00;" x="77.3568" xlink:href="#m40145feedb" y="68.553394"/>
     <use style="fill:#ff8c00;stroke:#ff8c00;" x="78.336" xlink:href="#m40145feedb" y="68.564839"/>
     <use style="fill:#ff8c00;stroke:#ff8c00;" x="79.3152" xlink:href="#m40145feedb" y="68.549907"/>
     <use style="fill:#ff8c00;stroke:#ff8c00;" x="80.2944" xlink:href="#m40145feedb" y="68.564623"/>
     <use style="fill:#ff8c00;stroke:#ff8c00;" x="81.2736" xlink:href="#m40145feedb" y="68.078435"/>
     <use style="fill:#ff8c00;stroke:#ff8c00;" x="82.2528" xlink:href="#m40145feedb" y="68.077473"/>
     <use style="fill:#ff8c00;stroke:#ff8c00;" x="83.232" xlink:href="#m40145feedb" y="68.321587"/>
     <use style="fill:#ff8c00;stroke:#ff8c00;" x="84.2112" xlink:href="#m40145feedb" y="68.501008"/>
     <use style="fill:#ff8c00;stroke:#ff8c00;" x="85.1904" xlink:href="#m40145feedb" y="68.544905"/>
     <use style="fill:#ff8c00;stroke:#ff8c00;" x="86.1696" xlink:href="#m40145feedb" y="68.464427"/>
     <use style="fill:#ff8c00;stroke:#ff8c00;" x="87.1488" xlink:href="#m40145feedb" y="68.12137"/>
     <use style="fill:#ff8c00;stroke:#ff8c00;" x="88.128" xlink:href="#m40145feedb" y="68.21036"/>
     <use style="fill:#ff8c00;stroke:#ff8c00;" x="89.1072" xlink:href="#m40145feedb" y="68.283979"/>
     <use style="fill:#ff8c00;stroke:#ff8c00;" x="90.0864" xlink:href="#m40145feedb" y="68.346319"/>
     <use style="fill:#ff8c00;stroke:#ff8c00;" x="91.0656" xlink:href="#m40145feedb" y="68.302141"/>
     <use style="fill:#ff8c00;stroke:#ff8c00;" x="92.0448" xlink:href="#m40145feedb" y="68.134986"/>
     <use style="fill:#ff8c00;stroke:#ff8c00;" x="93.024" xlink:href="#m40145feedb" y="68.326203"/>
     <use style="fill:#ff8c00;stroke:#ff8c00;" x="94.0032" xlink:href="#m40145feedb" y="68.279944"/>
     <use style="fill:#ff8c00;stroke:#ff8c00;" x="94.9824" xlink:href="#m40145feedb" y="68.287497"/>
     <use style="fill:#ff8c00;stroke:#ff8c00;" x="95.9616" xlink:href="#m40145feedb" y="68.225223"/>
     <use style="fill:#ff8c00;stroke:#ff8c00;" x="96.9408" xlink:href="#m40145feedb" y="68.279828"/>
     <use style="fill:#ff8c00;stroke:#ff8c00;" x="97.92" xlink:href="#m40145feedb" y="68.216886"/>
     <use style="fill:#ff8c00;stroke:#ff8c00;" x="98.8992" xlink:href="#m40145feedb" y="67.960076"/>
     <use style="fill:#ff8c00;stroke:#ff8c00;" x="99.8784" xlink:href="#m40145feedb" y="68.290025"/>
     <use style="fill:#ff8c00;stroke:#ff8c00;" x="100.8576" xlink:href="#m40145feedb" y="68.250042"/>
     <use style="fill:#ff8c00;stroke:#ff8c00;" x="101.8368" xlink:href="#m40145feedb" y="68.301278"/>
     <use style="fill:#ff8c00;stroke:#ff8c00;" x="102.816" xlink:href="#m40145feedb" y="68.291565"/>
     <use style="fill:#ff8c00;stroke:#ff8c00;" x="103.7952" xlink:href="#m40145feedb" y="68.094168"/>
     <use style="fill:#ff8c00;stroke:#ff8c00;" x="104.7744" xlink:href="#m40145feedb" y="67.710737"/>
     <use style="fill:#ff8c00;stroke:#ff8c00;" x="105.7536" xlink:href="#m40145feedb" y="68.101386"/>
     <use style="fill:#ff8c00;stroke:#ff8c00;" x="106.7328" xlink:href="#m40145feedb" y="68.291913"/>
     <use style="fill:#ff8c00;stroke:#ff8c00;" x="107.712" xlink:href="#m40145feedb" y="68.275207"/>
     <use style="fill:#ff8c00;stroke:#ff8c00;" x="108.6912" xlink:href="#m40145feedb" y="68.16137"/>
     <use style="fill:#ff8c00;stroke:#ff8c00;" x="109.6704" xlink:href="#m40145feedb" y="67.995945"/>
     <use style="fill:#ff8c00;stroke:#ff8c00;" x="110.6496" xlink:href="#m40145feedb" y="68.097819"/>
     <use style="fill:#ff8c00;stroke:#ff8c00;" x="111.6288" xlink:href="#m40145feedb" y="68.126498"/>
     <use style="fill:#ff8c00;stroke:#ff8c00;" x="112.608" xlink:href="#m40145feedb" y="68.125394"/>
     <use style="fill:#ff8c00;stroke:#ff8c00;" x="113.5872" xlink:href="#m40145feedb" y="68.189636"/>
     <use style="fill:#ff8c00;stroke:#ff8c00;" x="114.5664" xlink:href="#m40145feedb" y="67.957302"/>
     <use style="fill:#ff8c00;stroke:#ff8c00;" x="115.5456" xlink:href="#m40145feedb" y="68.045092"/>
     <use style="fill:#ff8c00;stroke:#ff8c00;" x="116.5248" xlink:href="#m40145feedb" y="68.617551"/>
     <use style="fill:#ff8c00;stroke:#ff8c00;" x="117.504" xlink:href="#m40145feedb" y="68.956123"/>
     <use style="fill:#ff8c00;stroke:#ff8c00;" x="118.4832" xlink:href="#m40145feedb" y="69.062979"/>
    </g>
   </g>
   <g id="patch_3">
    <path d="M 44.064 69.3 
L 44.064 9.9 
" style="fill:none;stroke:#000000;stroke-linecap:square;stroke-linejoin:miter;stroke-width:0.8;"/>
   </g>
   <g id="patch_4">
    <path d="M 151.776 69.3 
L 151.776 9.9 
" style="fill:none;stroke:#000000;stroke-linecap:square;stroke-linejoin:miter;stroke-width:0.8;"/>
   </g>
   <g id="patch_5">
    <path d="M 44.064 69.3 
L 151.776 69.3 
" style="fill:none;stroke:#000000;stroke-linecap:square;stroke-linejoin:miter;stroke-width:0.8;"/>
   </g>
   <g id="patch_6">
    <path d="M 44.064 9.9 
L 151.776 9.9 
" style="fill:none;stroke:#000000;stroke-linecap:square;stroke-linejoin:miter;stroke-width:0.8;"/>
   </g>
   <g id="legend_1">
    <g id="patch_7">
     <path d="M 163.4616 64.004766 
L 240.5016 64.004766 
Q 242.3016 64.004766 242.3016 62.204766 
L 242.3016 16.995234 
Q 242.3016 15.195234 240.5016 15.195234 
L 163.4616 15.195234 
Q 161.6616 15.195234 161.6616 16.995234 
L 161.6616 62.204766 
Q 161.6616 64.004766 163.4616 64.004766 
z
" style="fill:#ffffff;stroke:#cccccc;stroke-linejoin:miter;"/>
    </g>
    <g id="line2d_27">
     <path d="M 165.2616 22.483828 
L 183.2616 22.483828 
" style="fill:none;stroke:#0000ff;stroke-dasharray:1,1.65;stroke-dashoffset:0;"/>
    </g>
    <g id="line2d_28">
     <g>
      <use style="fill:#0000ff;stroke:#0000ff;stroke-linejoin:miter;" x="174.2616" xlink:href="#m1bb12ff067" y="22.483828"/>
     </g>
    </g>
    <g id="text_14">
     <!-- $\mathrm{Initial\ data}$ -->
     <defs>
      <path d="M 2.59375 0 
L 2.59375 3.515625 
Q 13.375 3.515625 13.375 6.6875 
L 13.375 61.625 
Q 13.375 64.796875 2.59375 64.796875 
L 2.59375 68.3125 
L 33.5 68.3125 
L 33.5 64.796875 
Q 22.703125 64.796875 22.703125 61.625 
L 22.703125 6.6875 
Q 22.703125 3.515625 33.5 3.515625 
L 33.5 0 
z
" id="Cmr10-73"/>
      <path d="M 2.984375 0 
L 2.984375 3.515625 
Q 6.390625 3.515625 8.59375 4.046875 
Q 10.796875 4.59375 10.796875 6.6875 
L 10.796875 33.984375 
Q 10.796875 36.671875 9.984375 37.859375 
Q 9.1875 39.0625 7.671875 39.328125 
Q 6.15625 39.59375 2.984375 39.59375 
L 2.984375 43.109375 
L 17.484375 44.1875 
L 17.484375 34.421875 
Q 19.484375 38.71875 23.40625 41.453125 
Q 27.34375 44.1875 31.984375 44.1875 
Q 38.921875 44.1875 42.40625 40.859375 
Q 45.90625 37.546875 45.90625 30.71875 
L 45.90625 6.6875 
Q 45.90625 4.59375 48.09375 4.046875 
Q 50.296875 3.515625 53.71875 3.515625 
L 53.71875 0 
L 30.8125 0 
L 30.8125 3.515625 
Q 34.234375 3.515625 36.421875 4.046875 
Q 38.625 4.59375 38.625 6.6875 
L 38.625 30.421875 
Q 38.625 35.296875 37.203125 38.453125 
Q 35.796875 41.609375 31.390625 41.609375 
Q 25.59375 41.609375 21.84375 36.96875 
Q 18.109375 32.328125 18.109375 26.421875 
L 18.109375 6.6875 
Q 18.109375 4.59375 20.3125 4.046875 
Q 22.515625 3.515625 25.875 3.515625 
L 25.875 0 
z
" id="Cmr10-110"/>
      <path d="M 4 9.8125 
Q 4 15.765625 8.6875 19.5 
Q 13.375 23.25 19.9375 24.78125 
Q 26.515625 26.3125 32.421875 26.3125 
L 32.421875 30.421875 
Q 32.421875 33.296875 31.15625 36 
Q 29.890625 38.71875 27.484375 40.453125 
Q 25.09375 42.1875 22.21875 42.1875 
Q 15.578125 42.1875 12.109375 39.203125 
Q 14.015625 39.203125 15.25 37.765625 
Q 16.5 36.328125 16.5 34.421875 
Q 16.5 32.421875 15.078125 31 
Q 13.671875 29.59375 11.71875 29.59375 
Q 9.71875 29.59375 8.296875 31 
Q 6.890625 32.421875 6.890625 34.421875 
Q 6.890625 39.703125 11.671875 42.265625 
Q 16.453125 44.828125 22.21875 44.828125 
Q 26.265625 44.828125 30.359375 43.09375 
Q 34.46875 41.359375 37.078125 38.125 
Q 39.703125 34.90625 39.703125 30.609375 
L 39.703125 8.109375 
Q 39.703125 6.15625 40.53125 4.515625 
Q 41.359375 2.875 43.109375 2.875 
Q 44.78125 2.875 45.578125 4.53125 
Q 46.390625 6.203125 46.390625 8.109375 
L 46.390625 14.5 
L 49.3125 14.5 
L 49.3125 8.109375 
Q 49.3125 5.859375 48.140625 3.828125 
Q 46.96875 1.8125 44.984375 0.609375 
Q 43.015625 -0.59375 40.71875 -0.59375 
Q 37.796875 -0.59375 35.671875 1.671875 
Q 33.546875 3.953125 33.296875 7.078125 
Q 31.453125 3.328125 27.828125 1.09375 
Q 24.21875 -1.125 20.125 -1.125 
Q 16.3125 -1.125 12.625 0 
Q 8.9375 1.125 6.46875 3.53125 
Q 4 5.953125 4 9.8125 
z
M 12.109375 9.8125 
Q 12.109375 6.296875 14.6875 3.90625 
Q 17.28125 1.515625 20.796875 1.515625 
Q 24.03125 1.515625 26.65625 3.125 
Q 29.296875 4.734375 30.859375 7.515625 
Q 32.421875 10.296875 32.421875 13.375 
L 32.421875 23.78125 
Q 27.875 23.78125 23.109375 22.28125 
Q 18.359375 20.796875 15.234375 17.625 
Q 12.109375 14.453125 12.109375 9.8125 
z
" id="Cmr10-97"/>
      <path d="M 3.078125 0 
L 3.078125 3.515625 
Q 6.5 3.515625 8.6875 4.046875 
Q 10.890625 4.59375 10.890625 6.6875 
L 10.890625 59.1875 
Q 10.890625 61.859375 10.078125 63.0625 
Q 9.28125 64.265625 7.765625 64.53125 
Q 6.25 64.796875 3.078125 64.796875 
L 3.078125 68.3125 
L 17.921875 69.390625 
L 17.921875 6.6875 
Q 17.921875 4.59375 20.109375 4.046875 
Q 22.3125 3.515625 25.6875 3.515625 
L 25.6875 0 
z
" id="Cmr10-108"/>
      <path d="M 24.421875 -1.125 
Q 18.5 -1.125 13.609375 2.078125 
Q 8.734375 5.28125 6.03125 10.5 
Q 3.328125 15.71875 3.328125 21.578125 
Q 3.328125 27.640625 6.28125 32.828125 
Q 9.234375 38.03125 14.3125 41.109375 
Q 19.390625 44.1875 25.484375 44.1875 
Q 29.15625 44.1875 32.421875 42.640625 
Q 35.6875 41.109375 38.09375 38.375 
L 38.09375 59.1875 
Q 38.09375 61.859375 37.28125 63.0625 
Q 36.46875 64.265625 34.984375 64.53125 
Q 33.5 64.796875 30.328125 64.796875 
L 30.328125 68.3125 
L 45.125 69.390625 
L 45.125 9.078125 
Q 45.125 6.453125 45.921875 5.25 
Q 46.734375 4.046875 48.21875 3.78125 
Q 49.703125 3.515625 52.875 3.515625 
L 52.875 0 
L 37.796875 -1.125 
L 37.796875 5.171875 
Q 35.203125 2.203125 31.640625 0.53125 
Q 28.078125 -1.125 24.421875 -1.125 
z
M 14.203125 8.6875 
Q 15.921875 5.421875 18.765625 3.46875 
Q 21.625 1.515625 25 1.515625 
Q 29.15625 1.515625 32.609375 3.90625 
Q 36.078125 6.296875 37.796875 10.109375 
L 37.796875 34.078125 
Q 36.625 36.28125 34.84375 38.015625 
Q 33.0625 39.75 30.828125 40.671875 
Q 28.609375 41.609375 26.125 41.609375 
Q 20.90625 41.609375 17.71875 38.640625 
Q 14.546875 35.6875 13.28125 31.09375 
Q 12.015625 26.515625 12.015625 21.484375 
Q 12.015625 17.484375 12.421875 14.5 
Q 12.84375 11.53125 14.203125 8.6875 
z
" id="Cmr10-100"/>
     </defs>
     <g transform="translate(190.4616 25.633828)scale(0.09 -0.09)">
      <use transform="translate(0 0.609375)" xlink:href="#Cmr10-73"/>
      <use transform="translate(36.083984 0.609375)" xlink:href="#Cmr10-110"/>
      <use transform="translate(91.601562 0.609375)" xlink:href="#Cmr10-105"/>
      <use transform="translate(119.287109 0.609375)" xlink:href="#Cmr10-116"/>
      <use transform="translate(158.105469 0.609375)" xlink:href="#Cmr10-105"/>
      <use transform="translate(185.791016 0.609375)" xlink:href="#Cmr10-97"/>
      <use transform="translate(235.791016 0.609375)" xlink:href="#Cmr10-108"/>
      <use transform="translate(291.243212 0.609375)" xlink:href="#Cmr10-100"/>
      <use transform="translate(346.76079 0.609375)" xlink:href="#Cmr10-97"/>
      <use transform="translate(396.76079 0.609375)" xlink:href="#Cmr10-116"/>
      <use transform="translate(435.579149 0.609375)" xlink:href="#Cmr10-97"/>
     </g>
    </g>
    <g id="line2d_29">
     <path d="M 165.2616 33.444141 
L 183.2616 33.444141 
" style="fill:none;stroke:#00bfff;stroke-dasharray:1,1.65;stroke-dashoffset:0;"/>
    </g>
    <g id="line2d_30">
     <g>
      <use style="fill:#00bfff;stroke:#00bfff;stroke-linejoin:miter;" x="174.2616" xlink:href="#m383bbe2e4f" y="33.444141"/>
     </g>
    </g>
    <g id="text_15">
     <!-- $\mathrm{Opt.\ traj.}$ -->
     <defs>
      <path d="M 38.921875 -2.203125 
Q 29.390625 -2.203125 21.796875 2.84375 
Q 14.203125 7.90625 9.90625 16.28125 
Q 5.609375 24.65625 5.609375 33.890625 
Q 5.609375 40.71875 8.078125 47.40625 
Q 10.546875 54.109375 14.96875 59.28125 
Q 19.390625 64.453125 25.578125 67.484375 
Q 31.78125 70.515625 38.921875 70.515625 
Q 46 70.515625 52.21875 67.453125 
Q 58.453125 64.40625 62.890625 59.171875 
Q 67.328125 53.953125 69.71875 47.453125 
Q 72.125 40.96875 72.125 33.890625 
Q 72.125 24.65625 67.828125 16.28125 
Q 63.53125 7.90625 55.90625 2.84375 
Q 48.296875 -2.203125 38.921875 -2.203125 
z
M 22.3125 10.796875 
Q 25.25 6.203125 29.546875 3.484375 
Q 33.84375 0.78125 38.921875 0.78125 
Q 42.1875 0.78125 45.328125 2.09375 
Q 48.484375 3.421875 51.046875 5.71875 
Q 53.609375 8.015625 55.421875 10.796875 
Q 61.375 19.78125 61.375 35.5 
Q 61.375 49.90625 55.421875 58.296875 
Q 52.484375 62.5 48.109375 65.03125 
Q 43.75 67.578125 38.921875 67.578125 
Q 34.03125 67.578125 29.640625 65.03125 
Q 25.25 62.5 22.3125 58.296875 
Q 19.96875 55.03125 18.671875 51.34375 
Q 17.390625 47.65625 16.84375 43.703125 
Q 16.3125 39.75 16.3125 35.5 
Q 16.3125 30.953125 16.8125 26.625 
Q 17.328125 22.3125 18.71875 18.15625 
Q 20.125 14.015625 22.3125 10.796875 
z
" id="Cmr10-79"/>
      <path d="M 8.40625 5.515625 
Q 8.40625 7.765625 10.0625 9.375 
Q 11.71875 10.984375 13.921875 10.984375 
Q 15.28125 10.984375 16.59375 10.25 
Q 17.921875 9.515625 18.65625 8.203125 
Q 19.390625 6.890625 19.390625 5.515625 
Q 19.390625 3.328125 17.765625 1.65625 
Q 16.15625 0 13.921875 0 
Q 11.71875 0 10.0625 1.65625 
Q 8.40625 3.328125 8.40625 5.515625 
z
" id="Cmmi10-58"/>
      <path d="M 2.59375 0 
L 2.59375 3.515625 
Q 6 3.515625 8.203125 4.046875 
Q 10.40625 4.59375 10.40625 6.6875 
L 10.40625 33.984375 
Q 10.40625 36.671875 9.59375 37.859375 
Q 8.796875 39.0625 7.28125 39.328125 
Q 5.765625 39.59375 2.59375 39.59375 
L 2.59375 43.109375 
L 16.890625 44.1875 
L 16.890625 34.421875 
Q 18.5 38.765625 21.484375 41.46875 
Q 24.46875 44.1875 28.71875 44.1875 
Q 31.6875 44.1875 34.03125 42.421875 
Q 36.375 40.671875 36.375 37.796875 
Q 36.375 35.984375 35.078125 34.640625 
Q 33.796875 33.296875 31.890625 33.296875 
Q 30.03125 33.296875 28.703125 34.609375 
Q 27.390625 35.9375 27.390625 37.796875 
Q 27.390625 40.484375 29.296875 41.609375 
L 28.71875 41.609375 
Q 24.65625 41.609375 22.09375 38.671875 
Q 19.53125 35.75 18.453125 31.390625 
Q 17.390625 27.046875 17.390625 23.09375 
L 17.390625 6.6875 
Q 17.390625 3.515625 27.09375 3.515625 
L 27.09375 0 
z
" id="Cmr10-114"/>
      <path d="M 2 -16.796875 
Q 4.296875 -17.921875 7.171875 -17.921875 
Q 11.140625 -17.921875 12.671875 -13.890625 
Q 14.203125 -9.859375 14.203125 -5.171875 
L 14.203125 33.984375 
Q 14.203125 36.671875 13.21875 37.859375 
Q 12.25 39.0625 10.5625 39.328125 
Q 8.890625 39.59375 5.609375 39.59375 
L 5.609375 43.109375 
L 21.1875 44.1875 
L 21.1875 -5.609375 
Q 21.1875 -9.46875 19.28125 -12.90625 
Q 17.390625 -16.359375 14.109375 -18.4375 
Q 10.84375 -20.515625 6.984375 -20.515625 
Q 2.640625 -20.515625 -0.875 -18.359375 
Q -4.390625 -16.21875 -4.390625 -12.3125 
Q -4.390625 -10.359375 -2.96875 -8.9375 
Q -1.5625 -7.515625 0.390625 -7.515625 
Q 2.34375 -7.515625 3.75 -8.9375 
Q 5.171875 -10.359375 5.171875 -12.3125 
Q 5.171875 -13.8125 4.3125 -15.078125 
Q 3.46875 -16.359375 2 -16.796875 
z
M 10.203125 61.375 
Q 10.203125 63.578125 11.859375 65.234375 
Q 13.53125 66.890625 15.71875 66.890625 
Q 17.09375 66.890625 18.40625 66.15625 
Q 19.734375 65.4375 20.453125 64.109375 
Q 21.1875 62.796875 21.1875 61.375 
Q 21.1875 59.234375 19.578125 57.5625 
Q 17.96875 55.90625 15.71875 55.90625 
Q 13.53125 55.90625 11.859375 57.5625 
Q 10.203125 59.234375 10.203125 61.375 
z
" id="Cmr10-106"/>
     </defs>
     <g transform="translate(190.4616 36.594141)scale(0.09 -0.09)">
      <use transform="translate(0 0.484375)" xlink:href="#Cmr10-79"/>
      <use transform="translate(77.685547 0.484375)" xlink:href="#Cmr10-112"/>
      <use transform="translate(133.203125 0.484375)" xlink:href="#Cmr10-116"/>
      <use transform="translate(172.021484 0.484375)" xlink:href="#Cmmi10-58"/>
      <use transform="translate(244.133837 0.484375)" xlink:href="#Cmr10-116"/>
      <use transform="translate(282.952196 0.484375)" xlink:href="#Cmr10-114"/>
      <use transform="translate(322.063524 0.484375)" xlink:href="#Cmr10-97"/>
      <use transform="translate(372.063524 0.484375)" xlink:href="#Cmr10-106"/>
      <use transform="translate(402.581103 0.484375)" xlink:href="#Cmmi10-58"/>
     </g>
    </g>
    <g id="line2d_31">
     <path d="M 165.2616 44.422734 
L 183.2616 44.422734 
" style="fill:none;stroke:#708090;stroke-dasharray:1,1.65;stroke-dashoffset:0;"/>
    </g>
    <g id="line2d_32">
     <g>
      <use style="fill:#708090;stroke:#708090;" x="174.2616" xlink:href="#m99da1635f1" y="44.422734"/>
     </g>
    </g>
    <g id="text_16">
     <!-- $\mathrm{CGP-LCB}$ -->
     <defs>
      <path d="M 23 10.6875 
Q 26.609375 6.296875 31.8125 3.796875 
Q 37.015625 1.3125 42.671875 1.3125 
Q 48.25 1.3125 52.78125 4.140625 
Q 57.328125 6.984375 57.328125 12.203125 
L 57.328125 20.609375 
Q 57.328125 23.78125 44.828125 23.78125 
L 44.828125 27.296875 
L 73.484375 27.296875 
L 73.484375 23.78125 
Q 70.3125 23.78125 68.453125 23.234375 
Q 66.609375 22.703125 66.609375 20.609375 
L 66.609375 0.875 
Q 66.609375 0.53125 66.328125 0.265625 
Q 66.0625 0 65.71875 0 
Q 64.796875 0 62.625 2.1875 
Q 60.453125 4.390625 59.1875 6.109375 
Q 56.734375 1.90625 51.515625 -0.140625 
Q 46.296875 -2.203125 40.578125 -2.203125 
Q 30.859375 -2.203125 22.875 2.796875 
Q 14.890625 7.8125 10.25 16.1875 
Q 5.609375 24.5625 5.609375 34.1875 
Q 5.609375 41.265625 8.296875 47.953125 
Q 10.984375 54.640625 15.796875 59.71875 
Q 20.609375 64.796875 27 67.65625 
Q 33.40625 70.515625 40.578125 70.515625 
Q 45.75 70.515625 50.359375 68.28125 
Q 54.984375 66.0625 58.59375 62.015625 
L 64.40625 70.21875 
Q 64.984375 70.515625 65.09375 70.515625 
L 65.828125 70.515625 
Q 66.109375 70.515625 66.359375 70.265625 
Q 66.609375 70.015625 66.609375 69.671875 
L 66.609375 42.671875 
Q 66.609375 41.796875 65.828125 41.796875 
L 64.015625 41.796875 
Q 63.09375 41.796875 63.09375 42.671875 
Q 63.09375 45.5625 61.9375 49.125 
Q 60.796875 52.6875 59.015625 55.875 
Q 57.234375 59.078125 54.890625 61.53125 
Q 49.265625 67 42 67 
Q 36.421875 67 31.34375 64.5 
Q 26.265625 62.015625 22.796875 57.625 
Q 19.140625 52.9375 17.71875 46.953125 
Q 16.3125 40.96875 16.3125 34.1875 
Q 16.3125 18.84375 23 10.6875 
z
" id="Cmr10-71"/>
      <path d="M 3.328125 0 
L 3.328125 3.515625 
Q 13.625 3.515625 13.625 6.6875 
L 13.625 61.625 
Q 13.625 64.796875 3.328125 64.796875 
L 3.328125 68.3125 
L 38.921875 68.3125 
Q 44.390625 68.3125 49.859375 66.0625 
Q 55.328125 63.8125 58.859375 59.515625 
Q 62.40625 55.21875 62.40625 49.515625 
Q 62.40625 43.953125 58.84375 39.75 
Q 55.28125 35.546875 49.859375 33.375 
Q 44.4375 31.203125 38.921875 31.203125 
L 22.90625 31.203125 
L 22.90625 6.6875 
Q 22.90625 3.515625 33.203125 3.515625 
L 33.203125 0 
z
M 22.609375 34.1875 
L 36.1875 34.1875 
Q 41.703125 34.1875 45.109375 35.765625 
Q 48.53125 37.359375 50.109375 40.703125 
Q 51.703125 44.046875 51.703125 49.515625 
Q 51.703125 57.671875 48.109375 61.234375 
Q 44.53125 64.796875 36.1875 64.796875 
L 27.6875 64.796875 
Q 25.875 64.796875 24.875 64.640625 
Q 23.875 64.5 23.234375 63.796875 
Q 22.609375 63.09375 22.609375 61.625 
z
" id="Cmr10-80"/>
      <path d="M 10.203125 23 
Q 9.375 23 8.828125 23.625 
Q 8.296875 24.265625 8.296875 25 
Q 8.296875 25.734375 8.828125 26.359375 
Q 9.375 27 10.203125 27 
L 67.578125 27 
Q 68.359375 27 68.875 26.359375 
Q 69.390625 25.734375 69.390625 25 
Q 69.390625 24.265625 68.875 23.625 
Q 68.359375 23 67.578125 23 
z
" id="Cmsy10-161"/>
      <path d="M 3.078125 0 
L 3.078125 3.515625 
Q 13.375 3.515625 13.375 6.6875 
L 13.375 61.625 
Q 13.375 64.796875 3.078125 64.796875 
L 3.078125 68.3125 
L 35.5 68.3125 
L 35.5 64.796875 
Q 22.703125 64.796875 22.703125 61.625 
L 22.703125 6.6875 
Q 22.703125 4.546875 23.921875 4.03125 
Q 25.140625 3.515625 27.78125 3.515625 
L 35.5 3.515625 
Q 42.96875 3.515625 47.015625 6.25 
Q 51.078125 8.984375 52.75 13.6875 
Q 54.4375 18.40625 55.328125 26.21875 
L 58.203125 26.21875 
L 55.421875 0 
z
" id="Cmr10-76"/>
      <path d="M 3.421875 0 
L 3.421875 3.515625 
Q 13.71875 3.515625 13.71875 6.6875 
L 13.71875 61.625 
Q 13.71875 64.796875 3.421875 64.796875 
L 3.421875 68.3125 
L 40.1875 68.3125 
Q 45.265625 68.3125 50.4375 66.328125 
Q 55.609375 64.359375 59 60.46875 
Q 62.40625 56.59375 62.40625 51.3125 
Q 62.40625 45.21875 57.390625 41.09375 
Q 52.390625 36.96875 45.703125 35.6875 
Q 50.046875 35.6875 54.640625 33.296875 
Q 59.234375 30.90625 62.15625 26.90625 
Q 65.09375 22.90625 65.09375 18.40625 
Q 65.09375 12.9375 61.84375 8.734375 
Q 58.59375 4.546875 53.421875 2.265625 
Q 48.25 0 43.015625 0 
z
M 22.40625 6.6875 
Q 22.40625 4.546875 23.625 4.03125 
Q 24.859375 3.515625 27.484375 3.515625 
L 40.1875 3.515625 
Q 44.09375 3.515625 47.4375 5.5625 
Q 50.78125 7.625 52.734375 11.0625 
Q 54.6875 14.5 54.6875 18.40625 
Q 54.6875 22.21875 53.078125 25.859375 
Q 51.46875 29.5 48.453125 31.84375 
Q 45.453125 34.1875 41.609375 34.1875 
L 22.40625 34.1875 
z
M 22.40625 36.8125 
L 37.40625 36.8125 
Q 40.4375 36.8125 43.09375 37.90625 
Q 45.75 39.015625 47.875 41.09375 
Q 50 43.171875 51.140625 45.78125 
Q 52.296875 48.390625 52.296875 51.3125 
Q 52.296875 53.90625 51.4375 56.296875 
Q 50.59375 58.6875 48.921875 60.640625 
Q 47.265625 62.59375 45.015625 63.6875 
Q 42.78125 64.796875 40.1875 64.796875 
L 27.484375 64.796875 
Q 25.6875 64.796875 24.6875 64.640625 
Q 23.6875 64.5 23.046875 63.796875 
Q 22.40625 63.09375 22.40625 61.625 
z
" id="Cmr10-66"/>
     </defs>
     <g transform="translate(190.4616 47.572734)scale(0.09 -0.09)">
      <use transform="translate(0 0.484375)" xlink:href="#Cmr10-67"/>
      <use transform="translate(72.216797 0.484375)" xlink:href="#Cmr10-71"/>
      <use transform="translate(150.634766 0.484375)" xlink:href="#Cmr10-80"/>
      <use transform="translate(235.3125 0.484375)" xlink:href="#Cmsy10-161"/>
      <use transform="translate(329.658203 0.484375)" xlink:href="#Cmr10-76"/>
      <use transform="translate(392.158203 0.484375)" xlink:href="#Cmr10-67"/>
      <use transform="translate(464.375 0.484375)" xlink:href="#Cmr10-66"/>
     </g>
    </g>
    <g id="line2d_33">
     <path d="M 165.2616 55.383047 
L 183.2616 55.383047 
" style="fill:none;stroke:#ff8c00;stroke-dasharray:1,1.65;stroke-dashoffset:0;"/>
    </g>
    <g id="line2d_34">
     <g>
      <use style="fill:#ff8c00;stroke:#ff8c00;" x="174.2616" xlink:href="#m40145feedb" y="55.383047"/>
     </g>
    </g>
    <g id="text_17">
     <!-- $\mathrm{C2Opt}$ -->
     <defs>
      <path d="M 4.984375 0 
L 4.984375 2.6875 
Q 4.984375 2.9375 5.171875 3.21875 
L 20.703125 20.40625 
Q 24.21875 24.21875 26.40625 26.796875 
Q 28.609375 29.390625 30.75 32.765625 
Q 32.90625 36.140625 34.15625 39.625 
Q 35.40625 43.109375 35.40625 47.015625 
Q 35.40625 51.125 33.890625 54.859375 
Q 32.375 58.59375 29.375 60.84375 
Q 26.375 63.09375 22.125 63.09375 
Q 17.78125 63.09375 14.3125 60.46875 
Q 10.84375 57.859375 9.421875 53.71875 
Q 9.8125 53.8125 10.5 53.8125 
Q 12.75 53.8125 14.328125 52.296875 
Q 15.921875 50.78125 15.921875 48.390625 
Q 15.921875 46.09375 14.328125 44.5 
Q 12.75 42.921875 10.5 42.921875 
Q 8.15625 42.921875 6.5625 44.546875 
Q 4.984375 46.1875 4.984375 48.390625 
Q 4.984375 52.15625 6.390625 55.4375 
Q 7.8125 58.734375 10.46875 61.296875 
Q 13.140625 63.875 16.484375 65.234375 
Q 19.828125 66.609375 23.578125 66.609375 
Q 29.296875 66.609375 34.21875 64.1875 
Q 39.15625 61.765625 42.03125 57.34375 
Q 44.921875 52.9375 44.921875 47.015625 
Q 44.921875 42.671875 43.015625 38.765625 
Q 41.109375 34.859375 38.125 31.65625 
Q 35.15625 28.46875 30.515625 24.40625 
Q 25.875 20.359375 24.421875 19 
L 13.09375 8.109375 
L 22.703125 8.109375 
Q 29.78125 8.109375 34.546875 8.21875 
Q 39.3125 8.34375 39.59375 8.59375 
Q 40.765625 9.859375 42 17.828125 
L 44.921875 17.828125 
L 42.09375 0 
z
" id="Cmr10-50"/>
     </defs>
     <g transform="translate(190.4616 58.533047)scale(0.09 -0.09)">
      <use transform="translate(0 0.484375)" xlink:href="#Cmr10-67"/>
      <use transform="translate(72.216797 0.484375)" xlink:href="#Cmr10-50"/>
      <use transform="translate(122.216797 0.484375)" xlink:href="#Cmr10-79"/>
      <use transform="translate(199.902344 0.484375)" xlink:href="#Cmr10-112"/>
      <use transform="translate(255.419922 0.484375)" xlink:href="#Cmr10-116"/>
     </g>
    </g>
   </g>
  </g>
 </g>
 <defs>
  <clipPath id="p0f35778383">
   <rect height="59.4" width="107.712" x="44.064" y="9.9"/>
  </clipPath>
 </defs>
</svg>
