<?xml version="1.0" encoding="utf-8" standalone="no"?>
<!DOCTYPE svg PUBLIC "-//W3C//DTD SVG 1.1//EN"
  "http://www.w3.org/Graphics/SVG/1.1/DTD/svg11.dtd">
<!-- Created with matplotlib (https://matplotlib.org/) -->
<svg height="99pt" version="1.1" viewBox="0 0 244.8 99" width="244.8pt" xmlns="http://www.w3.org/2000/svg" xmlns:xlink="http://www.w3.org/1999/xlink">
 <defs>
  <style type="text/css">
*{stroke-linecap:butt;stroke-linejoin:round;}
  </style>
 </defs>
 <g id="figure_1">
  <g id="patch_1">
   <path d="M 0 99 
L 244.8 99 
L 244.8 0 
L 0 0 
z
" style="fill:none;"/>
  </g>
  <g id="axes_1">
   <g id="patch_2">
    <path d="M 44.064 69.3 
L 151.776 69.3 
L 151.776 9.9 
L 44.064 9.9 
z
" style="fill:none;"/>
   </g>
   <g id="matplotlib.axis_1">
    <g id="xtick_1">
     <g id="line2d_1">
      <path clip-path="url(#p9f226e6718)" d="M 44.064 69.3 
L 44.064 9.9 
" style="fill:none;stroke:#b0b0b0;stroke-linecap:square;stroke-width:0.8;"/>
     </g>
     <g id="line2d_2">
      <defs>
       <path d="M 0 0 
L 0 3.5 
" id="m3b75244eeb" style="stroke:#000000;stroke-width:0.8;"/>
      </defs>
      <g>
       <use style="stroke:#000000;stroke-width:0.8;" x="44.064" xlink:href="#m3b75244eeb" y="69.3"/>
      </g>
     </g>
     <g id="text_1">
      <!-- 0 -->
      <defs>
       <path d="M 31.78125 3.421875 
Q 39.265625 3.421875 42.96875 11.625 
Q 46.6875 19.828125 46.6875 36.375 
Q 46.6875 52.984375 42.96875 61.1875 
Q 39.265625 69.390625 31.78125 69.390625 
Q 24.3125 69.390625 20.59375 61.1875 
Q 16.890625 52.984375 16.890625 36.375 
Q 16.890625 19.828125 20.59375 11.625 
Q 24.3125 3.421875 31.78125 3.421875 
z
M 31.78125 -1.421875 
Q 19.921875 -1.421875 13.25 8.53125 
Q 6.59375 18.5 6.59375 36.375 
Q 6.59375 54.296875 13.25 64.25 
Q 19.921875 74.21875 31.78125 74.21875 
Q 43.703125 74.21875 50.34375 64.25 
Q 56.984375 54.296875 56.984375 36.375 
Q 56.984375 18.5 50.34375 8.53125 
Q 43.703125 -1.421875 31.78125 -1.421875 
z
" id="DejaVuSerif-48"/>
      </defs>
      <g transform="translate(41.200875 83.138594)scale(0.09 -0.09)">
       <use xlink:href="#DejaVuSerif-48"/>
      </g>
     </g>
    </g>
    <g id="xtick_2">
     <g id="line2d_3">
      <path clip-path="url(#p9f226e6718)" d="M 64.387019 69.3 
L 64.387019 9.9 
" style="fill:none;stroke:#b0b0b0;stroke-linecap:square;stroke-width:0.8;"/>
     </g>
     <g id="line2d_4">
      <g>
       <use style="stroke:#000000;stroke-width:0.8;" x="64.387019" xlink:href="#m3b75244eeb" y="69.3"/>
      </g>
     </g>
     <g id="text_2">
      <!-- 20 -->
      <defs>
       <path d="M 12.796875 55.515625 
L 7.328125 55.515625 
L 7.328125 68.5 
Q 12.546875 71.296875 17.84375 72.75 
Q 23.140625 74.21875 28.21875 74.21875 
Q 39.59375 74.21875 46.1875 68.703125 
Q 52.78125 63.1875 52.78125 53.71875 
Q 52.78125 43.015625 37.84375 28.125 
Q 36.671875 27 36.078125 26.421875 
L 17.671875 8.015625 
L 48.09375 8.015625 
L 48.09375 17 
L 53.8125 17 
L 53.8125 0 
L 6.78125 0 
L 6.78125 5.328125 
L 28.90625 27.390625 
Q 36.234375 34.71875 39.359375 40.84375 
Q 42.484375 46.96875 42.484375 53.71875 
Q 42.484375 61.078125 38.640625 65.234375 
Q 34.8125 69.390625 28.078125 69.390625 
Q 21.09375 69.390625 17.28125 65.921875 
Q 13.484375 62.453125 12.796875 55.515625 
z
" id="DejaVuSerif-50"/>
      </defs>
      <g transform="translate(58.660769 83.138594)scale(0.09 -0.09)">
       <use xlink:href="#DejaVuSerif-50"/>
       <use x="63.623047" xlink:href="#DejaVuSerif-48"/>
      </g>
     </g>
    </g>
    <g id="xtick_3">
     <g id="line2d_5">
      <path clip-path="url(#p9f226e6718)" d="M 84.710038 69.3 
L 84.710038 9.9 
" style="fill:none;stroke:#b0b0b0;stroke-linecap:square;stroke-width:0.8;"/>
     </g>
     <g id="line2d_6">
      <g>
       <use style="stroke:#000000;stroke-width:0.8;" x="84.710038" xlink:href="#m3b75244eeb" y="69.3"/>
      </g>
     </g>
     <g id="text_3">
      <!-- 40 -->
      <defs>
       <path d="M 34.90625 24.703125 
L 34.90625 63.484375 
L 10.015625 24.703125 
z
M 56.390625 0 
L 23.1875 0 
L 23.1875 5.171875 
L 34.90625 5.171875 
L 34.90625 19.484375 
L 3.078125 19.484375 
L 3.078125 24.8125 
L 35.015625 74.21875 
L 44.671875 74.21875 
L 44.671875 24.703125 
L 58.59375 24.703125 
L 58.59375 19.484375 
L 44.671875 19.484375 
L 44.671875 5.171875 
L 56.390625 5.171875 
z
" id="DejaVuSerif-52"/>
      </defs>
      <g transform="translate(78.983788 83.138594)scale(0.09 -0.09)">
       <use xlink:href="#DejaVuSerif-52"/>
       <use x="63.623047" xlink:href="#DejaVuSerif-48"/>
      </g>
     </g>
    </g>
    <g id="xtick_4">
     <g id="line2d_7">
      <path clip-path="url(#p9f226e6718)" d="M 105.033057 69.3 
L 105.033057 9.9 
" style="fill:none;stroke:#b0b0b0;stroke-linecap:square;stroke-width:0.8;"/>
     </g>
     <g id="line2d_8">
      <g>
       <use style="stroke:#000000;stroke-width:0.8;" x="105.033057" xlink:href="#m3b75244eeb" y="69.3"/>
      </g>
     </g>
     <g id="text_4">
      <!-- 60 -->
      <defs>
       <path d="M 32.71875 3.421875 
Q 39.59375 3.421875 43.296875 8.46875 
Q 47.015625 13.53125 47.015625 23 
Q 47.015625 32.46875 43.296875 37.515625 
Q 39.59375 42.578125 32.71875 42.578125 
Q 25.734375 42.578125 22.0625 37.6875 
Q 18.40625 32.8125 18.40625 23.578125 
Q 18.40625 13.875 22.109375 8.640625 
Q 25.828125 3.421875 32.71875 3.421875 
z
M 16.796875 40.140625 
Q 20.125 43.796875 24.3125 45.59375 
Q 28.515625 47.40625 33.796875 47.40625 
Q 44.671875 47.40625 51 40.859375 
Q 57.328125 34.328125 57.328125 23 
Q 57.328125 11.921875 50.515625 5.25 
Q 43.703125 -1.421875 32.328125 -1.421875 
Q 19.96875 -1.421875 13.328125 7.78125 
Q 6.6875 17 6.6875 34.078125 
Q 6.6875 53.21875 14.546875 63.71875 
Q 22.40625 74.21875 36.71875 74.21875 
Q 40.578125 74.21875 44.828125 73.484375 
Q 49.078125 72.75 53.515625 71.296875 
L 53.515625 59.28125 
L 48 59.28125 
Q 47.40625 64.203125 44.234375 66.796875 
Q 41.0625 69.390625 35.6875 69.390625 
Q 26.21875 69.390625 21.578125 62.203125 
Q 16.9375 55.03125 16.796875 40.140625 
z
" id="DejaVuSerif-54"/>
      </defs>
      <g transform="translate(99.306807 83.138594)scale(0.09 -0.09)">
       <use xlink:href="#DejaVuSerif-54"/>
       <use x="63.623047" xlink:href="#DejaVuSerif-48"/>
      </g>
     </g>
    </g>
    <g id="xtick_5">
     <g id="line2d_9">
      <path clip-path="url(#p9f226e6718)" d="M 125.356075 69.3 
L 125.356075 9.9 
" style="fill:none;stroke:#b0b0b0;stroke-linecap:square;stroke-width:0.8;"/>
     </g>
     <g id="line2d_10">
      <g>
       <use style="stroke:#000000;stroke-width:0.8;" x="125.356075" xlink:href="#m3b75244eeb" y="69.3"/>
      </g>
     </g>
     <g id="text_5">
      <!-- 80 -->
      <defs>
       <path d="M 46.578125 19.921875 
Q 46.578125 27.734375 42.6875 32.046875 
Q 38.8125 36.375 31.78125 36.375 
Q 24.75 36.375 20.875 32.046875 
Q 17 27.734375 17 19.921875 
Q 17 12.0625 20.875 7.734375 
Q 24.75 3.421875 31.78125 3.421875 
Q 38.8125 3.421875 42.6875 7.734375 
Q 46.578125 12.0625 46.578125 19.921875 
z
M 44.578125 55.328125 
Q 44.578125 61.96875 41.203125 65.671875 
Q 37.84375 69.390625 31.78125 69.390625 
Q 25.78125 69.390625 22.390625 65.671875 
Q 19 61.96875 19 55.328125 
Q 19 48.640625 22.390625 44.921875 
Q 25.78125 41.21875 31.78125 41.21875 
Q 37.84375 41.21875 41.203125 44.921875 
Q 44.578125 48.640625 44.578125 55.328125 
z
M 39.3125 38.8125 
Q 47.609375 37.703125 52.25 32.6875 
Q 56.890625 27.6875 56.890625 19.921875 
Q 56.890625 9.671875 50.390625 4.125 
Q 43.890625 -1.421875 31.78125 -1.421875 
Q 19.734375 -1.421875 13.203125 4.125 
Q 6.6875 9.671875 6.6875 19.921875 
Q 6.6875 27.6875 11.328125 32.6875 
Q 15.96875 37.703125 24.3125 38.8125 
Q 16.9375 40.140625 13 44.40625 
Q 9.078125 48.6875 9.078125 55.328125 
Q 9.078125 64.109375 15.125 69.15625 
Q 21.1875 74.21875 31.78125 74.21875 
Q 42.390625 74.21875 48.4375 69.15625 
Q 54.5 64.109375 54.5 55.328125 
Q 54.5 48.6875 50.5625 44.40625 
Q 46.625 40.140625 39.3125 38.8125 
z
" id="DejaVuSerif-56"/>
      </defs>
      <g transform="translate(119.629825 83.138594)scale(0.09 -0.09)">
       <use xlink:href="#DejaVuSerif-56"/>
       <use x="63.623047" xlink:href="#DejaVuSerif-48"/>
      </g>
     </g>
    </g>
    <g id="xtick_6">
     <g id="line2d_11">
      <path clip-path="url(#p9f226e6718)" d="M 145.679094 69.3 
L 145.679094 9.9 
" style="fill:none;stroke:#b0b0b0;stroke-linecap:square;stroke-width:0.8;"/>
     </g>
     <g id="line2d_12">
      <g>
       <use style="stroke:#000000;stroke-width:0.8;" x="145.679094" xlink:href="#m3b75244eeb" y="69.3"/>
      </g>
     </g>
     <g id="text_6">
      <!-- 100 -->
      <defs>
       <path d="M 14.203125 0 
L 14.203125 5.171875 
L 26.90625 5.171875 
L 26.90625 65.828125 
L 12.203125 56.296875 
L 12.203125 62.703125 
L 29.984375 74.21875 
L 36.71875 74.21875 
L 36.71875 5.171875 
L 49.421875 5.171875 
L 49.421875 0 
z
" id="DejaVuSerif-49"/>
      </defs>
      <g transform="translate(137.089719 83.138594)scale(0.09 -0.09)">
       <use xlink:href="#DejaVuSerif-49"/>
       <use x="63.623047" xlink:href="#DejaVuSerif-48"/>
       <use x="127.246094" xlink:href="#DejaVuSerif-48"/>
      </g>
     </g>
    </g>
    <g id="text_7">
     <!-- $\mathrm{Time\ step} $ -->
     <defs>
      <path d="M 16.890625 0 
L 16.890625 3.515625 
Q 21.921875 3.515625 26.65625 4.078125 
Q 31.390625 4.640625 31.390625 6.6875 
L 31.390625 61.625 
Q 31.390625 63.765625 30.1875 64.28125 
Q 29 64.796875 26.3125 64.796875 
L 22.125 64.796875 
Q 13.875 64.796875 10.40625 61.1875 
Q 8.59375 59.375 7.8125 55.390625 
Q 7.03125 51.421875 6.5 45.40625 
L 3.609375 45.40625 
L 5.515625 68.3125 
L 66.609375 68.3125 
L 68.5 45.40625 
L 65.578125 45.40625 
Q 64.984375 51.859375 64.28125 55.640625 
Q 63.578125 59.421875 61.71875 61.1875 
Q 58.203125 64.796875 50 64.796875 
L 45.796875 64.796875 
Q 44 64.796875 43 64.640625 
Q 42 64.5 41.359375 63.796875 
Q 40.71875 63.09375 40.71875 61.625 
L 40.71875 6.6875 
Q 40.71875 4.640625 45.453125 4.078125 
Q 50.203125 3.515625 55.171875 3.515625 
L 55.171875 0 
z
" id="Cmr10-84"/>
      <path d="M 3.078125 0 
L 3.078125 3.515625 
Q 6.5 3.515625 8.6875 4.046875 
Q 10.890625 4.59375 10.890625 6.6875 
L 10.890625 33.984375 
Q 10.890625 37.84375 9.390625 38.71875 
Q 7.90625 39.59375 3.515625 39.59375 
L 3.515625 43.109375 
L 17.921875 44.1875 
L 17.921875 6.6875 
Q 17.921875 4.59375 19.828125 4.046875 
Q 21.734375 3.515625 24.90625 3.515625 
L 24.90625 0 
z
M 7.328125 61.375 
Q 7.328125 63.578125 8.984375 65.234375 
Q 10.640625 66.890625 12.796875 66.890625 
Q 14.203125 66.890625 15.515625 66.15625 
Q 16.84375 65.4375 17.578125 64.109375 
Q 18.3125 62.796875 18.3125 61.375 
Q 18.3125 59.234375 16.640625 57.5625 
Q 14.984375 55.90625 12.796875 55.90625 
Q 10.640625 55.90625 8.984375 57.5625 
Q 7.328125 59.234375 7.328125 61.375 
z
" id="Cmr10-105"/>
      <path d="M 2.984375 0 
L 2.984375 3.515625 
Q 6.390625 3.515625 8.59375 4.046875 
Q 10.796875 4.59375 10.796875 6.6875 
L 10.796875 33.984375 
Q 10.796875 36.671875 9.984375 37.859375 
Q 9.1875 39.0625 7.671875 39.328125 
Q 6.15625 39.59375 2.984375 39.59375 
L 2.984375 43.109375 
L 17.484375 44.1875 
L 17.484375 34.421875 
Q 19.484375 38.71875 23.40625 41.453125 
Q 27.34375 44.1875 31.984375 44.1875 
Q 43.5 44.1875 45.515625 34.8125 
Q 47.515625 39.015625 51.359375 41.59375 
Q 55.21875 44.1875 59.8125 44.1875 
Q 64.359375 44.1875 67.453125 42.71875 
Q 70.5625 41.265625 72.125 38.25 
Q 73.6875 35.25 73.6875 30.71875 
L 73.6875 6.6875 
Q 73.6875 4.59375 75.90625 4.046875 
Q 78.125 3.515625 81.5 3.515625 
L 81.5 0 
L 58.59375 0 
L 58.59375 3.515625 
Q 62.015625 3.515625 64.203125 4.046875 
Q 66.40625 4.59375 66.40625 6.6875 
L 66.40625 30.421875 
Q 66.40625 35.453125 64.984375 38.53125 
Q 63.578125 41.609375 59.1875 41.609375 
Q 53.421875 41.609375 49.65625 36.96875 
Q 45.90625 32.328125 45.90625 26.421875 
L 45.90625 6.6875 
Q 45.90625 4.59375 48.09375 4.046875 
Q 50.296875 3.515625 53.71875 3.515625 
L 53.71875 0 
L 30.8125 0 
L 30.8125 3.515625 
Q 34.234375 3.515625 36.421875 4.046875 
Q 38.625 4.59375 38.625 6.6875 
L 38.625 30.421875 
Q 38.625 35.296875 37.203125 38.453125 
Q 35.796875 41.609375 31.390625 41.609375 
Q 25.59375 41.609375 21.84375 36.96875 
Q 18.109375 32.328125 18.109375 26.421875 
L 18.109375 6.6875 
Q 18.109375 4.59375 20.3125 4.046875 
Q 22.515625 3.515625 25.875 3.515625 
L 25.875 0 
z
" id="Cmr10-109"/>
      <path d="M 24.90625 -1.125 
Q 18.796875 -1.125 13.6875 2.078125 
Q 8.59375 5.28125 5.6875 10.625 
Q 2.78125 15.96875 2.78125 21.921875 
Q 2.78125 27.78125 5.4375 33.046875 
Q 8.109375 38.328125 12.859375 41.578125 
Q 17.625 44.828125 23.484375 44.828125 
Q 28.078125 44.828125 31.46875 43.28125 
Q 34.859375 41.75 37.0625 39.015625 
Q 39.265625 36.28125 40.375 32.5625 
Q 41.5 28.859375 41.5 24.421875 
Q 41.5 23.09375 40.484375 23.09375 
L 11.53125 23.09375 
L 11.53125 22.015625 
Q 11.53125 13.71875 14.875 7.765625 
Q 18.21875 1.8125 25.78125 1.8125 
Q 28.859375 1.8125 31.46875 3.171875 
Q 34.078125 4.546875 36 6.984375 
Q 37.9375 9.421875 38.625 12.203125 
Q 38.71875 12.546875 38.984375 12.8125 
Q 39.265625 13.09375 39.59375 13.09375 
L 40.484375 13.09375 
Q 41.5 13.09375 41.5 11.8125 
Q 40.09375 6.15625 35.40625 2.515625 
Q 30.71875 -1.125 24.90625 -1.125 
z
M 11.625 25.59375 
L 34.421875 25.59375 
Q 34.421875 29.34375 33.375 33.203125 
Q 32.328125 37.0625 29.875 39.625 
Q 27.4375 42.1875 23.484375 42.1875 
Q 17.828125 42.1875 14.71875 36.890625 
Q 11.625 31.59375 11.625 25.59375 
z
" id="Cmr10-101"/>
      <path d="M 3.328125 -0.296875 
L 3.328125 16.015625 
Q 3.328125 16.796875 4.203125 16.796875 
L 5.421875 16.796875 
Q 6 16.796875 6.203125 16.015625 
Q 8.984375 1.515625 19.671875 1.515625 
Q 24.421875 1.515625 27.609375 3.65625 
Q 30.8125 5.8125 30.8125 10.296875 
Q 30.8125 13.53125 28.3125 15.796875 
Q 25.828125 18.0625 22.40625 18.890625 
L 15.71875 20.21875 
Q 12.359375 20.953125 9.59375 22.453125 
Q 6.84375 23.96875 5.078125 26.484375 
Q 3.328125 29 3.328125 32.328125 
Q 3.328125 36.71875 5.640625 39.515625 
Q 7.953125 42.328125 11.65625 43.578125 
Q 15.375 44.828125 19.671875 44.828125 
Q 24.8125 44.828125 28.609375 42.09375 
L 31.5 44.578125 
Q 31.5 44.828125 31.984375 44.828125 
L 32.71875 44.828125 
Q 33.015625 44.828125 33.25 44.546875 
Q 33.5 44.28125 33.5 44 
L 33.5 30.90625 
Q 33.5 29.984375 32.71875 29.984375 
L 31.5 29.984375 
Q 30.609375 29.984375 30.609375 30.90625 
Q 30.609375 36.140625 27.703125 39.3125 
Q 24.8125 42.484375 19.578125 42.484375 
Q 15.09375 42.484375 11.796875 40.8125 
Q 8.5 39.15625 8.5 35.109375 
Q 8.5 32.328125 10.859375 30.546875 
Q 13.234375 28.765625 16.40625 27.984375 
L 23.1875 26.703125 
Q 26.609375 25.921875 29.5625 24.0625 
Q 32.515625 22.21875 34.25 19.375 
Q 35.984375 16.546875 35.984375 12.984375 
Q 35.984375 9.375 34.734375 6.703125 
Q 33.5 4.046875 31.265625 2.28125 
Q 29.046875 0.53125 26.015625 -0.296875 
Q 23 -1.125 19.671875 -1.125 
Q 13.421875 -1.125 8.984375 3.078125 
L 5.328125 -0.875 
Q 5.328125 -1.125 4.78125 -1.125 
L 4.203125 -1.125 
Q 3.328125 -1.125 3.328125 -0.296875 
z
" id="Cmr10-115"/>
      <path d="M 10.203125 12.015625 
L 10.203125 39.59375 
L 1.90625 39.59375 
L 1.90625 42.1875 
Q 8.453125 42.1875 11.515625 48.28125 
Q 14.59375 54.390625 14.59375 61.53125 
L 17.484375 61.53125 
L 17.484375 43.109375 
L 31.59375 43.109375 
L 31.59375 39.59375 
L 17.484375 39.59375 
L 17.484375 12.203125 
Q 17.484375 8.0625 18.875 4.9375 
Q 20.265625 1.8125 23.875 1.8125 
Q 27.296875 1.8125 28.8125 5.109375 
Q 30.328125 8.40625 30.328125 12.203125 
L 30.328125 18.109375 
L 33.203125 18.109375 
L 33.203125 12.015625 
Q 33.203125 8.890625 32.046875 5.828125 
Q 30.90625 2.78125 28.65625 0.828125 
Q 26.421875 -1.125 23.1875 -1.125 
Q 17.1875 -1.125 13.6875 2.46875 
Q 10.203125 6.0625 10.203125 12.015625 
z
" id="Cmr10-116"/>
      <path d="M 2.59375 -19.390625 
L 2.59375 -15.921875 
Q 6 -15.921875 8.203125 -15.328125 
Q 10.40625 -14.75 10.40625 -12.703125 
L 10.40625 35.5 
Q 10.40625 38.234375 8.453125 38.90625 
Q 6.5 39.59375 2.59375 39.59375 
L 2.59375 43.109375 
L 17.390625 44.1875 
L 17.390625 37.984375 
Q 20.125 41.015625 23.75 42.59375 
Q 27.390625 44.1875 31.5 44.1875 
Q 37.40625 44.1875 42.140625 40.984375 
Q 46.875 37.796875 49.53125 32.59375 
Q 52.203125 27.390625 52.203125 21.578125 
Q 52.203125 15.53125 49.25 10.296875 
Q 46.296875 5.078125 41.1875 1.96875 
Q 36.078125 -1.125 29.984375 -1.125 
Q 22.703125 -1.125 17.671875 4.78125 
L 17.671875 -12.703125 
Q 17.671875 -14.75 19.890625 -15.328125 
Q 22.125 -15.921875 25.484375 -15.921875 
L 25.484375 -19.390625 
z
M 17.671875 9.71875 
Q 19.4375 6.15625 22.5625 3.828125 
Q 25.6875 1.515625 29.390625 1.515625 
Q 32.859375 1.515625 35.515625 3.359375 
Q 38.1875 5.21875 39.984375 8.34375 
Q 41.796875 11.46875 42.640625 14.90625 
Q 43.5 18.359375 43.5 21.578125 
Q 43.5 25.59375 42.0625 30.25 
Q 40.625 34.90625 37.671875 38.109375 
Q 34.71875 41.3125 30.515625 41.3125 
Q 26.46875 41.3125 23.0625 39.234375 
Q 19.671875 37.15625 17.671875 33.59375 
z
" id="Cmr10-112"/>
     </defs>
     <g transform="translate(76.22 96.60875)scale(0.1 -0.1)">
      <use transform="translate(0 0.6875)" xlink:href="#Cmr10-84"/>
      <use transform="translate(72.216797 0.6875)" xlink:href="#Cmr10-105"/>
      <use transform="translate(99.902344 0.6875)" xlink:href="#Cmr10-109"/>
      <use transform="translate(183.203125 0.6875)" xlink:href="#Cmr10-101"/>
      <use transform="translate(255.35454 0.6875)" xlink:href="#Cmr10-115"/>
      <use transform="translate(294.758837 0.6875)" xlink:href="#Cmr10-116"/>
      <use transform="translate(333.577196 0.6875)" xlink:href="#Cmr10-101"/>
      <use transform="translate(377.961962 0.6875)" xlink:href="#Cmr10-112"/>
     </g>
    </g>
   </g>
   <g id="matplotlib.axis_2">
    <g id="ytick_1">
     <g id="line2d_13">
      <path clip-path="url(#p9f226e6718)" d="M 44.064 69.3 
L 151.776 69.3 
" style="fill:none;stroke:#b0b0b0;stroke-linecap:square;stroke-width:0.8;"/>
     </g>
     <g id="line2d_14">
      <defs>
       <path d="M 0 0 
L -3.5 0 
" id="me6c3f0be22" style="stroke:#000000;stroke-width:0.8;"/>
      </defs>
      <g>
       <use style="stroke:#000000;stroke-width:0.8;" x="44.064" xlink:href="#me6c3f0be22" y="69.3"/>
      </g>
     </g>
     <g id="text_8">
      <!-- 0.0 -->
      <defs>
       <path d="M 9.421875 5.078125 
Q 9.421875 7.8125 11.28125 9.71875 
Q 13.140625 11.625 15.921875 11.625 
Q 18.609375 11.625 20.5 9.71875 
Q 22.40625 7.8125 22.40625 5.078125 
Q 22.40625 2.390625 20.5 0.484375 
Q 18.609375 -1.421875 15.921875 -1.421875 
Q 13.140625 -1.421875 11.28125 0.453125 
Q 9.421875 2.34375 9.421875 5.078125 
z
" id="DejaVuSerif-46"/>
      </defs>
      <g transform="translate(22.751187 72.719297)scale(0.09 -0.09)">
       <use xlink:href="#DejaVuSerif-48"/>
       <use x="63.623047" xlink:href="#DejaVuSerif-46"/>
       <use x="95.410156" xlink:href="#DejaVuSerif-48"/>
      </g>
     </g>
    </g>
    <g id="ytick_2">
     <g id="line2d_15">
      <path clip-path="url(#p9f226e6718)" d="M 44.064 54.45 
L 151.776 54.45 
" style="fill:none;stroke:#b0b0b0;stroke-linecap:square;stroke-width:0.8;"/>
     </g>
     <g id="line2d_16">
      <g>
       <use style="stroke:#000000;stroke-width:0.8;" x="44.064" xlink:href="#me6c3f0be22" y="54.45"/>
      </g>
     </g>
     <g id="text_9">
      <!-- 6.3 -->
      <defs>
       <path d="M 9.71875 69.828125 
Q 15.4375 71.96875 20.671875 73.09375 
Q 25.921875 74.21875 30.515625 74.21875 
Q 41.21875 74.21875 47.21875 69.59375 
Q 53.21875 64.984375 53.21875 56.78125 
Q 53.21875 50.203125 49.0625 45.78125 
Q 44.921875 41.359375 37.3125 39.796875 
Q 46.296875 38.53125 51.25 33.28125 
Q 56.203125 28.03125 56.203125 19.671875 
Q 56.203125 9.46875 49.34375 4.015625 
Q 42.484375 -1.421875 29.59375 -1.421875 
Q 23.875 -1.421875 18.421875 -0.1875 
Q 12.984375 1.03125 7.625 3.515625 
L 7.625 17.671875 
L 13.09375 17.671875 
Q 13.578125 10.640625 17.828125 7.03125 
Q 22.078125 3.421875 29.78125 3.421875 
Q 37.25 3.421875 41.578125 7.734375 
Q 45.90625 12.0625 45.90625 19.578125 
Q 45.90625 28.171875 41.453125 32.59375 
Q 37.015625 37.015625 28.421875 37.015625 
L 23.78125 37.015625 
L 23.78125 42 
L 26.21875 42 
Q 34.765625 42 39.03125 45.53125 
Q 43.3125 49.078125 43.3125 56.203125 
Q 43.3125 62.59375 39.796875 65.984375 
Q 36.28125 69.390625 29.6875 69.390625 
Q 23.09375 69.390625 19.453125 66.265625 
Q 15.828125 63.140625 15.1875 56.984375 
L 9.71875 56.984375 
z
" id="DejaVuSerif-51"/>
      </defs>
      <g transform="translate(22.751187 57.869297)scale(0.09 -0.09)">
       <use xlink:href="#DejaVuSerif-54"/>
       <use x="63.623047" xlink:href="#DejaVuSerif-46"/>
       <use x="95.410156" xlink:href="#DejaVuSerif-51"/>
      </g>
     </g>
    </g>
    <g id="ytick_3">
     <g id="line2d_17">
      <path clip-path="url(#p9f226e6718)" d="M 44.064 39.6 
L 151.776 39.6 
" style="fill:none;stroke:#b0b0b0;stroke-linecap:square;stroke-width:0.8;"/>
     </g>
     <g id="line2d_18">
      <g>
       <use style="stroke:#000000;stroke-width:0.8;" x="44.064" xlink:href="#me6c3f0be22" y="39.6"/>
      </g>
     </g>
     <g id="text_10">
      <!-- 12.6 -->
      <g transform="translate(17.024937 43.019297)scale(0.09 -0.09)">
       <use xlink:href="#DejaVuSerif-49"/>
       <use x="63.623047" xlink:href="#DejaVuSerif-50"/>
       <use x="127.246094" xlink:href="#DejaVuSerif-46"/>
       <use x="159.033203" xlink:href="#DejaVuSerif-54"/>
      </g>
     </g>
    </g>
    <g id="ytick_4">
     <g id="line2d_19">
      <path clip-path="url(#p9f226e6718)" d="M 44.064 24.75 
L 151.776 24.75 
" style="fill:none;stroke:#b0b0b0;stroke-linecap:square;stroke-width:0.8;"/>
     </g>
     <g id="line2d_20">
      <g>
       <use style="stroke:#000000;stroke-width:0.8;" x="44.064" xlink:href="#me6c3f0be22" y="24.75"/>
      </g>
     </g>
     <g id="text_11">
      <!-- 18.9 -->
      <defs>
       <path d="M 46.78125 32.671875 
Q 43.5 29 39.25 27.1875 
Q 35.015625 25.390625 29.6875 25.390625 
Q 18.84375 25.390625 12.5625 31.9375 
Q 6.296875 38.484375 6.296875 49.8125 
Q 6.296875 60.890625 13.109375 67.546875 
Q 19.921875 74.21875 31.296875 74.21875 
Q 43.65625 74.21875 50.265625 65.015625 
Q 56.890625 55.8125 56.890625 38.71875 
Q 56.890625 19.578125 49.015625 9.078125 
Q 41.15625 -1.421875 26.90625 -1.421875 
Q 23.046875 -1.421875 18.796875 -0.6875 
Q 14.546875 0.046875 10.109375 1.515625 
L 10.109375 13.625 
L 15.578125 13.625 
Q 16.21875 8.6875 19.390625 6.046875 
Q 22.5625 3.421875 27.875 3.421875 
Q 37.359375 3.421875 41.984375 10.5625 
Q 46.625 17.71875 46.78125 32.671875 
z
M 30.90625 69.390625 
Q 23.96875 69.390625 20.28125 64.328125 
Q 16.609375 59.28125 16.609375 49.8125 
Q 16.609375 40.328125 20.28125 35.25 
Q 23.96875 30.171875 30.90625 30.171875 
Q 37.84375 30.171875 41.53125 35.078125 
Q 45.21875 39.984375 45.21875 49.21875 
Q 45.21875 58.9375 41.5 64.15625 
Q 37.796875 69.390625 30.90625 69.390625 
z
" id="DejaVuSerif-57"/>
      </defs>
      <g transform="translate(17.024937 28.169297)scale(0.09 -0.09)">
       <use xlink:href="#DejaVuSerif-49"/>
       <use x="63.623047" xlink:href="#DejaVuSerif-56"/>
       <use x="127.246094" xlink:href="#DejaVuSerif-46"/>
       <use x="159.033203" xlink:href="#DejaVuSerif-57"/>
      </g>
     </g>
    </g>
    <g id="ytick_5">
     <g id="line2d_21">
      <path clip-path="url(#p9f226e6718)" d="M 44.064 9.9 
L 151.776 9.9 
" style="fill:none;stroke:#b0b0b0;stroke-linecap:square;stroke-width:0.8;"/>
     </g>
     <g id="line2d_22">
      <g>
       <use style="stroke:#000000;stroke-width:0.8;" x="44.064" xlink:href="#me6c3f0be22" y="9.9"/>
      </g>
     </g>
     <g id="text_12">
      <!-- 25.2 -->
      <defs>
       <path d="M 50.296875 72.90625 
L 50.296875 64.890625 
L 16.890625 64.890625 
L 16.890625 44 
Q 19.4375 45.75 22.828125 46.625 
Q 26.21875 47.515625 30.421875 47.515625 
Q 42.234375 47.515625 49.0625 40.96875 
Q 55.90625 34.421875 55.90625 23.09375 
Q 55.90625 11.53125 49 5.046875 
Q 42.09375 -1.421875 29.59375 -1.421875 
Q 24.5625 -1.421875 19.28125 -0.1875 
Q 14.015625 1.03125 8.5 3.515625 
L 8.5 17.671875 
L 14.015625 17.671875 
Q 14.453125 10.75 18.421875 7.078125 
Q 22.40625 3.421875 29.59375 3.421875 
Q 37.3125 3.421875 41.453125 8.5 
Q 45.609375 13.578125 45.609375 23.09375 
Q 45.609375 32.5625 41.484375 37.609375 
Q 37.359375 42.671875 29.59375 42.671875 
Q 25.203125 42.671875 21.84375 41.109375 
Q 18.5 39.546875 15.921875 36.28125 
L 11.71875 36.28125 
L 11.71875 72.90625 
z
" id="DejaVuSerif-53"/>
      </defs>
      <g transform="translate(17.024937 13.319297)scale(0.09 -0.09)">
       <use xlink:href="#DejaVuSerif-50"/>
       <use x="63.623047" xlink:href="#DejaVuSerif-53"/>
       <use x="127.246094" xlink:href="#DejaVuSerif-46"/>
       <use x="159.033203" xlink:href="#DejaVuSerif-50"/>
      </g>
     </g>
    </g>
    <g id="text_13">
     <!-- $\mathrm{Distance\ to\ target}$ -->
     <defs>
      <path d="M 3.328125 0 
L 3.328125 3.515625 
Q 13.625 3.515625 13.625 6.6875 
L 13.625 61.625 
Q 13.625 64.796875 3.328125 64.796875 
L 3.328125 68.3125 
L 40.1875 68.3125 
Q 47.015625 68.3125 52.671875 65.359375 
Q 58.34375 62.40625 62.34375 57.46875 
Q 66.359375 52.546875 68.53125 46.296875 
Q 70.703125 40.046875 70.703125 33.5 
Q 70.703125 27.15625 68.5 21.171875 
Q 66.3125 15.1875 62.1875 10.375 
Q 58.0625 5.5625 52.421875 2.78125 
Q 46.78125 0 40.1875 0 
z
M 22.609375 6.6875 
Q 22.609375 4.546875 23.828125 4.03125 
Q 25.046875 3.515625 27.6875 3.515625 
L 37.59375 3.515625 
Q 42.71875 3.515625 47.328125 5.734375 
Q 51.953125 7.953125 54.984375 11.921875 
Q 58.15625 16.109375 59.21875 21.3125 
Q 60.296875 26.515625 60.296875 33.5 
Q 60.296875 40.765625 59.21875 46.234375 
Q 58.15625 51.703125 54.984375 56 
Q 52 60.25 47.40625 62.515625 
Q 42.828125 64.796875 37.59375 64.796875 
L 27.6875 64.796875 
Q 25.875 64.796875 24.875 64.640625 
Q 23.875 64.5 23.234375 63.796875 
Q 22.609375 63.09375 22.609375 61.625 
z
" id="Cmr10-68"/>
      <path d="M 4 9.8125 
Q 4 15.765625 8.6875 19.5 
Q 13.375 23.25 19.9375 24.78125 
Q 26.515625 26.3125 32.421875 26.3125 
L 32.421875 30.421875 
Q 32.421875 33.296875 31.15625 36 
Q 29.890625 38.71875 27.484375 40.453125 
Q 25.09375 42.1875 22.21875 42.1875 
Q 15.578125 42.1875 12.109375 39.203125 
Q 14.015625 39.203125 15.25 37.765625 
Q 16.5 36.328125 16.5 34.421875 
Q 16.5 32.421875 15.078125 31 
Q 13.671875 29.59375 11.71875 29.59375 
Q 9.71875 29.59375 8.296875 31 
Q 6.890625 32.421875 6.890625 34.421875 
Q 6.890625 39.703125 11.671875 42.265625 
Q 16.453125 44.828125 22.21875 44.828125 
Q 26.265625 44.828125 30.359375 43.09375 
Q 34.46875 41.359375 37.078125 38.125 
Q 39.703125 34.90625 39.703125 30.609375 
L 39.703125 8.109375 
Q 39.703125 6.15625 40.53125 4.515625 
Q 41.359375 2.875 43.109375 2.875 
Q 44.78125 2.875 45.578125 4.53125 
Q 46.390625 6.203125 46.390625 8.109375 
L 46.390625 14.5 
L 49.3125 14.5 
L 49.3125 8.109375 
Q 49.3125 5.859375 48.140625 3.828125 
Q 46.96875 1.8125 44.984375 0.609375 
Q 43.015625 -0.59375 40.71875 -0.59375 
Q 37.796875 -0.59375 35.671875 1.671875 
Q 33.546875 3.953125 33.296875 7.078125 
Q 31.453125 3.328125 27.828125 1.09375 
Q 24.21875 -1.125 20.125 -1.125 
Q 16.3125 -1.125 12.625 0 
Q 8.9375 1.125 6.46875 3.53125 
Q 4 5.953125 4 9.8125 
z
M 12.109375 9.8125 
Q 12.109375 6.296875 14.6875 3.90625 
Q 17.28125 1.515625 20.796875 1.515625 
Q 24.03125 1.515625 26.65625 3.125 
Q 29.296875 4.734375 30.859375 7.515625 
Q 32.421875 10.296875 32.421875 13.375 
L 32.421875 23.78125 
Q 27.875 23.78125 23.109375 22.28125 
Q 18.359375 20.796875 15.234375 17.625 
Q 12.109375 14.453125 12.109375 9.8125 
z
" id="Cmr10-97"/>
      <path d="M 2.984375 0 
L 2.984375 3.515625 
Q 6.390625 3.515625 8.59375 4.046875 
Q 10.796875 4.59375 10.796875 6.6875 
L 10.796875 33.984375 
Q 10.796875 36.671875 9.984375 37.859375 
Q 9.1875 39.0625 7.671875 39.328125 
Q 6.15625 39.59375 2.984375 39.59375 
L 2.984375 43.109375 
L 17.484375 44.1875 
L 17.484375 34.421875 
Q 19.484375 38.71875 23.40625 41.453125 
Q 27.34375 44.1875 31.984375 44.1875 
Q 38.921875 44.1875 42.40625 40.859375 
Q 45.90625 37.546875 45.90625 30.71875 
L 45.90625 6.6875 
Q 45.90625 4.59375 48.09375 4.046875 
Q 50.296875 3.515625 53.71875 3.515625 
L 53.71875 0 
L 30.8125 0 
L 30.8125 3.515625 
Q 34.234375 3.515625 36.421875 4.046875 
Q 38.625 4.59375 38.625 6.6875 
L 38.625 30.421875 
Q 38.625 35.296875 37.203125 38.453125 
Q 35.796875 41.609375 31.390625 41.609375 
Q 25.59375 41.609375 21.84375 36.96875 
Q 18.109375 32.328125 18.109375 26.421875 
L 18.109375 6.6875 
Q 18.109375 4.59375 20.3125 4.046875 
Q 22.515625 3.515625 25.875 3.515625 
L 25.875 0 
z
" id="Cmr10-110"/>
      <path d="M 24.90625 -1.125 
Q 18.84375 -1.125 13.90625 2.015625 
Q 8.984375 5.171875 6.15625 10.421875 
Q 3.328125 15.671875 3.328125 21.578125 
Q 3.328125 27.484375 6.125 32.90625 
Q 8.9375 38.328125 13.890625 41.578125 
Q 18.84375 44.828125 24.90625 44.828125 
Q 30.765625 44.828125 35.5625 42.53125 
Q 40.375 40.234375 40.375 35.015625 
Q 40.375 33.0625 38.984375 31.609375 
Q 37.59375 30.171875 35.59375 30.171875 
Q 33.59375 30.171875 32.203125 31.609375 
Q 30.8125 33.0625 30.8125 35.015625 
Q 30.8125 36.765625 31.9375 38.0625 
Q 33.0625 39.359375 34.71875 39.703125 
Q 31.25 41.890625 25 41.890625 
Q 20.21875 41.890625 17.28125 38.71875 
Q 14.359375 35.546875 13.1875 30.859375 
Q 12.015625 26.171875 12.015625 21.578125 
Q 12.015625 16.75 13.453125 12.234375 
Q 14.890625 7.71875 18.09375 4.765625 
Q 21.296875 1.8125 26.125 1.8125 
Q 30.859375 1.8125 34.171875 4.71875 
Q 37.5 7.625 38.71875 12.3125 
Q 38.71875 12.890625 39.5 12.890625 
L 40.71875 12.890625 
Q 41.015625 12.890625 41.25 12.625 
Q 41.5 12.359375 41.5 12.015625 
L 41.5 11.71875 
Q 39.984375 5.8125 35.484375 2.34375 
Q 31 -1.125 24.90625 -1.125 
z
" id="Cmr10-99"/>
      <path d="M 25 -1.125 
Q 19 -1.125 13.859375 1.921875 
Q 8.734375 4.984375 5.75 10.109375 
Q 2.78125 15.234375 2.78125 21.296875 
Q 2.78125 25.875 4.421875 30.125 
Q 6.0625 34.375 9.109375 37.71875 
Q 12.15625 41.0625 16.203125 42.9375 
Q 20.265625 44.828125 25 44.828125 
Q 31.15625 44.828125 36.203125 41.578125 
Q 41.265625 38.328125 44.1875 32.875 
Q 47.125 27.4375 47.125 21.296875 
Q 47.125 15.28125 44.140625 10.125 
Q 41.15625 4.984375 36.046875 1.921875 
Q 30.953125 -1.125 25 -1.125 
z
M 25 1.8125 
Q 33.015625 1.8125 35.6875 7.609375 
Q 38.375 13.421875 38.375 22.40625 
Q 38.375 27.4375 37.84375 30.734375 
Q 37.3125 34.03125 35.5 36.71875 
Q 34.375 38.375 32.640625 39.625 
Q 30.90625 40.875 28.96875 41.53125 
Q 27.046875 42.1875 25 42.1875 
Q 21.875 42.1875 19.0625 40.765625 
Q 16.265625 39.359375 14.40625 36.71875 
Q 12.546875 33.890625 12.03125 30.484375 
Q 11.53125 27.09375 11.53125 22.40625 
Q 11.53125 16.796875 12.5 12.328125 
Q 13.484375 7.859375 16.4375 4.828125 
Q 19.390625 1.8125 25 1.8125 
z
" id="Cmr10-111"/>
      <path d="M 2.59375 0 
L 2.59375 3.515625 
Q 6 3.515625 8.203125 4.046875 
Q 10.40625 4.59375 10.40625 6.6875 
L 10.40625 33.984375 
Q 10.40625 36.671875 9.59375 37.859375 
Q 8.796875 39.0625 7.28125 39.328125 
Q 5.765625 39.59375 2.59375 39.59375 
L 2.59375 43.109375 
L 16.890625 44.1875 
L 16.890625 34.421875 
Q 18.5 38.765625 21.484375 41.46875 
Q 24.46875 44.1875 28.71875 44.1875 
Q 31.6875 44.1875 34.03125 42.421875 
Q 36.375 40.671875 36.375 37.796875 
Q 36.375 35.984375 35.078125 34.640625 
Q 33.796875 33.296875 31.890625 33.296875 
Q 30.03125 33.296875 28.703125 34.609375 
Q 27.390625 35.9375 27.390625 37.796875 
Q 27.390625 40.484375 29.296875 41.609375 
L 28.71875 41.609375 
Q 24.65625 41.609375 22.09375 38.671875 
Q 19.53125 35.75 18.453125 31.390625 
Q 17.390625 27.046875 17.390625 23.09375 
L 17.390625 6.6875 
Q 17.390625 3.515625 27.09375 3.515625 
L 27.09375 0 
z
" id="Cmr10-114"/>
      <path d="M 2.78125 -7.8125 
Q 2.78125 -4.25 5.359375 -1.578125 
Q 7.953125 1.078125 11.53125 2.203125 
Q 9.515625 3.71875 8.46875 6 
Q 7.421875 8.296875 7.421875 10.890625 
Q 7.421875 15.578125 10.40625 19.1875 
Q 5.8125 23.6875 5.8125 29.5 
Q 5.8125 32.625 7.15625 35.359375 
Q 8.5 38.09375 10.890625 40.09375 
Q 13.28125 42.09375 16.203125 43.140625 
Q 19.140625 44.1875 22.21875 44.1875 
Q 28.171875 44.1875 32.90625 40.71875 
Q 34.96875 42.921875 37.765625 44.109375 
Q 40.578125 45.3125 43.609375 45.3125 
Q 45.75 45.3125 47.109375 43.765625 
Q 48.484375 42.234375 48.484375 40.09375 
Q 48.484375 38.875 47.546875 37.9375 
Q 46.625 37.015625 45.40625 37.015625 
Q 44.140625 37.015625 43.203125 37.9375 
Q 42.28125 38.875 42.28125 40.09375 
Q 42.28125 41.9375 43.5 42.671875 
Q 38.328125 42.671875 34.625 39.109375 
Q 36.421875 37.3125 37.515625 34.6875 
Q 38.625 32.078125 38.625 29.5 
Q 38.625 25.25 36.28125 21.84375 
Q 33.9375 18.453125 30.09375 16.578125 
Q 26.265625 14.703125 22.21875 14.703125 
Q 16.75 14.703125 12.203125 17.671875 
Q 10.796875 15.71875 10.796875 13.28125 
Q 10.796875 10.640625 12.53125 8.65625 
Q 14.265625 6.6875 16.890625 6.6875 
L 25.09375 6.6875 
Q 31.0625 6.6875 35.84375 5.609375 
Q 40.625 4.546875 43.875 1.3125 
Q 47.125 -1.90625 47.125 -7.8125 
Q 47.125 -12.203125 43.40625 -15.109375 
Q 39.703125 -18.015625 34.546875 -19.3125 
Q 29.390625 -20.609375 25 -20.609375 
Q 20.5625 -20.609375 15.375 -19.3125 
Q 10.203125 -18.015625 6.484375 -15.109375 
Q 2.78125 -12.203125 2.78125 -7.8125 
z
M 8.40625 -7.8125 
Q 8.40625 -11.1875 11.140625 -13.453125 
Q 13.875 -15.71875 17.71875 -16.8125 
Q 21.578125 -17.921875 25 -17.921875 
Q 28.375 -17.921875 32.21875 -16.8125 
Q 36.078125 -15.71875 38.78125 -13.453125 
Q 41.5 -11.1875 41.5 -7.8125 
Q 41.5 -2.59375 36.71875 -1.046875 
Q 31.9375 0.484375 25.09375 0.484375 
L 16.890625 0.484375 
Q 14.59375 0.484375 12.671875 -0.609375 
Q 10.75 -1.703125 9.578125 -3.6875 
Q 8.40625 -5.671875 8.40625 -7.8125 
z
M 22.21875 17.390625 
Q 30.71875 17.390625 30.71875 29.5 
Q 30.71875 34.71875 28.90625 38.109375 
Q 27.09375 41.5 22.21875 41.5 
Q 17.328125 41.5 15.515625 38.109375 
Q 13.71875 34.71875 13.71875 29.5 
Q 13.71875 26.171875 14.40625 23.484375 
Q 15.09375 20.796875 16.9375 19.09375 
Q 18.796875 17.390625 22.21875 17.390625 
z
" id="Cmr10-103"/>
     </defs>
     <g transform="translate(10.924937 78.7)rotate(-90)scale(0.1 -0.1)">
      <use transform="translate(0 0.6875)" xlink:href="#Cmr10-68"/>
      <use transform="translate(76.318359 0.6875)" xlink:href="#Cmr10-105"/>
      <use transform="translate(104.003906 0.6875)" xlink:href="#Cmr10-115"/>
      <use transform="translate(143.408203 0.6875)" xlink:href="#Cmr10-116"/>
      <use transform="translate(182.226562 0.6875)" xlink:href="#Cmr10-97"/>
      <use transform="translate(232.226562 0.6875)" xlink:href="#Cmr10-110"/>
      <use transform="translate(287.744141 0.6875)" xlink:href="#Cmr10-99"/>
      <use transform="translate(332.128906 0.6875)" xlink:href="#Cmr10-101"/>
      <use transform="translate(404.280321 0.6875)" xlink:href="#Cmr10-116"/>
      <use transform="translate(443.098681 0.6875)" xlink:href="#Cmr10-111"/>
      <use transform="translate(520.86533 0.6875)" xlink:href="#Cmr10-116"/>
      <use transform="translate(559.683689 0.6875)" xlink:href="#Cmr10-97"/>
      <use transform="translate(609.683689 0.6875)" xlink:href="#Cmr10-114"/>
      <use transform="translate(648.795018 0.6875)" xlink:href="#Cmr10-103"/>
      <use transform="translate(698.795018 0.6875)" xlink:href="#Cmr10-101"/>
      <use transform="translate(743.179783 0.6875)" xlink:href="#Cmr10-116"/>
     </g>
    </g>
   </g>
   <g id="line2d_23">
    <path clip-path="url(#p9f226e6718)" d="M 44.064 31.592918 
" style="fill:none;stroke:#0000ff;stroke-dasharray:1,1.65;stroke-dashoffset:0;"/>
    <defs>
     <path d="M -1.666667 1.666667 
L 1.666667 1.666667 
L 1.666667 -1.666667 
L -1.666667 -1.666667 
z
" id="m777092c859" style="stroke:#0000ff;stroke-linejoin:miter;"/>
    </defs>
    <g clip-path="url(#p9f226e6718)">
     <use style="fill:#0000ff;stroke:#0000ff;stroke-linejoin:miter;" x="44.064" xlink:href="#m777092c859" y="31.592918"/>
    </g>
   </g>
   <g id="line2d_24">
    <path clip-path="url(#p9f226e6718)" d="M 44.064 32.469643 
L 45.080151 35.335625 
L 46.096302 43.150244 
L 47.112453 51.215769 
L 48.128604 57.847565 
L 49.144755 62.969361 
L 50.160906 66.577773 
L 51.177057 68.657579 
L 52.193208 69.16277 
" style="fill:none;stroke:#00bfff;stroke-dasharray:1,1.65;stroke-dashoffset:0;"/>
    <defs>
     <path d="M 0 -2.5 
L -2.5 2.5 
L 2.5 2.5 
z
" id="m1a9d79e016" style="stroke:#00bfff;stroke-linejoin:miter;"/>
    </defs>
    <g clip-path="url(#p9f226e6718)">
     <use style="fill:#00bfff;stroke:#00bfff;stroke-linejoin:miter;" x="44.064" xlink:href="#m1a9d79e016" y="32.469643"/>
     <use style="fill:#00bfff;stroke:#00bfff;stroke-linejoin:miter;" x="45.080151" xlink:href="#m1a9d79e016" y="35.335625"/>
     <use style="fill:#00bfff;stroke:#00bfff;stroke-linejoin:miter;" x="46.096302" xlink:href="#m1a9d79e016" y="43.150244"/>
     <use style="fill:#00bfff;stroke:#00bfff;stroke-linejoin:miter;" x="47.112453" xlink:href="#m1a9d79e016" y="51.215769"/>
     <use style="fill:#00bfff;stroke:#00bfff;stroke-linejoin:miter;" x="48.128604" xlink:href="#m1a9d79e016" y="57.847565"/>
     <use style="fill:#00bfff;stroke:#00bfff;stroke-linejoin:miter;" x="49.144755" xlink:href="#m1a9d79e016" y="62.969361"/>
     <use style="fill:#00bfff;stroke:#00bfff;stroke-linejoin:miter;" x="50.160906" xlink:href="#m1a9d79e016" y="66.577773"/>
     <use style="fill:#00bfff;stroke:#00bfff;stroke-linejoin:miter;" x="51.177057" xlink:href="#m1a9d79e016" y="68.657579"/>
     <use style="fill:#00bfff;stroke:#00bfff;stroke-linejoin:miter;" x="52.193208" xlink:href="#m1a9d79e016" y="69.16277"/>
    </g>
   </g>
   <g id="line2d_25">
    <path clip-path="url(#p9f226e6718)" d="M 44.064 32.469643 
L 45.080151 31.592918 
L 46.096302 29.030575 
L 47.112453 27.646184 
L 48.128604 24.90022 
L 49.144755 21.197016 
L 50.160906 19.341671 
L 51.177057 23.855007 
L 52.193208 27.648929 
L 53.209358 29.794174 
L 54.225509 30.356402 
L 55.24166 30.605905 
L 56.257811 29.244683 
L 57.273962 30.436434 
L 58.290113 30.799396 
L 59.306264 31.398097 
L 60.322415 31.092737 
L 61.338566 31.179101 
L 62.354717 30.982215 
L 63.370868 30.905143 
L 64.387019 30.754837 
L 65.40317 30.37361 
L 66.419321 30.33722 
L 67.435472 30.340386 
L 68.451623 30.231158 
L 69.467774 29.582107 
L 70.483925 29.831342 
L 71.500075 28.369287 
L 72.516226 28.614673 
L 73.532377 27.739935 
L 74.548528 28.511022 
L 75.564679 30.227025 
L 76.58083 32.99756 
L 77.596981 35.530479 
L 78.613132 38.133995 
L 79.629283 40.880102 
L 80.645434 44.312183 
L 81.661585 47.370214 
L 82.677736 49.839126 
L 83.693887 52.587359 
L 84.710038 49.839126 
L 85.726189 51.690369 
L 86.74234 53.167561 
L 87.758491 55.204308 
L 88.774642 57.372807 
L 89.790792 59.49145 
L 90.806943 61.201118 
L 91.823094 61.647705 
L 92.839245 62.906229 
L 93.855396 64.143796 
L 94.871547 64.112867 
L 95.887698 64.576015 
L 96.903849 65.723608 
L 97.92 64.243851 
L 98.936151 62.40913 
L 99.952302 63.005766 
L 100.968453 64.114123 
L 101.984604 64.265369 
L 103.000755 64.042564 
L 104.016906 64.032393 
L 105.033057 64.058219 
L 106.049208 63.589705 
L 107.065358 64.033894 
L 108.081509 64.541249 
L 109.09766 64.439462 
L 110.113811 64.541249 
L 111.129962 64.755336 
L 112.146113 64.384933 
L 113.162264 62.871176 
L 114.178415 62.390577 
L 115.194566 64.006936 
L 116.210717 65.607113 
L 117.226868 63.891561 
L 118.243019 65.123922 
L 119.25917 66.698018 
L 120.275321 66.358278 
L 121.291472 64.802299 
L 122.307623 66.393694 
L 123.323774 67.143257 
L 124.339925 67.778966 
L 125.356075 66.934243 
L 126.372226 66.788548 
L 127.388377 67.632915 
L 128.404528 68.067858 
L 129.420679 68.593243 
L 130.43683 68.684252 
L 131.452981 68.96107 
L 132.469132 68.920971 
L 133.485283 68.75322 
L 134.501434 68.442732 
L 135.517585 67.565826 
L 136.533736 68.01281 
L 137.549887 68.556928 
L 138.566038 68.813968 
L 139.582189 68.861969 
L 140.59834 68.501474 
L 141.614491 68.438036 
L 142.630642 68.172896 
L 143.646792 68.232436 
L 144.662943 68.481553 
L 145.679094 68.510454 
L 146.695245 68.16333 
L 147.711396 68.617929 
L 148.727547 68.916013 
L 149.743698 69.010374 
" style="fill:none;stroke:#708090;stroke-dasharray:1,1.65;stroke-dashoffset:0;"/>
    <defs>
     <path d="M -2.5 0 
L 2.5 0 
M 0 2.5 
L 0 -2.5 
" id="m151151f61b" style="stroke:#708090;"/>
    </defs>
    <g clip-path="url(#p9f226e6718)">
     <use style="fill:#708090;stroke:#708090;" x="44.064" xlink:href="#m151151f61b" y="32.469643"/>
     <use style="fill:#708090;stroke:#708090;" x="45.080151" xlink:href="#m151151f61b" y="31.592918"/>
     <use style="fill:#708090;stroke:#708090;" x="46.096302" xlink:href="#m151151f61b" y="29.030575"/>
     <use style="fill:#708090;stroke:#708090;" x="47.112453" xlink:href="#m151151f61b" y="27.646184"/>
     <use style="fill:#708090;stroke:#708090;" x="48.128604" xlink:href="#m151151f61b" y="24.90022"/>
     <use style="fill:#708090;stroke:#708090;" x="49.144755" xlink:href="#m151151f61b" y="21.197016"/>
     <use style="fill:#708090;stroke:#708090;" x="50.160906" xlink:href="#m151151f61b" y="19.341671"/>
     <use style="fill:#708090;stroke:#708090;" x="51.177057" xlink:href="#m151151f61b" y="23.855007"/>
     <use style="fill:#708090;stroke:#708090;" x="52.193208" xlink:href="#m151151f61b" y="27.648929"/>
     <use style="fill:#708090;stroke:#708090;" x="53.209358" xlink:href="#m151151f61b" y="29.794174"/>
     <use style="fill:#708090;stroke:#708090;" x="54.225509" xlink:href="#m151151f61b" y="30.356402"/>
     <use style="fill:#708090;stroke:#708090;" x="55.24166" xlink:href="#m151151f61b" y="30.605905"/>
     <use style="fill:#708090;stroke:#708090;" x="56.257811" xlink:href="#m151151f61b" y="29.244683"/>
     <use style="fill:#708090;stroke:#708090;" x="57.273962" xlink:href="#m151151f61b" y="30.436434"/>
     <use style="fill:#708090;stroke:#708090;" x="58.290113" xlink:href="#m151151f61b" y="30.799396"/>
     <use style="fill:#708090;stroke:#708090;" x="59.306264" xlink:href="#m151151f61b" y="31.398097"/>
     <use style="fill:#708090;stroke:#708090;" x="60.322415" xlink:href="#m151151f61b" y="31.092737"/>
     <use style="fill:#708090;stroke:#708090;" x="61.338566" xlink:href="#m151151f61b" y="31.179101"/>
     <use style="fill:#708090;stroke:#708090;" x="62.354717" xlink:href="#m151151f61b" y="30.982215"/>
     <use style="fill:#708090;stroke:#708090;" x="63.370868" xlink:href="#m151151f61b" y="30.905143"/>
     <use style="fill:#708090;stroke:#708090;" x="64.387019" xlink:href="#m151151f61b" y="30.754837"/>
     <use style="fill:#708090;stroke:#708090;" x="65.40317" xlink:href="#m151151f61b" y="30.37361"/>
     <use style="fill:#708090;stroke:#708090;" x="66.419321" xlink:href="#m151151f61b" y="30.33722"/>
     <use style="fill:#708090;stroke:#708090;" x="67.435472" xlink:href="#m151151f61b" y="30.340386"/>
     <use style="fill:#708090;stroke:#708090;" x="68.451623" xlink:href="#m151151f61b" y="30.231158"/>
     <use style="fill:#708090;stroke:#708090;" x="69.467774" xlink:href="#m151151f61b" y="29.582107"/>
     <use style="fill:#708090;stroke:#708090;" x="70.483925" xlink:href="#m151151f61b" y="29.831342"/>
     <use style="fill:#708090;stroke:#708090;" x="71.500075" xlink:href="#m151151f61b" y="28.369287"/>
     <use style="fill:#708090;stroke:#708090;" x="72.516226" xlink:href="#m151151f61b" y="28.614673"/>
     <use style="fill:#708090;stroke:#708090;" x="73.532377" xlink:href="#m151151f61b" y="27.739935"/>
     <use style="fill:#708090;stroke:#708090;" x="74.548528" xlink:href="#m151151f61b" y="28.511022"/>
     <use style="fill:#708090;stroke:#708090;" x="75.564679" xlink:href="#m151151f61b" y="30.227025"/>
     <use style="fill:#708090;stroke:#708090;" x="76.58083" xlink:href="#m151151f61b" y="32.99756"/>
     <use style="fill:#708090;stroke:#708090;" x="77.596981" xlink:href="#m151151f61b" y="35.530479"/>
     <use style="fill:#708090;stroke:#708090;" x="78.613132" xlink:href="#m151151f61b" y="38.133995"/>
     <use style="fill:#708090;stroke:#708090;" x="79.629283" xlink:href="#m151151f61b" y="40.880102"/>
     <use style="fill:#708090;stroke:#708090;" x="80.645434" xlink:href="#m151151f61b" y="44.312183"/>
     <use style="fill:#708090;stroke:#708090;" x="81.661585" xlink:href="#m151151f61b" y="47.370214"/>
     <use style="fill:#708090;stroke:#708090;" x="82.677736" xlink:href="#m151151f61b" y="49.839126"/>
     <use style="fill:#708090;stroke:#708090;" x="83.693887" xlink:href="#m151151f61b" y="52.587359"/>
     <use style="fill:#708090;stroke:#708090;" x="84.710038" xlink:href="#m151151f61b" y="49.839126"/>
     <use style="fill:#708090;stroke:#708090;" x="85.726189" xlink:href="#m151151f61b" y="51.690369"/>
     <use style="fill:#708090;stroke:#708090;" x="86.74234" xlink:href="#m151151f61b" y="53.167561"/>
     <use style="fill:#708090;stroke:#708090;" x="87.758491" xlink:href="#m151151f61b" y="55.204308"/>
     <use style="fill:#708090;stroke:#708090;" x="88.774642" xlink:href="#m151151f61b" y="57.372807"/>
     <use style="fill:#708090;stroke:#708090;" x="89.790792" xlink:href="#m151151f61b" y="59.49145"/>
     <use style="fill:#708090;stroke:#708090;" x="90.806943" xlink:href="#m151151f61b" y="61.201118"/>
     <use style="fill:#708090;stroke:#708090;" x="91.823094" xlink:href="#m151151f61b" y="61.647705"/>
     <use style="fill:#708090;stroke:#708090;" x="92.839245" xlink:href="#m151151f61b" y="62.906229"/>
     <use style="fill:#708090;stroke:#708090;" x="93.855396" xlink:href="#m151151f61b" y="64.143796"/>
     <use style="fill:#708090;stroke:#708090;" x="94.871547" xlink:href="#m151151f61b" y="64.112867"/>
     <use style="fill:#708090;stroke:#708090;" x="95.887698" xlink:href="#m151151f61b" y="64.576015"/>
     <use style="fill:#708090;stroke:#708090;" x="96.903849" xlink:href="#m151151f61b" y="65.723608"/>
     <use style="fill:#708090;stroke:#708090;" x="97.92" xlink:href="#m151151f61b" y="64.243851"/>
     <use style="fill:#708090;stroke:#708090;" x="98.936151" xlink:href="#m151151f61b" y="62.40913"/>
     <use style="fill:#708090;stroke:#708090;" x="99.952302" xlink:href="#m151151f61b" y="63.005766"/>
     <use style="fill:#708090;stroke:#708090;" x="100.968453" xlink:href="#m151151f61b" y="64.114123"/>
     <use style="fill:#708090;stroke:#708090;" x="101.984604" xlink:href="#m151151f61b" y="64.265369"/>
     <use style="fill:#708090;stroke:#708090;" x="103.000755" xlink:href="#m151151f61b" y="64.042564"/>
     <use style="fill:#708090;stroke:#708090;" x="104.016906" xlink:href="#m151151f61b" y="64.032393"/>
     <use style="fill:#708090;stroke:#708090;" x="105.033057" xlink:href="#m151151f61b" y="64.058219"/>
     <use style="fill:#708090;stroke:#708090;" x="106.049208" xlink:href="#m151151f61b" y="63.589705"/>
     <use style="fill:#708090;stroke:#708090;" x="107.065358" xlink:href="#m151151f61b" y="64.033894"/>
     <use style="fill:#708090;stroke:#708090;" x="108.081509" xlink:href="#m151151f61b" y="64.541249"/>
     <use style="fill:#708090;stroke:#708090;" x="109.09766" xlink:href="#m151151f61b" y="64.439462"/>
     <use style="fill:#708090;stroke:#708090;" x="110.113811" xlink:href="#m151151f61b" y="64.541249"/>
     <use style="fill:#708090;stroke:#708090;" x="111.129962" xlink:href="#m151151f61b" y="64.755336"/>
     <use style="fill:#708090;stroke:#708090;" x="112.146113" xlink:href="#m151151f61b" y="64.384933"/>
     <use style="fill:#708090;stroke:#708090;" x="113.162264" xlink:href="#m151151f61b" y="62.871176"/>
     <use style="fill:#708090;stroke:#708090;" x="114.178415" xlink:href="#m151151f61b" y="62.390577"/>
     <use style="fill:#708090;stroke:#708090;" x="115.194566" xlink:href="#m151151f61b" y="64.006936"/>
     <use style="fill:#708090;stroke:#708090;" x="116.210717" xlink:href="#m151151f61b" y="65.607113"/>
     <use style="fill:#708090;stroke:#708090;" x="117.226868" xlink:href="#m151151f61b" y="63.891561"/>
     <use style="fill:#708090;stroke:#708090;" x="118.243019" xlink:href="#m151151f61b" y="65.123922"/>
     <use style="fill:#708090;stroke:#708090;" x="119.25917" xlink:href="#m151151f61b" y="66.698018"/>
     <use style="fill:#708090;stroke:#708090;" x="120.275321" xlink:href="#m151151f61b" y="66.358278"/>
     <use style="fill:#708090;stroke:#708090;" x="121.291472" xlink:href="#m151151f61b" y="64.802299"/>
     <use style="fill:#708090;stroke:#708090;" x="122.307623" xlink:href="#m151151f61b" y="66.393694"/>
     <use style="fill:#708090;stroke:#708090;" x="123.323774" xlink:href="#m151151f61b" y="67.143257"/>
     <use style="fill:#708090;stroke:#708090;" x="124.339925" xlink:href="#m151151f61b" y="67.778966"/>
     <use style="fill:#708090;stroke:#708090;" x="125.356075" xlink:href="#m151151f61b" y="66.934243"/>
     <use style="fill:#708090;stroke:#708090;" x="126.372226" xlink:href="#m151151f61b" y="66.788548"/>
     <use style="fill:#708090;stroke:#708090;" x="127.388377" xlink:href="#m151151f61b" y="67.632915"/>
     <use style="fill:#708090;stroke:#708090;" x="128.404528" xlink:href="#m151151f61b" y="68.067858"/>
     <use style="fill:#708090;stroke:#708090;" x="129.420679" xlink:href="#m151151f61b" y="68.593243"/>
     <use style="fill:#708090;stroke:#708090;" x="130.43683" xlink:href="#m151151f61b" y="68.684252"/>
     <use style="fill:#708090;stroke:#708090;" x="131.452981" xlink:href="#m151151f61b" y="68.96107"/>
     <use style="fill:#708090;stroke:#708090;" x="132.469132" xlink:href="#m151151f61b" y="68.920971"/>
     <use style="fill:#708090;stroke:#708090;" x="133.485283" xlink:href="#m151151f61b" y="68.75322"/>
     <use style="fill:#708090;stroke:#708090;" x="134.501434" xlink:href="#m151151f61b" y="68.442732"/>
     <use style="fill:#708090;stroke:#708090;" x="135.517585" xlink:href="#m151151f61b" y="67.565826"/>
     <use style="fill:#708090;stroke:#708090;" x="136.533736" xlink:href="#m151151f61b" y="68.01281"/>
     <use style="fill:#708090;stroke:#708090;" x="137.549887" xlink:href="#m151151f61b" y="68.556928"/>
     <use style="fill:#708090;stroke:#708090;" x="138.566038" xlink:href="#m151151f61b" y="68.813968"/>
     <use style="fill:#708090;stroke:#708090;" x="139.582189" xlink:href="#m151151f61b" y="68.861969"/>
     <use style="fill:#708090;stroke:#708090;" x="140.59834" xlink:href="#m151151f61b" y="68.501474"/>
     <use style="fill:#708090;stroke:#708090;" x="141.614491" xlink:href="#m151151f61b" y="68.438036"/>
     <use style="fill:#708090;stroke:#708090;" x="142.630642" xlink:href="#m151151f61b" y="68.172896"/>
     <use style="fill:#708090;stroke:#708090;" x="143.646792" xlink:href="#m151151f61b" y="68.232436"/>
     <use style="fill:#708090;stroke:#708090;" x="144.662943" xlink:href="#m151151f61b" y="68.481553"/>
     <use style="fill:#708090;stroke:#708090;" x="145.679094" xlink:href="#m151151f61b" y="68.510454"/>
     <use style="fill:#708090;stroke:#708090;" x="146.695245" xlink:href="#m151151f61b" y="68.16333"/>
     <use style="fill:#708090;stroke:#708090;" x="147.711396" xlink:href="#m151151f61b" y="68.617929"/>
     <use style="fill:#708090;stroke:#708090;" x="148.727547" xlink:href="#m151151f61b" y="68.916013"/>
     <use style="fill:#708090;stroke:#708090;" x="149.743698" xlink:href="#m151151f61b" y="69.010374"/>
    </g>
   </g>
   <g id="line2d_26">
    <path clip-path="url(#p9f226e6718)" d="M 44.064 32.469643 
L 45.080151 31.592918 
L 46.096302 32.436805 
L 47.112453 32.807729 
L 48.128604 33.269043 
L 49.144755 33.273085 
L 50.160906 33.258101 
L 51.177057 33.791651 
L 52.193208 36.905401 
L 53.209358 40.725062 
L 54.225509 44.876739 
L 55.24166 48.954037 
L 56.257811 49.906216 
L 57.273962 53.51578 
L 58.290113 56.751293 
L 59.306264 55.018189 
L 60.322415 52.648705 
L 61.338566 55.623013 
L 62.354717 58.56908 
L 63.370868 60.384849 
L 64.387019 62.746637 
L 65.40317 64.760173 
L 66.419321 65.115115 
L 67.435472 65.367583 
L 68.451623 66.78193 
L 69.467774 67.837776 
L 70.483925 67.328311 
L 71.500075 66.554227 
L 72.516226 66.126875 
L 73.532377 67.129539 
L 74.548528 68.089396 
L 75.564679 67.154513 
L 76.58083 68.03082 
L 77.596981 68.383459 
L 78.613132 68.553394 
L 79.629283 68.564839 
L 80.645434 68.549907 
L 81.661585 68.564623 
L 82.677736 68.078435 
L 83.693887 68.077473 
L 84.710038 68.321587 
L 85.726189 68.501008 
L 86.74234 68.544905 
L 87.758491 68.464427 
L 88.774642 68.12137 
L 89.790792 68.21036 
L 90.806943 68.283979 
L 91.823094 68.346319 
L 92.839245 68.302141 
L 93.855396 68.134986 
L 94.871547 68.326203 
L 95.887698 68.279944 
L 96.903849 68.287497 
L 97.92 68.225223 
L 98.936151 68.279828 
L 99.952302 68.216886 
L 100.968453 67.960076 
L 101.984604 68.290025 
L 103.000755 68.250042 
L 104.016906 68.301278 
L 105.033057 68.291565 
L 106.049208 68.094168 
L 107.065358 67.710737 
L 108.081509 68.101386 
L 109.09766 68.291913 
L 110.113811 68.275207 
L 111.129962 68.16137 
L 112.146113 67.995945 
L 113.162264 68.097819 
L 114.178415 68.126498 
L 115.194566 68.125394 
L 116.210717 68.189636 
L 117.226868 67.957302 
L 118.243019 68.045092 
L 119.25917 68.617551 
L 120.275321 68.956123 
L 121.291472 69.062979 
" style="fill:none;stroke:#ff8c00;stroke-dasharray:1,1.65;stroke-dashoffset:0;"/>
    <defs>
     <path d="M -2.5 2.5 
L 2.5 -2.5 
M -2.5 -2.5 
L 2.5 2.5 
" id="me9d5c1db1f" style="stroke:#ff8c00;"/>
    </defs>
    <g clip-path="url(#p9f226e6718)">
     <use style="fill:#ff8c00;stroke:#ff8c00;" x="44.064" xlink:href="#me9d5c1db1f" y="32.469643"/>
     <use style="fill:#ff8c00;stroke:#ff8c00;" x="45.080151" xlink:href="#me9d5c1db1f" y="31.592918"/>
     <use style="fill:#ff8c00;stroke:#ff8c00;" x="46.096302" xlink:href="#me9d5c1db1f" y="32.436805"/>
     <use style="fill:#ff8c00;stroke:#ff8c00;" x="47.112453" xlink:href="#me9d5c1db1f" y="32.807729"/>
     <use style="fill:#ff8c00;stroke:#ff8c00;" x="48.128604" xlink:href="#me9d5c1db1f" y="33.269043"/>
     <use style="fill:#ff8c00;stroke:#ff8c00;" x="49.144755" xlink:href="#me9d5c1db1f" y="33.273085"/>
     <use style="fill:#ff8c00;stroke:#ff8c00;" x="50.160906" xlink:href="#me9d5c1db1f" y="33.258101"/>
     <use style="fill:#ff8c00;stroke:#ff8c00;" x="51.177057" xlink:href="#me9d5c1db1f" y="33.791651"/>
     <use style="fill:#ff8c00;stroke:#ff8c00;" x="52.193208" xlink:href="#me9d5c1db1f" y="36.905401"/>
     <use style="fill:#ff8c00;stroke:#ff8c00;" x="53.209358" xlink:href="#me9d5c1db1f" y="40.725062"/>
     <use style="fill:#ff8c00;stroke:#ff8c00;" x="54.225509" xlink:href="#me9d5c1db1f" y="44.876739"/>
     <use style="fill:#ff8c00;stroke:#ff8c00;" x="55.24166" xlink:href="#me9d5c1db1f" y="48.954037"/>
     <use style="fill:#ff8c00;stroke:#ff8c00;" x="56.257811" xlink:href="#me9d5c1db1f" y="49.906216"/>
     <use style="fill:#ff8c00;stroke:#ff8c00;" x="57.273962" xlink:href="#me9d5c1db1f" y="53.51578"/>
     <use style="fill:#ff8c00;stroke:#ff8c00;" x="58.290113" xlink:href="#me9d5c1db1f" y="56.751293"/>
     <use style="fill:#ff8c00;stroke:#ff8c00;" x="59.306264" xlink:href="#me9d5c1db1f" y="55.018189"/>
     <use style="fill:#ff8c00;stroke:#ff8c00;" x="60.322415" xlink:href="#me9d5c1db1f" y="52.648705"/>
     <use style="fill:#ff8c00;stroke:#ff8c00;" x="61.338566" xlink:href="#me9d5c1db1f" y="55.623013"/>
     <use style="fill:#ff8c00;stroke:#ff8c00;" x="62.354717" xlink:href="#me9d5c1db1f" y="58.56908"/>
     <use style="fill:#ff8c00;stroke:#ff8c00;" x="63.370868" xlink:href="#me9d5c1db1f" y="60.384849"/>
     <use style="fill:#ff8c00;stroke:#ff8c00;" x="64.387019" xlink:href="#me9d5c1db1f" y="62.746637"/>
     <use style="fill:#ff8c00;stroke:#ff8c00;" x="65.40317" xlink:href="#me9d5c1db1f" y="64.760173"/>
     <use style="fill:#ff8c00;stroke:#ff8c00;" x="66.419321" xlink:href="#me9d5c1db1f" y="65.115115"/>
     <use style="fill:#ff8c00;stroke:#ff8c00;" x="67.435472" xlink:href="#me9d5c1db1f" y="65.367583"/>
     <use style="fill:#ff8c00;stroke:#ff8c00;" x="68.451623" xlink:href="#me9d5c1db1f" y="66.78193"/>
     <use style="fill:#ff8c00;stroke:#ff8c00;" x="69.467774" xlink:href="#me9d5c1db1f" y="67.837776"/>
     <use style="fill:#ff8c00;stroke:#ff8c00;" x="70.483925" xlink:href="#me9d5c1db1f" y="67.328311"/>
     <use style="fill:#ff8c00;stroke:#ff8c00;" x="71.500075" xlink:href="#me9d5c1db1f" y="66.554227"/>
     <use style="fill:#ff8c00;stroke:#ff8c00;" x="72.516226" xlink:href="#me9d5c1db1f" y="66.126875"/>
     <use style="fill:#ff8c00;stroke:#ff8c00;" x="73.532377" xlink:href="#me9d5c1db1f" y="67.129539"/>
     <use style="fill:#ff8c00;stroke:#ff8c00;" x="74.548528" xlink:href="#me9d5c1db1f" y="68.089396"/>
     <use style="fill:#ff8c00;stroke:#ff8c00;" x="75.564679" xlink:href="#me9d5c1db1f" y="67.154513"/>
     <use style="fill:#ff8c00;stroke:#ff8c00;" x="76.58083" xlink:href="#me9d5c1db1f" y="68.03082"/>
     <use style="fill:#ff8c00;stroke:#ff8c00;" x="77.596981" xlink:href="#me9d5c1db1f" y="68.383459"/>
     <use style="fill:#ff8c00;stroke:#ff8c00;" x="78.613132" xlink:href="#me9d5c1db1f" y="68.553394"/>
     <use style="fill:#ff8c00;stroke:#ff8c00;" x="79.629283" xlink:href="#me9d5c1db1f" y="68.564839"/>
     <use style="fill:#ff8c00;stroke:#ff8c00;" x="80.645434" xlink:href="#me9d5c1db1f" y="68.549907"/>
     <use style="fill:#ff8c00;stroke:#ff8c00;" x="81.661585" xlink:href="#me9d5c1db1f" y="68.564623"/>
     <use style="fill:#ff8c00;stroke:#ff8c00;" x="82.677736" xlink:href="#me9d5c1db1f" y="68.078435"/>
     <use style="fill:#ff8c00;stroke:#ff8c00;" x="83.693887" xlink:href="#me9d5c1db1f" y="68.077473"/>
     <use style="fill:#ff8c00;stroke:#ff8c00;" x="84.710038" xlink:href="#me9d5c1db1f" y="68.321587"/>
     <use style="fill:#ff8c00;stroke:#ff8c00;" x="85.726189" xlink:href="#me9d5c1db1f" y="68.501008"/>
     <use style="fill:#ff8c00;stroke:#ff8c00;" x="86.74234" xlink:href="#me9d5c1db1f" y="68.544905"/>
     <use style="fill:#ff8c00;stroke:#ff8c00;" x="87.758491" xlink:href="#me9d5c1db1f" y="68.464427"/>
     <use style="fill:#ff8c00;stroke:#ff8c00;" x="88.774642" xlink:href="#me9d5c1db1f" y="68.12137"/>
     <use style="fill:#ff8c00;stroke:#ff8c00;" x="89.790792" xlink:href="#me9d5c1db1f" y="68.21036"/>
     <use style="fill:#ff8c00;stroke:#ff8c00;" x="90.806943" xlink:href="#me9d5c1db1f" y="68.283979"/>
     <use style="fill:#ff8c00;stroke:#ff8c00;" x="91.823094" xlink:href="#me9d5c1db1f" y="68.346319"/>
     <use style="fill:#ff8c00;stroke:#ff8c00;" x="92.839245" xlink:href="#me9d5c1db1f" y="68.302141"/>
     <use style="fill:#ff8c00;stroke:#ff8c00;" x="93.855396" xlink:href="#me9d5c1db1f" y="68.134986"/>
     <use style="fill:#ff8c00;stroke:#ff8c00;" x="94.871547" xlink:href="#me9d5c1db1f" y="68.326203"/>
     <use style="fill:#ff8c00;stroke:#ff8c00;" x="95.887698" xlink:href="#me9d5c1db1f" y="68.279944"/>
     <use style="fill:#ff8c00;stroke:#ff8c00;" x="96.903849" xlink:href="#me9d5c1db1f" y="68.287497"/>
     <use style="fill:#ff8c00;stroke:#ff8c00;" x="97.92" xlink:href="#me9d5c1db1f" y="68.225223"/>
     <use style="fill:#ff8c00;stroke:#ff8c00;" x="98.936151" xlink:href="#me9d5c1db1f" y="68.279828"/>
     <use style="fill:#ff8c00;stroke:#ff8c00;" x="99.952302" xlink:href="#me9d5c1db1f" y="68.216886"/>
     <use style="fill:#ff8c00;stroke:#ff8c00;" x="100.968453" xlink:href="#me9d5c1db1f" y="67.960076"/>
     <use style="fill:#ff8c00;stroke:#ff8c00;" x="101.984604" xlink:href="#me9d5c1db1f" y="68.290025"/>
     <use style="fill:#ff8c00;stroke:#ff8c00;" x="103.000755" xlink:href="#me9d5c1db1f" y="68.250042"/>
     <use style="fill:#ff8c00;stroke:#ff8c00;" x="104.016906" xlink:href="#me9d5c1db1f" y="68.301278"/>
     <use style="fill:#ff8c00;stroke:#ff8c00;" x="105.033057" xlink:href="#me9d5c1db1f" y="68.291565"/>
     <use style="fill:#ff8c00;stroke:#ff8c00;" x="106.049208" xlink:href="#me9d5c1db1f" y="68.094168"/>
     <use style="fill:#ff8c00;stroke:#ff8c00;" x="107.065358" xlink:href="#me9d5c1db1f" y="67.710737"/>
     <use style="fill:#ff8c00;stroke:#ff8c00;" x="108.081509" xlink:href="#me9d5c1db1f" y="68.101386"/>
     <use style="fill:#ff8c00;stroke:#ff8c00;" x="109.09766" xlink:href="#me9d5c1db1f" y="68.291913"/>
     <use style="fill:#ff8c00;stroke:#ff8c00;" x="110.113811" xlink:href="#me9d5c1db1f" y="68.275207"/>
     <use style="fill:#ff8c00;stroke:#ff8c00;" x="111.129962" xlink:href="#me9d5c1db1f" y="68.16137"/>
     <use style="fill:#ff8c00;stroke:#ff8c00;" x="112.146113" xlink:href="#me9d5c1db1f" y="67.995945"/>
     <use style="fill:#ff8c00;stroke:#ff8c00;" x="113.162264" xlink:href="#me9d5c1db1f" y="68.097819"/>
     <use style="fill:#ff8c00;stroke:#ff8c00;" x="114.178415" xlink:href="#me9d5c1db1f" y="68.126498"/>
     <use style="fill:#ff8c00;stroke:#ff8c00;" x="115.194566" xlink:href="#me9d5c1db1f" y="68.125394"/>
     <use style="fill:#ff8c00;stroke:#ff8c00;" x="116.210717" xlink:href="#me9d5c1db1f" y="68.189636"/>
     <use style="fill:#ff8c00;stroke:#ff8c00;" x="117.226868" xlink:href="#me9d5c1db1f" y="67.957302"/>
     <use style="fill:#ff8c00;stroke:#ff8c00;" x="118.243019" xlink:href="#me9d5c1db1f" y="68.045092"/>
     <use style="fill:#ff8c00;stroke:#ff8c00;" x="119.25917" xlink:href="#me9d5c1db1f" y="68.617551"/>
     <use style="fill:#ff8c00;stroke:#ff8c00;" x="120.275321" xlink:href="#me9d5c1db1f" y="68.956123"/>
     <use style="fill:#ff8c00;stroke:#ff8c00;" x="121.291472" xlink:href="#me9d5c1db1f" y="69.062979"/>
    </g>
   </g>
   <g id="patch_3">
    <path d="M 44.064 69.3 
L 44.064 9.9 
" style="fill:none;stroke:#000000;stroke-linecap:square;stroke-linejoin:miter;stroke-width:0.8;"/>
   </g>
   <g id="patch_4">
    <path d="M 151.776 69.3 
L 151.776 9.9 
" style="fill:none;stroke:#000000;stroke-linecap:square;stroke-linejoin:miter;stroke-width:0.8;"/>
   </g>
   <g id="patch_5">
    <path d="M 44.064 69.3 
L 151.776 69.3 
" style="fill:none;stroke:#000000;stroke-linecap:square;stroke-linejoin:miter;stroke-width:0.8;"/>
   </g>
   <g id="patch_6">
    <path d="M 44.064 9.9 
L 151.776 9.9 
" style="fill:none;stroke:#000000;stroke-linecap:square;stroke-linejoin:miter;stroke-width:0.8;"/>
   </g>
   <g id="legend_1">
    <g id="patch_7">
     <path d="M 163.4616 64.004766 
L 240.5016 64.004766 
Q 242.3016 64.004766 242.3016 62.204766 
L 242.3016 16.995234 
Q 242.3016 15.195234 240.5016 15.195234 
L 163.4616 15.195234 
Q 161.6616 15.195234 161.6616 16.995234 
L 161.6616 62.204766 
Q 161.6616 64.004766 163.4616 64.004766 
z
" style="fill:#ffffff;stroke:#cccccc;stroke-linejoin:miter;"/>
    </g>
    <g id="line2d_27">
     <path d="M 165.2616 22.483828 
L 183.2616 22.483828 
" style="fill:none;stroke:#0000ff;stroke-dasharray:1,1.65;stroke-dashoffset:0;"/>
    </g>
    <g id="line2d_28">
     <g>
      <use style="fill:#0000ff;stroke:#0000ff;stroke-linejoin:miter;" x="174.2616" xlink:href="#m777092c859" y="22.483828"/>
     </g>
    </g>
    <g id="text_14">
     <!-- $\mathrm{Initial\ data}$ -->
     <defs>
      <path d="M 2.59375 0 
L 2.59375 3.515625 
Q 13.375 3.515625 13.375 6.6875 
L 13.375 61.625 
Q 13.375 64.796875 2.59375 64.796875 
L 2.59375 68.3125 
L 33.5 68.3125 
L 33.5 64.796875 
Q 22.703125 64.796875 22.703125 61.625 
L 22.703125 6.6875 
Q 22.703125 3.515625 33.5 3.515625 
L 33.5 0 
z
" id="Cmr10-73"/>
      <path d="M 3.078125 0 
L 3.078125 3.515625 
Q 6.5 3.515625 8.6875 4.046875 
Q 10.890625 4.59375 10.890625 6.6875 
L 10.890625 59.1875 
Q 10.890625 61.859375 10.078125 63.0625 
Q 9.28125 64.265625 7.765625 64.53125 
Q 6.25 64.796875 3.078125 64.796875 
L 3.078125 68.3125 
L 17.921875 69.390625 
L 17.921875 6.6875 
Q 17.921875 4.59375 20.109375 4.046875 
Q 22.3125 3.515625 25.6875 3.515625 
L 25.6875 0 
z
" id="Cmr10-108"/>
      <path d="M 24.421875 -1.125 
Q 18.5 -1.125 13.609375 2.078125 
Q 8.734375 5.28125 6.03125 10.5 
Q 3.328125 15.71875 3.328125 21.578125 
Q 3.328125 27.640625 6.28125 32.828125 
Q 9.234375 38.03125 14.3125 41.109375 
Q 19.390625 44.1875 25.484375 44.1875 
Q 29.15625 44.1875 32.421875 42.640625 
Q 35.6875 41.109375 38.09375 38.375 
L 38.09375 59.1875 
Q 38.09375 61.859375 37.28125 63.0625 
Q 36.46875 64.265625 34.984375 64.53125 
Q 33.5 64.796875 30.328125 64.796875 
L 30.328125 68.3125 
L 45.125 69.390625 
L 45.125 9.078125 
Q 45.125 6.453125 45.921875 5.25 
Q 46.734375 4.046875 48.21875 3.78125 
Q 49.703125 3.515625 52.875 3.515625 
L 52.875 0 
L 37.796875 -1.125 
L 37.796875 5.171875 
Q 35.203125 2.203125 31.640625 0.53125 
Q 28.078125 -1.125 24.421875 -1.125 
z
M 14.203125 8.6875 
Q 15.921875 5.421875 18.765625 3.46875 
Q 21.625 1.515625 25 1.515625 
Q 29.15625 1.515625 32.609375 3.90625 
Q 36.078125 6.296875 37.796875 10.109375 
L 37.796875 34.078125 
Q 36.625 36.28125 34.84375 38.015625 
Q 33.0625 39.75 30.828125 40.671875 
Q 28.609375 41.609375 26.125 41.609375 
Q 20.90625 41.609375 17.71875 38.640625 
Q 14.546875 35.6875 13.28125 31.09375 
Q 12.015625 26.515625 12.015625 21.484375 
Q 12.015625 17.484375 12.421875 14.5 
Q 12.84375 11.53125 14.203125 8.6875 
z
" id="Cmr10-100"/>
     </defs>
     <g transform="translate(190.4616 25.633828)scale(0.09 -0.09)">
      <use transform="translate(0 0.609375)" xlink:href="#Cmr10-73"/>
      <use transform="translate(36.083984 0.609375)" xlink:href="#Cmr10-110"/>
      <use transform="translate(91.601562 0.609375)" xlink:href="#Cmr10-105"/>
      <use transform="translate(119.287109 0.609375)" xlink:href="#Cmr10-116"/>
      <use transform="translate(158.105469 0.609375)" xlink:href="#Cmr10-105"/>
      <use transform="translate(185.791016 0.609375)" xlink:href="#Cmr10-97"/>
      <use transform="translate(235.791016 0.609375)" xlink:href="#Cmr10-108"/>
      <use transform="translate(291.243212 0.609375)" xlink:href="#Cmr10-100"/>
      <use transform="translate(346.76079 0.609375)" xlink:href="#Cmr10-97"/>
      <use transform="translate(396.76079 0.609375)" xlink:href="#Cmr10-116"/>
      <use transform="translate(435.579149 0.609375)" xlink:href="#Cmr10-97"/>
     </g>
    </g>
    <g id="line2d_29">
     <path d="M 165.2616 33.444141 
L 183.2616 33.444141 
" style="fill:none;stroke:#00bfff;stroke-dasharray:1,1.65;stroke-dashoffset:0;"/>
    </g>
    <g id="line2d_30">
     <g>
      <use style="fill:#00bfff;stroke:#00bfff;stroke-linejoin:miter;" x="174.2616" xlink:href="#m1a9d79e016" y="33.444141"/>
     </g>
    </g>
    <g id="text_15">
     <!-- $\mathrm{Opt.\ traj.}$ -->
     <defs>
      <path d="M 38.921875 -2.203125 
Q 29.390625 -2.203125 21.796875 2.84375 
Q 14.203125 7.90625 9.90625 16.28125 
Q 5.609375 24.65625 5.609375 33.890625 
Q 5.609375 40.71875 8.078125 47.40625 
Q 10.546875 54.109375 14.96875 59.28125 
Q 19.390625 64.453125 25.578125 67.484375 
Q 31.78125 70.515625 38.921875 70.515625 
Q 46 70.515625 52.21875 67.453125 
Q 58.453125 64.40625 62.890625 59.171875 
Q 67.328125 53.953125 69.71875 47.453125 
Q 72.125 40.96875 72.125 33.890625 
Q 72.125 24.65625 67.828125 16.28125 
Q 63.53125 7.90625 55.90625 2.84375 
Q 48.296875 -2.203125 38.921875 -2.203125 
z
M 22.3125 10.796875 
Q 25.25 6.203125 29.546875 3.484375 
Q 33.84375 0.78125 38.921875 0.78125 
Q 42.1875 0.78125 45.328125 2.09375 
Q 48.484375 3.421875 51.046875 5.71875 
Q 53.609375 8.015625 55.421875 10.796875 
Q 61.375 19.78125 61.375 35.5 
Q 61.375 49.90625 55.421875 58.296875 
Q 52.484375 62.5 48.109375 65.03125 
Q 43.75 67.578125 38.921875 67.578125 
Q 34.03125 67.578125 29.640625 65.03125 
Q 25.25 62.5 22.3125 58.296875 
Q 19.96875 55.03125 18.671875 51.34375 
Q 17.390625 47.65625 16.84375 43.703125 
Q 16.3125 39.75 16.3125 35.5 
Q 16.3125 30.953125 16.8125 26.625 
Q 17.328125 22.3125 18.71875 18.15625 
Q 20.125 14.015625 22.3125 10.796875 
z
" id="Cmr10-79"/>
      <path d="M 8.40625 5.515625 
Q 8.40625 7.765625 10.0625 9.375 
Q 11.71875 10.984375 13.921875 10.984375 
Q 15.28125 10.984375 16.59375 10.25 
Q 17.921875 9.515625 18.65625 8.203125 
Q 19.390625 6.890625 19.390625 5.515625 
Q 19.390625 3.328125 17.765625 1.65625 
Q 16.15625 0 13.921875 0 
Q 11.71875 0 10.0625 1.65625 
Q 8.40625 3.328125 8.40625 5.515625 
z
" id="Cmmi10-58"/>
      <path d="M 2 -16.796875 
Q 4.296875 -17.921875 7.171875 -17.921875 
Q 11.140625 -17.921875 12.671875 -13.890625 
Q 14.203125 -9.859375 14.203125 -5.171875 
L 14.203125 33.984375 
Q 14.203125 36.671875 13.21875 37.859375 
Q 12.25 39.0625 10.5625 39.328125 
Q 8.890625 39.59375 5.609375 39.59375 
L 5.609375 43.109375 
L 21.1875 44.1875 
L 21.1875 -5.609375 
Q 21.1875 -9.46875 19.28125 -12.90625 
Q 17.390625 -16.359375 14.109375 -18.4375 
Q 10.84375 -20.515625 6.984375 -20.515625 
Q 2.640625 -20.515625 -0.875 -18.359375 
Q -4.390625 -16.21875 -4.390625 -12.3125 
Q -4.390625 -10.359375 -2.96875 -8.9375 
Q -1.5625 -7.515625 0.390625 -7.515625 
Q 2.34375 -7.515625 3.75 -8.9375 
Q 5.171875 -10.359375 5.171875 -12.3125 
Q 5.171875 -13.8125 4.3125 -15.078125 
Q 3.46875 -16.359375 2 -16.796875 
z
M 10.203125 61.375 
Q 10.203125 63.578125 11.859375 65.234375 
Q 13.53125 66.890625 15.71875 66.890625 
Q 17.09375 66.890625 18.40625 66.15625 
Q 19.734375 65.4375 20.453125 64.109375 
Q 21.1875 62.796875 21.1875 61.375 
Q 21.1875 59.234375 19.578125 57.5625 
Q 17.96875 55.90625 15.71875 55.90625 
Q 13.53125 55.90625 11.859375 57.5625 
Q 10.203125 59.234375 10.203125 61.375 
z
" id="Cmr10-106"/>
     </defs>
     <g transform="translate(190.4616 36.594141)scale(0.09 -0.09)">
      <use transform="translate(0 0.484375)" xlink:href="#Cmr10-79"/>
      <use transform="translate(77.685547 0.484375)" xlink:href="#Cmr10-112"/>
      <use transform="translate(133.203125 0.484375)" xlink:href="#Cmr10-116"/>
      <use transform="translate(172.021484 0.484375)" xlink:href="#Cmmi10-58"/>
      <use transform="translate(244.133837 0.484375)" xlink:href="#Cmr10-116"/>
      <use transform="translate(282.952196 0.484375)" xlink:href="#Cmr10-114"/>
      <use transform="translate(322.063524 0.484375)" xlink:href="#Cmr10-97"/>
      <use transform="translate(372.063524 0.484375)" xlink:href="#Cmr10-106"/>
      <use transform="translate(402.581103 0.484375)" xlink:href="#Cmmi10-58"/>
     </g>
    </g>
    <g id="line2d_31">
     <path d="M 165.2616 44.422734 
L 183.2616 44.422734 
" style="fill:none;stroke:#708090;stroke-dasharray:1,1.65;stroke-dashoffset:0;"/>
    </g>
    <g id="line2d_32">
     <g>
      <use style="fill:#708090;stroke:#708090;" x="174.2616" xlink:href="#m151151f61b" y="44.422734"/>
     </g>
    </g>
    <g id="text_16">
     <!-- $\mathrm{CGP-LCB}$ -->
     <defs>
      <path d="M 22.796875 10.6875 
Q 26.21875 6.34375 31.34375 3.828125 
Q 36.46875 1.3125 42 1.3125 
Q 46.625 1.3125 50.578125 3.140625 
Q 54.546875 4.984375 57.5 8.25 
Q 60.453125 11.53125 62.03125 15.671875 
Q 63.625 19.828125 63.625 24.421875 
Q 63.625 25.203125 64.5 25.203125 
L 65.71875 25.203125 
Q 66.5 25.203125 66.5 24.21875 
Q 66.5 19 64.5 14.140625 
Q 62.5 9.28125 58.828125 5.59375 
Q 55.171875 1.90625 50.40625 -0.140625 
Q 45.65625 -2.203125 40.484375 -2.203125 
Q 33.296875 -2.203125 26.875 0.703125 
Q 20.453125 3.609375 15.6875 8.65625 
Q 10.9375 13.71875 8.265625 20.359375 
Q 5.609375 27 5.609375 34.1875 
Q 5.609375 41.359375 8.265625 48 
Q 10.9375 54.640625 15.6875 59.71875 
Q 20.453125 64.796875 26.875 67.65625 
Q 33.296875 70.515625 40.484375 70.515625 
Q 45.609375 70.515625 50.296875 68.28125 
Q 54.984375 66.0625 58.5 62.015625 
L 64.3125 70.21875 
Q 64.890625 70.515625 64.984375 70.515625 
L 65.71875 70.515625 
Q 66.015625 70.515625 66.25 70.265625 
Q 66.5 70.015625 66.5 69.671875 
L 66.5 42.671875 
Q 66.5 41.796875 65.71875 41.796875 
L 63.921875 41.796875 
Q 62.984375 41.796875 62.984375 42.671875 
Q 62.984375 45.5625 61.828125 49.125 
Q 60.6875 52.6875 58.90625 55.875 
Q 57.125 59.078125 54.78125 61.53125 
Q 49.171875 67 41.890625 67 
Q 36.375 67 31.3125 64.5 
Q 26.265625 62.015625 22.796875 57.625 
Q 19.140625 52.9375 17.71875 46.953125 
Q 16.3125 40.96875 16.3125 34.1875 
Q 16.3125 27.390625 17.71875 21.375 
Q 19.140625 15.375 22.796875 10.6875 
z
" id="Cmr10-67"/>
      <path d="M 23 10.6875 
Q 26.609375 6.296875 31.8125 3.796875 
Q 37.015625 1.3125 42.671875 1.3125 
Q 48.25 1.3125 52.78125 4.140625 
Q 57.328125 6.984375 57.328125 12.203125 
L 57.328125 20.609375 
Q 57.328125 23.78125 44.828125 23.78125 
L 44.828125 27.296875 
L 73.484375 27.296875 
L 73.484375 23.78125 
Q 70.3125 23.78125 68.453125 23.234375 
Q 66.609375 22.703125 66.609375 20.609375 
L 66.609375 0.875 
Q 66.609375 0.53125 66.328125 0.265625 
Q 66.0625 0 65.71875 0 
Q 64.796875 0 62.625 2.1875 
Q 60.453125 4.390625 59.1875 6.109375 
Q 56.734375 1.90625 51.515625 -0.140625 
Q 46.296875 -2.203125 40.578125 -2.203125 
Q 30.859375 -2.203125 22.875 2.796875 
Q 14.890625 7.8125 10.25 16.1875 
Q 5.609375 24.5625 5.609375 34.1875 
Q 5.609375 41.265625 8.296875 47.953125 
Q 10.984375 54.640625 15.796875 59.71875 
Q 20.609375 64.796875 27 67.65625 
Q 33.40625 70.515625 40.578125 70.515625 
Q 45.75 70.515625 50.359375 68.28125 
Q 54.984375 66.0625 58.59375 62.015625 
L 64.40625 70.21875 
Q 64.984375 70.515625 65.09375 70.515625 
L 65.828125 70.515625 
Q 66.109375 70.515625 66.359375 70.265625 
Q 66.609375 70.015625 66.609375 69.671875 
L 66.609375 42.671875 
Q 66.609375 41.796875 65.828125 41.796875 
L 64.015625 41.796875 
Q 63.09375 41.796875 63.09375 42.671875 
Q 63.09375 45.5625 61.9375 49.125 
Q 60.796875 52.6875 59.015625 55.875 
Q 57.234375 59.078125 54.890625 61.53125 
Q 49.265625 67 42 67 
Q 36.421875 67 31.34375 64.5 
Q 26.265625 62.015625 22.796875 57.625 
Q 19.140625 52.9375 17.71875 46.953125 
Q 16.3125 40.96875 16.3125 34.1875 
Q 16.3125 18.84375 23 10.6875 
z
" id="Cmr10-71"/>
      <path d="M 3.328125 0 
L 3.328125 3.515625 
Q 13.625 3.515625 13.625 6.6875 
L 13.625 61.625 
Q 13.625 64.796875 3.328125 64.796875 
L 3.328125 68.3125 
L 38.921875 68.3125 
Q 44.390625 68.3125 49.859375 66.0625 
Q 55.328125 63.8125 58.859375 59.515625 
Q 62.40625 55.21875 62.40625 49.515625 
Q 62.40625 43.953125 58.84375 39.75 
Q 55.28125 35.546875 49.859375 33.375 
Q 44.4375 31.203125 38.921875 31.203125 
L 22.90625 31.203125 
L 22.90625 6.6875 
Q 22.90625 3.515625 33.203125 3.515625 
L 33.203125 0 
z
M 22.609375 34.1875 
L 36.1875 34.1875 
Q 41.703125 34.1875 45.109375 35.765625 
Q 48.53125 37.359375 50.109375 40.703125 
Q 51.703125 44.046875 51.703125 49.515625 
Q 51.703125 57.671875 48.109375 61.234375 
Q 44.53125 64.796875 36.1875 64.796875 
L 27.6875 64.796875 
Q 25.875 64.796875 24.875 64.640625 
Q 23.875 64.5 23.234375 63.796875 
Q 22.609375 63.09375 22.609375 61.625 
z
" id="Cmr10-80"/>
      <path d="M 10.203125 23 
Q 9.375 23 8.828125 23.625 
Q 8.296875 24.265625 8.296875 25 
Q 8.296875 25.734375 8.828125 26.359375 
Q 9.375 27 10.203125 27 
L 67.578125 27 
Q 68.359375 27 68.875 26.359375 
Q 69.390625 25.734375 69.390625 25 
Q 69.390625 24.265625 68.875 23.625 
Q 68.359375 23 67.578125 23 
z
" id="Cmsy10-161"/>
      <path d="M 3.078125 0 
L 3.078125 3.515625 
Q 13.375 3.515625 13.375 6.6875 
L 13.375 61.625 
Q 13.375 64.796875 3.078125 64.796875 
L 3.078125 68.3125 
L 35.5 68.3125 
L 35.5 64.796875 
Q 22.703125 64.796875 22.703125 61.625 
L 22.703125 6.6875 
Q 22.703125 4.546875 23.921875 4.03125 
Q 25.140625 3.515625 27.78125 3.515625 
L 35.5 3.515625 
Q 42.96875 3.515625 47.015625 6.25 
Q 51.078125 8.984375 52.75 13.6875 
Q 54.4375 18.40625 55.328125 26.21875 
L 58.203125 26.21875 
L 55.421875 0 
z
" id="Cmr10-76"/>
      <path d="M 3.421875 0 
L 3.421875 3.515625 
Q 13.71875 3.515625 13.71875 6.6875 
L 13.71875 61.625 
Q 13.71875 64.796875 3.421875 64.796875 
L 3.421875 68.3125 
L 40.1875 68.3125 
Q 45.265625 68.3125 50.4375 66.328125 
Q 55.609375 64.359375 59 60.46875 
Q 62.40625 56.59375 62.40625 51.3125 
Q 62.40625 45.21875 57.390625 41.09375 
Q 52.390625 36.96875 45.703125 35.6875 
Q 50.046875 35.6875 54.640625 33.296875 
Q 59.234375 30.90625 62.15625 26.90625 
Q 65.09375 22.90625 65.09375 18.40625 
Q 65.09375 12.9375 61.84375 8.734375 
Q 58.59375 4.546875 53.421875 2.265625 
Q 48.25 0 43.015625 0 
z
M 22.40625 6.6875 
Q 22.40625 4.546875 23.625 4.03125 
Q 24.859375 3.515625 27.484375 3.515625 
L 40.1875 3.515625 
Q 44.09375 3.515625 47.4375 5.5625 
Q 50.78125 7.625 52.734375 11.0625 
Q 54.6875 14.5 54.6875 18.40625 
Q 54.6875 22.21875 53.078125 25.859375 
Q 51.46875 29.5 48.453125 31.84375 
Q 45.453125 34.1875 41.609375 34.1875 
L 22.40625 34.1875 
z
M 22.40625 36.8125 
L 37.40625 36.8125 
Q 40.4375 36.8125 43.09375 37.90625 
Q 45.75 39.015625 47.875 41.09375 
Q 50 43.171875 51.140625 45.78125 
Q 52.296875 48.390625 52.296875 51.3125 
Q 52.296875 53.90625 51.4375 56.296875 
Q 50.59375 58.6875 48.921875 60.640625 
Q 47.265625 62.59375 45.015625 63.6875 
Q 42.78125 64.796875 40.1875 64.796875 
L 27.484375 64.796875 
Q 25.6875 64.796875 24.6875 64.640625 
Q 23.6875 64.5 23.046875 63.796875 
Q 22.40625 63.09375 22.40625 61.625 
z
" id="Cmr10-66"/>
     </defs>
     <g transform="translate(190.4616 47.572734)scale(0.09 -0.09)">
      <use transform="translate(0 0.484375)" xlink:href="#Cmr10-67"/>
      <use transform="translate(72.216797 0.484375)" xlink:href="#Cmr10-71"/>
      <use transform="translate(150.634766 0.484375)" xlink:href="#Cmr10-80"/>
      <use transform="translate(235.3125 0.484375)" xlink:href="#Cmsy10-161"/>
      <use transform="translate(329.658203 0.484375)" xlink:href="#Cmr10-76"/>
      <use transform="translate(392.158203 0.484375)" xlink:href="#Cmr10-67"/>
      <use transform="translate(464.375 0.484375)" xlink:href="#Cmr10-66"/>
     </g>
    </g>
    <g id="line2d_33">
     <path d="M 165.2616 55.383047 
L 183.2616 55.383047 
" style="fill:none;stroke:#ff8c00;stroke-dasharray:1,1.65;stroke-dashoffset:0;"/>
    </g>
    <g id="line2d_34">
     <g>
      <use style="fill:#ff8c00;stroke:#ff8c00;" x="174.2616" xlink:href="#me9d5c1db1f" y="55.383047"/>
     </g>
    </g>
    <g id="text_17">
     <!-- $\mathrm{C2Opt}$ -->
     <defs>
      <path d="M 4.984375 0 
L 4.984375 2.6875 
Q 4.984375 2.9375 5.171875 3.21875 
L 20.703125 20.40625 
Q 24.21875 24.21875 26.40625 26.796875 
Q 28.609375 29.390625 30.75 32.765625 
Q 32.90625 36.140625 34.15625 39.625 
Q 35.40625 43.109375 35.40625 47.015625 
Q 35.40625 51.125 33.890625 54.859375 
Q 32.375 58.59375 29.375 60.84375 
Q 26.375 63.09375 22.125 63.09375 
Q 17.78125 63.09375 14.3125 60.46875 
Q 10.84375 57.859375 9.421875 53.71875 
Q 9.8125 53.8125 10.5 53.8125 
Q 12.75 53.8125 14.328125 52.296875 
Q 15.921875 50.78125 15.921875 48.390625 
Q 15.921875 46.09375 14.328125 44.5 
Q 12.75 42.921875 10.5 42.921875 
Q 8.15625 42.921875 6.5625 44.546875 
Q 4.984375 46.1875 4.984375 48.390625 
Q 4.984375 52.15625 6.390625 55.4375 
Q 7.8125 58.734375 10.46875 61.296875 
Q 13.140625 63.875 16.484375 65.234375 
Q 19.828125 66.609375 23.578125 66.609375 
Q 29.296875 66.609375 34.21875 64.1875 
Q 39.15625 61.765625 42.03125 57.34375 
Q 44.921875 52.9375 44.921875 47.015625 
Q 44.921875 42.671875 43.015625 38.765625 
Q 41.109375 34.859375 38.125 31.65625 
Q 35.15625 28.46875 30.515625 24.40625 
Q 25.875 20.359375 24.421875 19 
L 13.09375 8.109375 
L 22.703125 8.109375 
Q 29.78125 8.109375 34.546875 8.21875 
Q 39.3125 8.34375 39.59375 8.59375 
Q 40.765625 9.859375 42 17.828125 
L 44.921875 17.828125 
L 42.09375 0 
z
" id="Cmr10-50"/>
     </defs>
     <g transform="translate(190.4616 58.533047)scale(0.09 -0.09)">
      <use transform="translate(0 0.484375)" xlink:href="#Cmr10-67"/>
      <use transform="translate(72.216797 0.484375)" xlink:href="#Cmr10-50"/>
      <use transform="translate(122.216797 0.484375)" xlink:href="#Cmr10-79"/>
      <use transform="translate(199.902344 0.484375)" xlink:href="#Cmr10-112"/>
      <use transform="translate(255.419922 0.484375)" xlink:href="#Cmr10-116"/>
     </g>
    </g>
   </g>
  </g>
 </g>
 <defs>
  <clipPath id="p9f226e6718">
   <rect height="59.4" width="107.712" x="44.064" y="9.9"/>
  </clipPath>
 </defs>
</svg>
